<svg t="1622989701398" class="icon" viewBox="0 0 1229 1024" version="1.1" xmlns="http://www.w3.org/2000/svg" p-id="3840" width="200" height="200"><path d="M1119.908346 651.504198H645.95437c-11.466272-3.824198-22.932543-15.29679-22.932543-30.58726 0-11.472593 7.645235-22.945185 19.111506-30.590419h240.798025c19.111506 0 30.577778-15.29363 30.577778-30.58726 0-19.120988-15.287309-30.587259-30.577778-30.587259h-110.844839c-11.466272-3.824198-19.108346-15.29679-19.108346-30.59042s11.466272-26.763062 22.932543-30.587259h194.932938c19.111506 0 30.577778-15.29679 30.577778-30.587259 0-19.120988-15.290469-30.59042-30.577778-30.59042H405.156346c-11.469432-3.824198-19.111506-15.29363-19.111506-30.587259 0-15.29679 11.466272-26.766222 22.932543-30.58726h653.599605c19.111506 0 30.577778-15.29679 30.577777-30.590419 0-19.117827-15.290469-30.587259-30.577777-30.58726H194.932938c-19.111506 0-30.577778 15.29679-30.577778 30.58726 0 11.472593 15.290469 26.766222 30.577778 26.766222h42.04405c15.290469 3.824198 22.932543 15.29363 22.932543 30.587259 0 11.472593-7.642074 22.942025-19.108346 30.587259H30.577778c-19.111506 0-30.577778 15.29679-30.577778 30.59042 0 19.117827 15.287309 30.587259 30.577778 30.587259h611.555555c15.287309 3.824198 22.932543 15.29679 22.932544 30.58726 0 11.472593-7.645235 22.945185-19.111507 30.590419h-179.642469c-19.111506 0-30.577778 15.29363-30.577778 30.58726 0 19.120988 15.287309 30.587259 30.577778 30.587259h68.79763c11.466272 3.824198 19.111506 15.29679 19.111506 30.59042s-7.645235 26.763062-22.932543 30.587259H152.888889c-19.111506 0-30.577778 15.29679-30.577778 30.587259 0 19.120988 15.287309 30.59042 30.577778 30.59042h236.976988c11.466272 3.824198 19.111506 15.29363 19.111506 30.587259 0 11.472593-7.645235 22.942025-19.111506 30.58726H294.311506c-19.111506 0-30.577778 15.29679-30.577778 30.590419 0 19.117827 15.287309 30.587259 30.577778 30.58726h282.842074c19.111506 0 30.577778-15.29679 30.577778-30.58726 0-19.120988-15.287309-30.59042-30.577778-30.590419H485.420247c-11.466272-3.824198-19.108346-15.29363-19.108346-30.58726 0-11.472593 7.642074-22.942025 19.108346-30.587259h630.667062c19.111506 0 30.577778-15.29679 30.577777-30.59042 3.824198-11.469432-11.466272-26.763062-26.75674-26.763061z" fill="#E6EFFF" p-id="3841"></path><path d="M880.200691 450.522074H593.224691l-11.478913-38.200889c-7.654716-15.280988-15.306272-26.740938-30.612543-26.740938l-252.54242 7.638913c-15.306272 3.824198-26.785185 15.280988-26.785185 26.740939V824.888889h631.356049V477.263012c3.827358-15.280988-7.651556-26.740938-22.957827-26.740938z" fill="#FFFFFF" p-id="3842"></path><path d="M910.222222 828.049383H271.802469V417.618173c0-15.344198 11.469432-30.688395 30.584099-30.688395L550.870914 379.259259c15.29363 0 26.759901 11.507358 34.408296 26.851556l11.466271 38.355753h282.895803c15.290469 0 30.580938 11.510519 30.580938 30.688395V828.049383z m-634.595555-7.670519h626.94716V475.154963c0-11.507358-11.466272-23.014716-22.935704-23.014716h-290.537876l-11.469432-42.192593c-3.824198-7.673679-11.466272-23.017877-26.759901-23.017876l-248.484346 7.673679c-11.472593 0-22.938864 11.504198-22.938864 23.014716v402.760691h-3.824198z" fill="#A2ADC2" p-id="3843"></path><path d="M325.530864 993.975309c0 10.726716 50.299259 20.638025 131.950617 26.001382s182.249877 5.363358 263.901235 0S853.333333 1004.702025 853.333333 993.975309c0-16.583111-118.151901-30.024691-263.901234-30.024692s-263.901235 13.44158-263.901235 30.024692zM1167.802469 799.604938s3.877926 0 0 0c3.877926 3.877926 7.759012 27.148642 11.636938 31.029729 7.755852 7.759012 31.029728 3.877926 31.029729 11.636938s-23.273877 7.759012-31.029729 11.636938c-7.759012 7.755852-3.877926 31.029728-11.636938 31.029729s-3.877926-23.273877-11.636938-31.029729c-7.755852-7.759012-31.029728-7.759012-31.029729-15.518024 0-7.755852 23.273877-3.877926 31.029729-11.633778 7.759012-3.877926 3.877926-27.151802 11.636938-27.151803z" fill="#E6EFFF" p-id="3844"></path><path d="M29.253531 733.370469s3.824198 0 0 0c3.824198 0 3.824198 15.312593 7.645234 19.139951 3.824198 3.830519 19.111506 0 19.111507 7.657876 0 3.824198-11.466272 3.824198-19.111507 7.654716-3.824198 3.827358-3.824198 19.139951-7.645234 19.139951-3.824198 0 0-11.485235-7.645235-19.139951C17.787259 760.168296 6.320988 763.995654 6.320988 756.340938c0-7.657877 11.466272 0 19.111506-7.657876 3.824198-3.827358 0-15.312593 3.824197-15.312593zM866.322963 170.666667s3.824198 0 0 0c3.824198 0 3.824198 15.312593 7.648395 19.13995 3.821037 3.827358 19.108346 0 19.108346 7.654716 0 3.827358-15.287309 3.827358-19.111506 7.657877-3.824198 3.824198 0 22.967309-7.645235 22.967309-3.821037 0 0-15.312593-7.642074-19.139951-3.824198-3.827358-19.111506-3.827358-19.111506-7.657877 0-3.824198 15.287309 0 19.111506-7.654716C866.319802 185.979259 862.498765 170.666667 866.319802 170.666667z m340.179753 321.548642c-11.466272 0-22.935704 11.482074-22.935704 22.964148 0 11.485235 7.648395 19.139951 22.935704 19.13995 11.466272 0 22.932543-11.482074 22.932543-22.967308 0-11.485235-11.466272-19.139951-22.932543-19.139951z m0 34.449382c-7.645235 0-11.466272-7.657877-11.466272-11.485234 0-3.827358 7.642074-11.482074 11.466272-11.482074s11.466272 7.654716 11.466272 11.482074c0 3.827358-7.645235 11.485235-11.466272 11.485234z" fill="#E6E6E6" p-id="3845"></path><path d="M263.901235 0C248.888889 0 233.876543 15.012346 233.876543 30.024691s15.012346 30.024691 30.024692 30.024692S293.925926 45.037037 293.925926 30.024691 282.665086 0 263.901235 0z m0 48.791704c-11.257679 0-18.767012-7.509333-18.767013-18.767013s7.509333-18.763852 18.767013-18.763851c11.26084 0 18.767012 7.506173 18.767012 18.763851 0 11.26084-7.509333 18.767012-18.767012 18.767013z" fill="#E6EFFF" p-id="3846"></path><path d="M786.229728 616.542815c3.824198 19.13363-7.642074 38.264099-26.744098 42.091457l-340.059655 61.225086c-19.105185 3.824198-38.21037-7.651556-42.028247-26.785185L300.973827 245.368099c-3.817877-19.130469 7.645235-38.264099 26.747259-42.091457L572.261136 161.185185c42.031407 26.785185 95.522765 61.225086 152.83516 95.661827l61.133432 359.695803z" fill="#FFFFFF" p-id="3847"></path><path d="M405.741037 720.592593c-7.626272 0-15.252543-3.824198-22.878815-7.645235-7.626272-7.645235-15.252543-15.290469-15.252543-26.756741L291.353284 238.958617c-3.811556-15.290469 11.440988-38.223012 30.501926-42.04721L565.880099 154.864198c15.252543 7.645235 30.501926 19.111506 45.754469 30.580938 30.501926 19.111506 68.633284 45.868247 106.761481 64.979753l64.818568 363.140741c3.811556 19.108346-11.440988 42.044049-30.501926 45.868247L413.360988 720.592593h-7.623111z m160.142222-558.083161l-244.028049 42.04721c-19.064099 3.824198-30.498765 19.111506-26.68721 38.226173l76.256395 447.228839c0 7.648395 7.626272 15.290469 11.440988 19.114667 7.623111 3.824198 15.249383 7.645235 22.875654 3.824198l339.342222-61.161877c7.629432 0 15.252543-7.648395 19.06726-11.469432 3.811556-7.645235 7.626272-15.287309 3.811555-22.932543l-64.818568-363.140741c-38.128198-22.932543-72.44484-45.868247-106.761481-64.979753-3.811556-7.645235-19.064099-19.111506-30.498766-26.756741z" fill="#A2ADC2" p-id="3848"></path><path d="M648.612346 220.773136l-283.806025 49.863111c-3.83684 0-7.670519-3.83684-7.670519-7.670519 0-3.83684 3.833679-7.670519 7.670519-7.670518L648.612346 205.432099c3.833679 0 7.670519 3.83684 7.670518 7.670518 0 3.83684-3.83684 7.670519-7.670518 7.670519z m15.341037 92.055704l-283.806025 49.85995c-3.83684 0-7.670519-3.833679-7.670518-7.670518 0-3.833679 3.833679-7.670519 7.670518-7.670519l283.806025-49.863111c3.833679 0 7.670519 3.83684 7.670518 7.670518 0 3.83684 0 7.673679-7.670518 7.67368z m26.845234 237.801876L406.992593 600.493827c-3.833679 0-7.670519-3.83684-7.670519-7.670518 0-3.83684 3.83684-7.670519 7.670519-7.670519l283.806024-49.863111c3.83684 0 7.670519 3.83684 7.670519 7.670519 0 3.83684-3.833679 7.670519-7.670519 7.670518z" fill="#E6EFFF" p-id="3849"></path><path d="M761.931852 657.59763l-237.580642-65.074568c-42.151506-11.482074-65.144099-53.586173-53.649383-95.693432l84.303013-313.874963c11.497877-42.104099 53.649383-65.074568 95.800888-53.589334l237.583803 65.074568c42.151506 11.482074 65.144099 53.586173 53.649383 95.693432l-84.303013 313.874963c-11.497877 42.104099-53.649383 65.074568-95.800889 53.589334z" fill="#FFFFFF" p-id="3850"></path><path d="M823.058963 679.506173h-3.824198l-351.981037-95.927309c-3.824198 0-11.475753-3.83684-11.475753-11.510518-3.827358-3.83684-3.827358-11.513679-3.827358-15.350519l114.776494-429.754469c3.824198-11.510519 15.303111-19.184198 26.778864-15.347358l351.981037 95.927309c3.824198 0 11.475753 3.83684 11.475753 11.510518C960.790123 222.890667 960.790123 230.564346 960.790123 234.401185l-114.776493 429.75763c0 3.83684-3.824198 11.510519-11.475753 11.510518-3.824198 3.83684-7.651556 3.83684-11.478914 3.83684zM585.85442 119.289679c-7.648395 0-11.475753 3.83684-15.303111 11.510519l-114.773334 429.754469v11.513679c3.824198 3.83684 3.824198 7.673679 7.648395 7.673679L815.407407 675.669333h11.478914c3.824198-3.83684 7.648395-3.83684 7.648395-7.673679L949.31437 238.238025v-11.513679c0-3.83684-3.824198-7.673679-7.648395-7.673679l-355.808395-99.764148c3.824198 0 3.824198 0 0 0z" fill="#A2ADC2" p-id="3851"></path><path d="M812.227951 589.422617l-297.987161-80.605234c-3.817877 0-7.638914-3.83684-3.817876-7.673679 0-3.84 3.817877-7.68 7.638913-3.84l297.984 80.605234c3.824198 0 7.642074 3.83684 3.824198 7.67684 3.817877 3.83684-3.824198 7.673679-7.642074 3.836839z m15.280987-53.734716l-297.984-80.605234c-3.824198 0-7.642074-3.83684-3.824197-7.67684 0-3.83684 3.824198-7.67684 7.642074-3.836839l297.984 80.602074c3.824198 0 7.642074 3.84 3.824197 7.68 0 3.83684-3.824198 7.673679-7.642074 3.836839z m15.280988-53.737876L544.805926 401.351111c-3.824198 0-7.642074-3.84-3.824198-7.68 0-3.83684 3.824198-7.673679 7.642074-3.836839l297.984 80.605234c3.824198 0 7.642074 3.83684 3.824198 7.67684 0 3.83684-3.824198 3.83684-7.642074 3.836839z m-15.280988-61.408395l-229.221136-61.414716c-26.740938-7.67684-42.021926-34.544198-34.383012-61.411556l3.824198-11.516839c7.638914-26.864198 34.379852-42.221037 61.12395-34.544198l229.217976 61.411556c26.740938 7.68 42.021926 34.544198 34.383012 61.414716l-7.642074 11.513679c-7.638914 26.867358-34.383012 42.221037-57.302914 34.544197z" fill="#E6EFFF" p-id="3852"></path><path d="M854.385778 189.62963L831.209877 277.361778l50.217086-19.07358L908.464988 300.246914 935.506173 208.700049z" fill="#E6EFFF" p-id="3853"></path><path d="M909.195062 297.08642l-30.90963-37.925926-46.370765 18.962963H828.049383v-3.792593l23.185382-87.229629 3.862124-3.792593 81.148839 22.755556h3.865284c3.862123 0 0 0 0 3.792592L909.195062 297.08642c3.865284 0 3.865284 0 0 0 3.865284 0 0 0 0 0z m-27.047506-45.511111l27.047506 34.133333 23.185382-75.851852-73.418271-18.962963-23.185383 75.851852 46.370766-15.17037c-3.865284 0-3.865284 0 0 0z" fill="#A2ADC2" p-id="3854"></path><path d="M252.839506 483.555556c0 68.955654 57.464099 126.419753 126.419753 126.419753s126.419753-57.464099 126.419753-126.419753-57.464099-126.419753-126.419753-126.419754c-72.786173 3.830519-126.419753 57.464099-126.419753 126.419754z" fill="#FFFFFF" p-id="3855"></path><path d="M376.098765 613.135802c-68.955654 0-126.419753-57.464099-126.419753-126.419753s57.464099-126.419753 126.419753-126.419753 126.419753 57.464099 126.419754 126.419753-57.464099 126.419753-126.419754 126.419753z m0-249.008987c-65.125136 0-122.589235 53.63358-122.589234 122.589234 0 65.125136 53.63358 122.589235 122.589234 122.589235 65.125136 0 122.589235-53.63358 122.589235-122.589235 0-68.955654-53.63358-122.589235-122.589235-122.589234z" fill="#A2ADC2" p-id="3856"></path><path d="M274.962963 481.975309c0 53.608296 45.947259 99.555556 99.555556 99.555555s99.555556-45.947259 99.555555-99.555555-45.947259-99.555556-99.555555-99.555556c-53.608296 3.830519-99.555556 45.947259-99.555556 99.555556z" fill="#E6EFFF" p-id="3857"></path><path d="M374.518519 584.691358c-57.065877 0-102.716049-45.650173-102.71605-102.716049 0.657383-56.452741 46.263309-102.058667 102.71605-102.71605 57.065877 0 102.716049 45.650173 102.716049 102.71605 0 57.065877-45.650173 102.716049-102.716049 102.716049z m0-197.82479c-26.630321 0-49.455407 11.415704-68.47842 26.630321-19.019852 19.023012-26.630321 41.848099-26.630321 68.47842h-3.802074 3.802074c0 53.260642 41.848099 95.108741 95.108741 95.10874s95.108741-41.848099 95.10874-95.10874c0-26.630321-11.415704-49.455407-26.630321-68.47842-19.023012-15.214617-41.848099-26.630321-68.478419-26.630321z" fill="#E6EFFF" p-id="3858"></path><path d="M309.728395 591.012346l-25.283951 41.086419" fill="#FFFFFF" p-id="3859"></path><path d="M283.401481 638.419753c-3.732543 0-3.732543 0 0 0-3.732543-3.90637-7.465086-3.90637-3.732543-7.815901l26.118321-42.982716c0-3.90637 3.729383-3.90637 7.465087 0 3.729383 0 3.729383 3.909531 0 7.815901L287.130864 638.419753h-3.729383z" fill="#A2ADC2" p-id="3860"></path><path d="M467.753086 632.098765l-25.28395-41.086419" fill="#FFFFFF" p-id="3861"></path><path d="M467.787852 635.259259s-3.792593 0-3.792593-3.814716l-26.557629-41.971358v-7.632592h7.585185l26.557629 41.971358c3.792593 7.632593 3.792593 11.447309-3.792592 11.447308 3.792593 0 3.792593 0 0 0z m-91.053827-270.917531c-3.795753 0-3.795753-3.814716-3.795753-3.814716v-34.341926c0-3.814716 0-3.814716 3.792592-3.814716s3.792593 3.814716 3.792593 3.814716v34.341926l-3.792593 3.814716z" fill="#A2ADC2" p-id="3862"></path><path d="M335.012346 303.407407h79.012345v18.962963h-79.012345z" fill="#E6EFFF" p-id="3863"></path><path d="M418.670617 325.530864h-83.045136S331.851852 325.530864 331.851852 321.91842v-18.059062S331.851852 300.246914 335.625481 300.246914h79.265186s3.77679 0 3.77679 3.612444V325.530864c3.77679 0 0 0 0 0z m-79.268345-7.224889h71.717926v-14.446617h-71.717926v14.446617z" fill="#A2ADC2" p-id="3864"></path><path d="M372.938272 483.555556c0 3.160494 3.160494 3.160494 3.160493 3.160493l3.160494-3.160493c0-3.160494-3.160494-3.160494-3.160494-3.160494l-3.160493 3.160494z" fill="#FFFFFF" p-id="3865"></path><path d="M374.518519 493.037037c-3.688296 0-11.061728-3.688296-11.061729-11.061728s3.688296-11.061728 11.061729-11.061729 11.061728 3.688296 11.061728 11.061729-7.373432 11.061728-11.061728 11.061728z" fill="#A2ADC2" p-id="3866"></path><path d="M376.730864 489.876543c-3.792593 0-3.792593-3.83684-3.792592-3.836839v-99.783111c0-3.83684 0-3.83684 3.792592-3.83684s3.792593 3.83684 3.792593 3.83684v99.783111L376.730864 489.876543z m87.22963-3.836839h-79.644445c-3.792593 0-3.792593 0-3.792592-3.84 0-3.83684 3.792593-3.83684 3.792592-3.83684h79.644445c3.792593 0 3.792593 0 3.792592 3.83684 0 3.84 0 3.84-3.792592 3.84z" fill="#A2ADC2" p-id="3867"></path><path d="M300.246914 363.045926c-7.525136-11.545284-18.811259-15.391605-33.861531-15.391605C240.045827 347.654321 221.234568 366.892247 221.234568 393.825975c0 15.391605 7.525136 30.780049 22.575407 42.322173 11.286123-30.78321 30.100543-57.710617 56.436939-73.102222z" fill="#E6EFFF" p-id="3868"></path><path d="M244.805531 439.308642C225.712988 427.930864 218.074074 412.760494 218.074074 393.797531c0-26.548148 22.91358-49.303704 49.645037-49.303704 15.277827 0 26.734617 7.585185 38.191408 15.170371L309.728395 363.45679l-3.817876 3.792593c-26.734617 15.17037-45.82716 37.925926-57.283951 68.266666l-3.821037 3.792593z m19.095704-87.22963c-22.91358 0-42.009284 18.962963-42.009284 41.718519 0 15.17037 7.638914 26.548148 19.095703 34.133333 11.45679-26.548148 30.552494-49.303704 53.466074-64.474074-7.638914-7.585185-19.095704-11.377778-30.552493-11.377778z" fill="#A2ADC2" p-id="3869"></path><path d="M451.950617 363.045926c7.525136-11.545284 18.811259-15.391605 33.861531-15.391605 26.339556 0 45.150815 19.237926 45.150815 46.171654 0 15.391605-7.525136 30.780049-22.575407 42.322173-11.286123-30.78321-30.100543-57.710617-56.436939-73.102222z" fill="#E6EFFF" p-id="3870"></path><path d="M506.731457 439.308642v-3.792593c-7.635753-30.340741-30.549333-53.096296-57.283951-68.266666L445.62963 363.45679l3.817876-3.792592c7.638914-11.377778 22.91358-15.17037 38.191408-15.170371 26.731457 0 49.645037 22.755556 49.645037 49.303704 0 18.962963-11.45679 34.133333-30.552494 45.511111z m-49.645037-75.851852c26.731457 15.17037 45.82716 37.925926 53.466074 64.474074 11.45679-7.585185 19.092543-22.755556 19.092543-34.133333 0-22.755556-19.092543-41.718519-42.006123-41.718519-11.45679 0-22.91358 3.792593-30.552494 11.377778z" fill="#A2ADC2" p-id="3871"></path><path d="M919.924938 556.246914h-96.774321c-3.871605 0-7.74321-3.811556-7.74321-7.623112v-114.334024c0-3.811556 3.871605-7.623111 7.74321-7.623111h96.774321c3.871605 0 7.74321 3.811556 7.74321 7.623111v114.334024c3.868444 3.811556 0 7.623111-7.74321 7.623112z" fill="#E6EFFF" p-id="3872"></path><path d="M919.798519 559.407407h-96.028445c-7.68 0-11.52316-7.724247-11.52316-11.58953v-115.882667c0-7.727407 7.68-11.589531 11.52316-11.589531h96.031605c7.68 0 11.52316 7.724247 11.523161 11.589531v115.882667c3.84 3.865284-3.84316 11.589531-11.523161 11.58953z m-92.185284-135.199605c-3.84316 0-7.68316 3.862123-7.683161 7.727408v115.882667c0 3.865284 3.84 7.727407 7.68 7.727407h96.031605c3.84 0 7.68-3.862123 7.68-7.727407v-115.882667c0-3.865284-3.84-7.727407-7.68-7.727408h-96.028444z m-11.526321 42.49284h115.237926-115.237926z" fill="#A2ADC2" p-id="3873"></path><path d="M815.407407 464.592593h113.777778v6.320987h-113.777778z" fill="#A2ADC2" p-id="3874"></path><path d="M929.185185 470.91358h-113.777778v-39.506173c0-3.950617 3.792593-7.901235 7.585186-7.901234h94.814814c3.792593 0 7.585185 3.950617 7.585186 7.901234v31.604939c3.792593 3.950617 3.792593 3.950617 3.792592 7.901234z" fill="#FFFFFF" p-id="3875"></path><path d="M935.506173 474.074074h-120.098766V431.859358c0-7.67684 7.749531-11.513679 11.621136-11.513679h96.856494c7.74637 0 11.621136 7.67684 11.621136 11.513679V474.074074z m-116.224-7.676839h108.474469V428.025679c0-3.84-3.871605-7.67684-7.74637-7.676839h-96.853334c-3.874765 0-7.749531 3.83684-7.749531 7.676839v30.701037c3.874765 3.83684 3.874765 3.83684 3.874766 7.673679z" fill="#A2ADC2" p-id="3876"></path><path d="M296.406914 843.851852c-15.299951 0-26.775704-11.447309-26.775704-26.709333L227.555556 557.669136c0-15.262025 11.472593-26.709333 26.775703-26.709334h692.325136c15.299951 0 26.775704 11.447309 26.775704 26.709334l-45.899852 259.470222c0 15.262025-11.472593 26.709333-26.775704 26.709333H296.406914z" fill="#E6EFFF" p-id="3877"></path><path d="M900.228741 847.012346H296.941037c-15.271506 0-30.546173-15.350519-30.546173-30.701037L224.395062 555.343012c0-19.187358 15.271506-30.701037 30.546173-30.701037h691.105185c15.274667 0 30.546173 15.350519 30.546173 30.701037l-45.817679 260.968297c0 15.350519-15.274667 30.701037-30.546173 30.701037zM254.941235 528.478815c-11.45363 0-22.91042 11.513679-22.91042 23.027358l42.002963 264.805136c0 11.513679 7.635753 23.024198 22.907259 23.024197h603.287704c11.45363 0 22.907259-11.510519 22.907259-23.024197l45.82084-260.968297c0-11.513679-11.45679-23.024198-22.91042-23.024197H254.941235v-3.84z" fill="#A2ADC2" p-id="3878"></path><path d="M723.753086 466.17284c0 75.927704 61.553778 137.481481 137.481482 137.481481s137.481481-61.553778 137.481481-137.481481-61.553778-137.481481-137.481481-137.481482-137.481481 61.553778-137.481482 137.481482z" fill="#FFFFFF" p-id="3879"></path><path d="M862.814815 606.814815c-76.875852 0-142.222222-61.50321-142.222222-142.222222 0-76.875852 61.50321-142.222222 142.222222-142.222223s142.222222 61.50321 142.222222 142.222223-65.34637 142.222222-142.222222 142.222222z m0-272.911803c-73.032691 0-134.535901 61.50321-134.535901 134.532741 0 73.032691 61.50321 134.535901 134.535901 134.535901 73.032691 0 134.535901-61.50321 134.535901-134.535901 0-73.032691-61.50321-134.532741-134.535901-134.532741z" fill="#A2ADC2" p-id="3880"></path><path d="M957.62963 441.565235L831.93679 518.320988 809.08642 476.106272 938.584494 410.864198z" fill="#E6EFFF" p-id="3881"></path><path d="M826.469136 524.641975l-26.864198-50.362469L937.762765 404.54321 960.790123 443.284543 826.469136 524.641975z m-15.350519-50.362469l19.187358 34.866568 118.970469-73.607901-15.350518-23.245432-122.807309 61.986765z" fill="#A2ADC2" p-id="3882"></path><path d="M824.888889 469.285926l6.712889-3.625086 20.328296 36.393086L845.179259 505.679012 824.888889 469.285926z m93.05758-48.475654l6.712889-3.625087L944.987654 453.578272l-6.712889 3.625086-20.328296-36.393086z" fill="#A2ADC2" p-id="3883"></path><path d="M780.641975 487.063704l23.472988-12.98963L828.049383 517.973333l-23.472988 12.98963z" fill="#E6EFFF" p-id="3884"></path><path d="M807.506173 537.283951l-30.024692-54.07921 30.024692-15.451655 30.024691 54.07921-30.024691 15.451655z m-18.767013-50.217087l18.767013 38.627556 15.012346-7.724247-18.767013-38.627556-15.012346 7.724247z" fill="#A2ADC2" p-id="3885"></path><path d="M786.330864 534.123457l-15.17037-26.548148 22.755555-11.377778 15.170371 26.548148-22.755556 11.377778z m-3.792592-22.755556l7.585185 15.170371 7.585185-3.792593-7.585185-15.17037-7.585185 3.792592z" fill="#A2ADC2" p-id="3886"></path><path d="M444.280099 655.322074v8.871506H440.888889v3.783111h-10.416988v-3.783111h-7.098469v4.089679h-10.492839v-4.089679h-4.089679v-8.871506h4.089679v-4.399407h10.492839v4.399407h7.098469v-4.089679h10.416988v4.089679h3.39437z m-29.319901 14.117926h9.876543l-1.001877 2.23763h20.214519v40.432197h2.468345c1.697185 0 3.473383-2.338765 5.325432-7.019457l4.08968-9.490963-10.416988-22.14558h11.725432l4.171852 8.950519 5.477136-12.964346h12.344888l-11.65274 26.159407 6.251457 13.195062c0.821728 2.003753 1.801481 3.00879 2.932938 3.00879h2.465185v9.260247h-8.947358c-1.697185 0-3.113086-1.264198-4.244543-3.783111l-4.165531-8.795654-3.242667 7.253333c-1.592889 3.549235-3.470222 5.322272-5.632 5.322272H444.049383v-8.100346c0 5.401284-3.113086 8.100346-9.336099 8.100346h-23.457185v-8.950519h20.062815c1.491753 0 2.23763-0.64158 2.237629-1.927901v-29.62963h-14.045234c-1.182025 2.262914-2.983506 3.39437-5.401284 3.394371h-5.322272v-7.945482h1.618173c0.979753 0 1.700346-0.51516 2.161778-1.545481l2.392494-5.015704z m-4.551112 16.128h20.059655v18.520494c0 3.65037-1.336889 5.477136-4.013827 5.477136h-16.048988v-23.99763z m11.339852 16.665284c0.410864 0 0.619457-0.461432 0.619457-1.387457v-7.948642h-4.013827v9.336099h3.39437z m30.245926-51.620346h11.807605l-1.542321 4.089679h16.971852v9.490963h-20.754963l-0.537284 1.545482c-1.185185 3.290074-3.267951 4.936691-6.251457 4.936691h-6.172444v-9.566815h1.852049c1.02716 0 1.801481-0.799605 2.313482-2.392494l2.316642-8.103506z m62.634667 0.309729h11.033284v15.432691h-11.033284v-15.432691z m-4.709136 20.062814h14.895407v38.886717c0 1.080889 0.360296 1.621333 1.077729 1.621333h3.476543v9.260247h-10.496c-2.828642 0-4.244543-1.466469-4.244543-4.399408v-35.492345h-4.709136v-9.876544z m68.519506-18.134913v7.948642h-19.133629v2.161778h17.976888v8.024493h-17.976888v2.158618h21.064691v8.722963h-51.004049v-8.722963h19.753086v-2.158618h-17.515457v-8.027654h17.515457v-2.158617h-18.827062v-7.948642h18.827062v-3.39437h10.186272v3.39437h19.133629z m0 31.481679v30.245926c0 4.73442-3.084642 7.10163-9.260247 7.101629h-12.651456V714.271605h10.262123c1.182025 0 1.773037-0.436148 1.773037-1.311605v-1.466469h-26.772543v9.876543H531.911111v-37.037827h46.52563z m-36.649086 20.062815h26.772543v-2.468346h-26.772543v2.468346z m0-9.566815h26.772543v-2.471506h-26.772543v2.471506z m105.380345-39.199605v9.260247h-2.781234v32.331852h4.092839v9.260247h-37.733135v-9.260247h4.013827v-32.331852h-2.702222v-9.260247h2.702222v-5.941728h9.876543v5.941728h10.262123v-5.941728h9.490963v5.941728h2.778074z m-22.53432 41.592099h10.265283v-5.170568h-10.262123v5.167407z m0-13.580642h10.265283v-5.170568h-10.262123v5.170568z m0-13.580642h10.265283v-5.170568h-10.262123v5.170568z m-8.871507 38.349432h10.802568l-5.015703 9.721679c-1.02716 2.158617-2.74963 3.239506-5.170568 3.239506h-5.632v-8.100346h1.621333c0.720593 0 1.232593-0.360296 1.542321-1.080888l1.852049-3.779951z m14.737383 0h10.49284l1.159901 3.549234c0.256 0.666864 0.695309 1.001877 1.311605 1.001877h2.853926v8.100346h-8.027655c-1.488593 0-2.774914-1.052444-3.855802-3.160494l-3.934815-9.490963z m20.062815-57.795951h30.941234v62.347062c0 5.401284-2.983506 8.100346-8.950518 8.100346h-6.251457v-9.260247h2.857087c1.438025 0 2.158617-0.742716 2.158617-2.234469v-11.033284h-10.87842v12.651456c0 6.586469-3.293235 9.876543-9.876543 9.876544h-2.392494v-9.260247h0.309728c1.387457 0 2.082765-0.948148 2.082766-2.853926v-58.333235z m9.876543 38.889877h10.87842v-9.566815h-10.87842v9.566815z m0-18.520494h10.87842v-10.799407h-10.87842v10.802567z m61.010173-20.675951h11.112296l-6.788741 15.508544c-0.670025 1.852049-1.801481 2.778074-3.39753 2.778074h8.950518l-4.551111 10.571852v41.895506h-9.876543V687.344198h-4.709136v-9.487803h2.471506c1.336889 0 2.288198-0.720593 2.853926-2.161778l3.087803-7.098469h-8.410075v-9.260247h4.396247c0.568889 0 1.005037-0.410864 1.311605-1.232592l3.549235-7.793778z m59.878716 5.015704v9.260247h-16.975012v7.095309h18.902913v9.184395h-51.310617v-9.184395h21.680988v-7.09847h-19.753087v-9.260246h19.753087v-5.012544h10.726716v5.015704h16.971851z m1.311605 30.555654v9.260247h-5.325432v16.665284c0 2.778074-0.900741 5.12-2.699062 7.019457-1.390617 1.700346-3.473383 2.547358-6.251457 2.547358h-10.802568v-8.100346h-12.961185c-3.397531 0-5.556148-1.621333-6.482173-4.860839l-2.778074-10.802568h11.497877l0.847012 4.320395c0.360296 1.643457 1.210469 2.468346 2.547358 2.468346h7.638914v8.25521h6.479012c1.494914 0 2.24079-1.311605 2.24079-3.934815v-13.580642h-34.645333v-9.260247h34.645333v-3.700938h10.723556v3.704098h5.325432z" fill="#A2ADC2" p-id="3887"></path></svg>
