<svg t="1612248825727" class="icon" viewBox="0 0 1024 1024" version="1.1" xmlns="http://www.w3.org/2000/svg" p-id="2133" width="128" height="128"><path d="M219.274 937.929c-55.89 0-101.359-45.502-101.359-101.427V251.879c0-57.479 46.708-106.035 101.996-106.035h396.04v56.951H219.91c-23.74 0-45.359 23.392-45.359 49.084v584.623c0 24.686 20.064 44.77 44.722 44.77h584.26c25.918 0 49.515-21.604 49.515-45.332V439.9h56.958v396.04c0 54.329-49.755 101.989-106.473 101.989h-584.26z m17.556-90.656c-9.038 0-17.174-4.225-22.316-11.593-6.02-8.628-7.114-19.995-3-31.177l105.543-213.708c1.945-10.565 6.485-19.543 13.23-26.288l378.709-378.955c9.95-9.95 23.172-15.428 37.237-15.428 14.052 0 27.281 5.478 37.245 15.421l86.067 86.144c9.943 9.943 15.42 23.18 15.42 37.258s-5.477 27.308-15.427 37.244L490.823 725.166c-6.888 6.902-15.804 11.34-27.26 13.572L251.396 843.835c-4.91 2.274-9.82 3.438-14.566 3.438z m28.453-68.798c-1.41 2.87-1.267 6.06 0.328 8.642 1.541 2.493 4.24 3.985 7.21 3.985 1.487 0 3.02-0.363 4.555-1.081l126.928-76.892-61.958-62.047-77.063 127.393z m107.864-176.703l80.432 80.507 269.79-269.961-81.015-79.932-269.207 269.386z m373.079-364.883c-5.43 0-10.546 2.123-14.394 5.985l-47.646 47.631 79.323 81.679 48.769-48.823c7.937-7.937 7.937-20.872-0.007-28.836l-51.617-51.651c-3.869-3.862-8.991-5.985-14.428-5.985zM534.497 790.903v-56.952h252.986v56.952H534.497z m122.518-98.017v-56.952h130.468v56.952H657.015zM240.44 447.844v-56.959h130.467v56.959H240.44z m0-98.024v-56.952h252.985v56.952H240.44z" p-id="2134" fill="#666666"></path></svg>
