<svg t="1622640635830" class="icon" viewBox="0 0 1335 1024" version="1.1" xmlns="http://www.w3.org/2000/svg" p-id="2324" width="200" height="200"><path d="M1264.277753 559.974104a217.508254 217.508254 0 0 0-11.184685-14.307588l-6.761951 5.775833a208.545591 208.545591 0 0 1 10.719445 13.729887l7.227191-5.198132z m-23.889388-27.58289a104.521397 104.521397 0 0 0-14.676938-11.40369l-4.771959 7.519593c4.453512 2.816296 8.924782 6.293161 13.424463 10.436513l6.024434-6.552416z m-32.055343-19.519926a54.554932 54.554932 0 0 0-19.227524-2.307256l0.545739 8.878613c5.443182-0.31963 10.899385 0.342123 16.110539 1.947376l2.571246-8.518733z m-37.988624 2.160462a89.838539 89.838539 0 0 0-16.452662 9.082229l5.137758 7.274544a80.83089 80.83089 0 0 1 14.751519-8.138729l-3.435431-8.208573v-0.009471z m-30.469032 22.607316a51.118317 51.118317 0 0 0-8.328138 17.603329l8.609886 2.230308a42.172227 42.172227 0 0 1 6.881517-14.566844l-7.168-5.262058 0.004735-0.004735z m-10.261308 37.086557c0.171653 5.419505 0.716208 10.382058 1.840832 18.201156l8.808768-1.276152c-1.086742-7.510123-1.600518-12.199214-1.756782-17.202017l-8.892818 0.277013z m3.828458 35.162858a99.751806 99.751806 0 0 1-0.361064 17.036282l8.84665 0.980199c0.666488-6.011413 0.771847-12.194479 0.393026-18.543279l-8.878612 0.526798z m-4.165845 33.711501a56.737887 56.737887 0 0 1-7.801342 14.547902l7.130118 5.317698a65.505221 65.505221 0 0 0 9.031325-16.818461l-8.360101-3.047139z m-19.422854 26.067606c-3.592879 2.658849-7.616666 5.031214-12.09267 7.09342a69.691191 69.691191 0 0 1-2.719223 1.193286l3.412938 8.21686c0.952971-0.393027 1.882266-0.800259 3.024648-1.322322a77.369415 77.369415 0 0 0 13.669512-8.032185l-5.295205-7.144323v-0.004736z m-30.838381 12.670373a47.165558 47.165558 0 0 1-16.250229-0.74462l-1.960398 8.679732c6.229235 1.405188 12.665637 1.710613 19.297369 0.892596l-1.086742-8.827708z m-31.616148-7.140773a68.267061 68.267061 0 0 1-12.920157-10.58449l-6.390234 6.187801a77.241563 77.241563 0 0 0 14.613013 11.954165l4.697378-7.557476z m-23.773374-24.115496a134.662511 134.662511 0 0 1-7.690062-12.985267l-7.888943 4.106655a144.603006 144.603006 0 0 0 8.203838 13.854187l7.375167-4.98031v0.004735z m0 0" fill="#FFE781" p-id="2325"></path><path d="M663.819542 991.456925c145.890997 0 264.165956-9.873017 264.165956-22.058026 0-12.170802-118.27496-22.048555-264.165956-22.048554-145.900467 0-264.175427 9.877753-264.175426 22.048554 0 12.189743 118.27496 22.058025 264.175426 22.058026z m0 0" fill="#D7EEF9" p-id="2326"></path><path d="M364.05982 324.557096h687.417711a6.5536 6.5536 0 0 1 6.552416 6.552416v485.133318a6.554784 6.554784 0 0 1-6.552416 6.552416H370.612236a6.5536 6.5536 0 0 1-6.552416-6.552416v-491.685734z m0 0" fill="#D4F1FF" p-id="2327"></path><path d="M281.641434 226.693475h680.865294a6.5536 6.5536 0 0 1 6.552417 6.552416v502.923691a6.554784 6.554784 0 0 1-6.552417 6.552416H281.641434a6.5536 6.5536 0 0 1-6.552417-6.552416v-502.931977a6.5536 6.5536 0 0 1 6.552417-6.552417v0.008287z m0 0" fill="#B6EAFF" p-id="2328"></path><path d="M263.84751 226.693475h29.030696v516.019052h-29.030696a6.5536 6.5536 0 0 1-6.552416-6.552416V233.245891a6.5536 6.5536 0 0 1 6.552416-6.552416z m0 0" fill="#83DCFF" p-id="2329"></path><path d="M292.882941 226.693475h26.691477v516.019052h-26.691477z" fill="#60D0FC" p-id="2330"></path><path d="M245.191769 34.62659c20.173392-13.449323 37.24874-4.32566 41.807611 15.21439 0.286483 1.2288-3.679297 12.054788-9.809091 26.788551-15.555329 37.394349-42.264564 99.731681-42.264564 99.731681l-32.337091-12.846761s17.404449-53.746386 30.195569-91.919686c5.704805-17.022076 10.490969-35.689655 12.407566-36.968175z" fill="#FED00F" p-id="2331"></path><path d="M1277.414548 610.268486l-9.128398 25.082672-50.159426-18.26153 9.128397-25.077938 50.159427 18.256796z m0 0" fill="#8A92FF" p-id="2332"></path><path d="M1138.109114 364.590169a22.227311 22.227311 0 0 0 11.117207 19.264222 22.243884 22.243884 0 0 0 22.242701 0 22.227311 22.227311 0 0 0 11.117207-19.264222 22.228495 22.228495 0 0 0-11.117207-19.260671 22.227311 22.227311 0 0 0-22.242701 0 22.228495 22.228495 0 0 0-11.117207 19.260671z m0 0" fill="#0ED0FA" p-id="2333"></path><path d="M1262.659477 519.049618c0 4.22622 3.422409 7.653364 7.639159 7.653365 4.221484 0 7.639158-3.427145 7.639158-7.653365s-3.417674-7.653364-7.639158-7.653364c-4.217933 0-7.639158 3.427145-7.639159 7.653364z m0 0" fill="#FF6392" p-id="2334"></path><path d="M141.632814 493.597595c0 9.831584 7.967075 17.798659 17.793924 17.798659 9.831584 0 17.798659-7.967075 17.798659-17.798659 0-9.826849-7.967075-17.793924-17.798659-17.793923-9.826849 0-17.793924 7.967075-17.793924 17.793923z m0 0" fill="#82E5D1" p-id="2335"></path><path d="M61.558382 177.916745C59.332809 159.519075 75.018358 151.528324 89.211117 155.516597c2.668319 0.749355 22.365817 28.739477 22.365817 28.739477l61.625859 82.082183-20.551029 15.292522L84.879538 204.911279s-23.055982-24.800925-23.321156-26.994534z m0 0" fill="#FF6393" p-id="2336"></path><path d="M852.314858 593.727038l55.61563 55.612079a6.558335 6.558335 0 0 1 0 9.271639l-14.085031 14.08148a6.541762 6.541762 0 0 1-9.262169 0l-55.612079-55.61563-25.466229 36.804809-58.552675-144.161443 144.170913 58.54794-36.80836 25.459126z m0 0M408.545221 288.969249h471.543121a8.897554 8.897554 0 0 1 0 17.793923H408.545221a8.898738 8.898738 0 1 1 0-17.793923z m0 0" fill="#60D0FC" p-id="2337"></path><path d="M399.644116 369.042497h435.958825v35.584296H399.644116V369.042497z m0 80.069697h195.741447v35.593767H399.644116v-35.593767z m0 0" fill="#FFFFFF" p-id="2338"></path><path d="M181.343889 297.21452m-13.098913 0a13.098913 13.098913 0 1 0 26.197826 0 13.098913 13.098913 0 1 0-26.197826 0Z" fill="#FF6393" p-id="2339"></path><path d="M207.705082 200.558391m-16.57341 0a16.57341 16.57341 0 1 0 33.14682 0 16.57341 16.57341 0 1 0-33.14682 0Z" fill="#FED00F" p-id="2340"></path></svg>
