<svg t="1615365233977" class="icon" viewBox="0 0 1024 1024" version="1.1" xmlns="http://www.w3.org/2000/svg" p-id="31529" width="256" height="256"><path d="M375.466667 614.4V341.333333c0-40.96 27.306667-68.266667 68.266666-68.266666h136.533334c40.96 0 68.266667 27.306667 68.266666 68.266666v273.066667h191.146667c6.826667 0 20.48 6.826667 27.306667 6.826667 13.653333 13.653333 13.653333 34.133333 0 47.786666l-327.68 327.68c-13.653333 13.653333-34.133333 13.653333-47.786667 0L163.84 675.84c-6.826667-6.826667-13.653333-20.48-13.653333-27.306667 0-20.48 13.653333-34.133333 34.133333-34.133333H375.466667z m34.133333-477.866667h204.8c20.48 0 34.133333 13.653333 34.133333 34.133334s-13.653333 34.133333-34.133333 34.133333h-204.8c-20.48 0-34.133333-13.653333-34.133333-34.133333s13.653333-34.133333 34.133333-34.133334z m0-136.533333h204.8c20.48 0 34.133333 13.653333 34.133333 34.133333s-13.653333 34.133333-34.133333 34.133334h-204.8C389.12 68.266667 375.466667 54.613333 375.466667 34.133333s13.653333-34.133333 34.133333-34.133333z" p-id="31530"></path></svg>
