<svg t="1765953898889" class="icon" viewBox="0 0 1024 1024" version="1.1" xmlns="http://www.w3.org/2000/svg" p-id="6018" width="200" height="200"><path d="M603.904 244.992c134.4 0 243.3536 108.9536 243.3536 243.3536v202.8032c0 134.4-108.9536 243.3536-243.3536 243.3536H320c-134.4 0-243.3536-108.9536-243.3536-243.3536V488.3456c0-134.4 108.9536-243.3536 243.3536-243.3536h283.904z m0 81.1008H320c-89.6 0-162.2528 72.6528-162.2528 162.2528v202.8032c0 89.6 72.6528 162.2528 162.2528 162.2528h283.904c89.6 0 162.2528-72.6528 162.2528-162.2528V488.3456c0-89.6-72.6528-162.2528-162.2528-162.2528z" p-id="6019"></path><path d="M340.224 508.6208c27.0336 0 40.5504 13.5168 40.5504 40.5504v81.1008c0 27.0336-13.5168 40.5504-40.5504 40.5504-27.0336 0-40.5504-13.5168-40.5504-40.5504v-81.1008c0-27.0336 13.5168-40.5504 40.5504-40.5504zM583.2192 501.3504c15.2576-11.4176 36.864-8.3456 48.2816 6.912a34.4832 34.4832 0 0 1-6.912 48.2816l-44.3904 33.28 44.3904 33.28a34.53952 34.53952 0 0 1 9.472 44.3392l-2.56 3.9424c-11.4176 15.2576-33.024 18.3296-48.2816 6.912l-59.4944-44.5952c-13.7728-10.3424-21.9136-26.5728-21.9136-43.8272s8.0896-33.4848 21.9136-43.8272l59.4944-44.5952zM883.5072 261.12l-19.7632 47.3088c-2.7648 6.656-9.2672 10.9568-16.4864 10.9568s-13.6704-4.3008-16.4864-10.9568L811.008 261.12a44.416 44.416 0 0 0-19.7632-21.9648l-34.8672-19.0976c-5.7344-3.1232-9.2672-9.1136-9.2672-15.6672s3.5328-12.544 9.2672-15.6672l34.8672-19.0464a44.89728 44.89728 0 0 0 19.7632-21.9648l19.7632-47.3088c2.7648-6.656 9.2672-10.9568 16.4864-10.9568s13.6704 4.3008 16.4864 10.9568l19.7632 47.3088a44.416 44.416 0 0 0 19.7632 21.9648l34.8672 19.0976c5.7344 3.1232 9.2672 9.1136 9.2672 15.6672s-3.584 12.544-9.2672 15.6672l-34.8672 19.0464c-8.9088 4.864-15.872 12.6464-19.7632 21.9648z" p-id="6020"></path></svg>
