<?xml version="1.0" standalone="no"?><!DOCTYPE svg PUBLIC "-//W3C//DTD SVG 1.1//EN" "http://www.w3.org/Graphics/SVG/1.1/DTD/svg11.dtd"><svg t="1762619142165" class="icon" viewBox="0 0 1097 1024" version="1.1" xmlns="http://www.w3.org/2000/svg" p-id="18994" xmlns:xlink="http://www.w3.org/1999/xlink" width="137.125" height="128"><path d="M406.7 399.8c-1.9-1.2-5.3-1.1-7.2 0-2.5-1.4-4.8-1.4-6.5-0.4 2.5-1.2 10.6-5.1 20.3 0-1.8-1-4.1-1-6.6 0.4z" fill="#C5BEED" p-id="18995"></path><path d="M399.7 399.8c-2.3-1.2-4.4-1.2-6.2-0.2 0.4-0.2 1.2-0.7 1.2-0.7l1.1-0.5c0.4 0 1.1-0.4 1.1-0.4l1.1-0.4c0.4-0.2 1.1-0.5 1.1-0.5h0.9c0.2-0.2 0.9-0.4 0.9-0.4h4.5c0.2 0 0.9 0.2 0.9 0.2h0.9c0.4 0.2 1.1 0.5 1.1 0.5h1.1c0.4 0.2 1.1 0.4 1.1 0.4l1.1 0.4c0.9 0.4 0.9 0.4 2.3 1.1-1.8-1.1-4.1-0.9-6.3 0.4-0.9-0.4-3.9-1.6-7.8 0l-0.1 0.1z" fill="#C5BEED" p-id="18996"></path><path d="M283.5 913.3c-55.4-31.9-85.8-74.5-85.8-120 0-45.6 30.5-88.1 85.8-120 112.8-65.1 296.4-65.1 409.2 0 55.4 32 85.8 74.5 85.8 120s-30.5 88.1-85.8 120c-56.5 32.7-130.5 48.9-204.6 48.9S340 946 283.5 913.3z m3.2-234.4c-53.1 30.7-82.4 71.3-82.4 114.4 0 43.1 29.3 83.7 82.4 114.4 111 64.1 291.6 64.1 402.7 0 53.1-30.7 82.4-71.3 82.4-114.4 0-43.1-29.3-83.7-82.4-114.4-55.4-31.9-128.3-48-201.2-48-73.2 0-146.1 15.9-201.5 48z" fill="#0277FC" p-id="18997"></path><path d="M223.7 947.9c-71.3-41.1-110.5-96-110.5-154.6 0-58.6 39.2-113.5 110.5-154.6 145.8-84.2 383.1-84.2 528.9 0 71.3 41.1 110.5 96 110.5 154.6 0 58.6-39.2 113.5-110.5 154.6-72.9 42.2-168.6 63.2-264.4 63.2-95.8 0-191.6-21.2-264.5-63.2z m264.6-365.7c-94.6 0-189.2 20.7-261.2 62.3-69 40.1-107.1 92.8-107.1 149 0 56.1 37.9 109.1 107.1 149 144 83.1 378.3 83.1 522.3 0 69-40.1 107.1-92.9 107.1-149 0-56.1-38-109.1-107.1-149-72-41.5-166.6-62.3-261.2-62.3h0.1z" fill="#0277FC" p-id="18998"></path><path d="M337.9 882.1c-40.8-23.5-63.2-55.1-63.2-88.6 0-33.5 22.4-65.1 63.2-88.6 82.8-47.8 217.7-47.8 300.4 0 40.8 23.5 63.2 55.1 63.2 88.6 0 33.5-22.4 65.1-63.2 88.6-41.5 23.8-95.9 35.8-150.2 35.8-54.4 0-108.7-12-150.2-35.8z m150.4-206.7c-53.3 0-106.4 11.7-147 35.1-38.5 22.2-59.8 51.7-59.8 83 0 31.2 21.2 60.7 59.8 83 81 46.8 212.9 46.8 293.9 0 38.5-22.2 59.8-51.7 59.8-83 0-31.2-21.2-60.7-59.8-83-40.6-23.5-93.7-35.1-147-35.1h0.1z" fill="#0277FC" p-id="18999"></path><path d="M396.1 848.4c-25.1-14.5-39-34.1-39-54.9 0-20.8 13.8-40.4 39-54.9 50.8-29.3 133.3-29.3 183.9 0 25.1 14.5 39 34.1 39 54.9 0 20.8-13.8 40.4-39 54.9-25.4 14.7-58.6 21.9-92 21.9-33.3 0-66.4-7.3-91.9-21.9z m91.8-125.5c-32.1 0-64.2 7.1-88.6 21.2-23.1 13.2-35.8 30.9-35.8 49.2 0 18.4 12.7 36 35.8 49.2 48.9 28.2 128.5 28.2 177.4 0 23.1-13.2 35.8-30.9 35.8-49.2 0-18.4-12.7-36-35.8-49.2-24.4-14.1-56.5-21.2-88.6-21.2h-0.2z" fill="#0277FC" p-id="19000"></path><path d="M723.8 163.5c37.8 11.6 73.4 26.8 105.4 45.2 40.8 23.7 72.2 50.7 93.9 79.6l-0.4 123.7c-21.7-28.9-53.1-56-93.9-79.6-31.9-18.5-67.4-33.5-105.4-45.2l0.4-123.7zM803.5 421.9v123.9c-25.1-12.4-51.9-23-80.1-31.6l0.4-123.7c28.1 8.7 54.7 19.2 79.8 31.6v-0.2zM69.6 501.3c0.2-65.7 43.2-131.1 129.2-181.1 81.7-47.5 188-72.6 295.9-75.2l0.3-126.6c-107.7 2.6-213.9 27.7-295.9 75.2-86 50-129 115.4-129.2 181.1l-0.3 126.6zM283.9 498.1v90.6c-24.5 7.6-47.7 16.9-68.7 27.9-8.1 4.2-15.9 8.7-23.1 13.2v-90.6c7.4-4.6 15.2-9.2 23.5-13.4 21-11 44.1-20.1 68.5-27.7h-0.2z" fill="#1EB0FC" fill-opacity=".5" p-id="19001"></path><path d="M298.2 454.4c-39 11.5-75.6 26.3-108.4 44.8V372.8c32.8-18.4 69.4-33.4 108.4-44.8v126.4zM298.2 126.4c-39 11.5-75.6 26.3-108.4 44.8V44.8C222.6 26.5 259.2 11.5 298.2 0v126.4z" fill="#1EB0FC" fill-opacity=".5" p-id="19002"></path><path d="M421.9 426.5c29.1-4.4 58.8-6.9 88.6-7.6l-0.4 122.3c-29.7 0.7-59.3 3.2-88.3 7.4V426.3v0.2z" fill="#50A7F5" fill-opacity=".3" p-id="19003"></path><path d="M284 342.5h-0.4c-1.2-0.2-1.9-1.2-1.9-2.5 2.7-23.1 8.8-44.8 17.7-63 0.4-1.1 1.8-1.6 2.8-1.1 1.1 0.5 1.6 1.9 1.1 3-8.7 17.7-14.5 39-17.3 61.6-0.2 1.1-1.1 1.9-2.1 1.9h0.1z" fill="#040158" p-id="19004"></path><path d="M357.3 115.4l30.9 17.8c19.9-11.7 38.1-12.7 51.4-5.1l-30.9-17.8c-13.1-7.6-31.3-6.5-51.4 5.1z" fill="#1462FC" p-id="19005"></path><path d="M439.4 128.2l-30.9-17.8c-13.1-7.6-31.2-6.5-51.4 5.1l30.9 17.8c20-11.7 38.2-12.7 51.4-5.1z" fill="#0277FC" p-id="19006"></path><path d="M315.8 258.1c-0.2-45.9 32.1-101.9 72-125l-30.9-17.8c-39.9 23.1-72 79.1-72 125 0.2 22.8 8.1 38.8 21.2 46.4l30.9 17.8c-13.1-7.6-21.2-23.6-21.2-46.4z" fill="#1462FC" p-id="19007"></path><path d="M315.8 258.1c-0.2-45.9 32.1-101.9 72-125l-30.9-17.8c-39.9 23.1-72 79.1-72 125 0.2 22.8 8.1 38.8 21.2 46.4l30.9 17.8c-13.1-7.6-21.2-23.6-21.2-46.4z" fill="#0277FC" p-id="19008"></path><path d="M316 258.3c0.2 45.9 32.7 64.4 72.6 41.3 39.9-23 72-78.9 72-124.8-0.2-46.1-32.7-64.6-72.6-41.5-39.9 23.1-72 79.1-72 125z" fill="#031020" p-id="19009"></path><path d="M327.5 386.9c3.4-1.8 7.4-1.6 11.8 1.1 13.4-7.6 26.6-8.8 36.3-3-2.1-1.2-5.5-3.2-10.4-4.4-1.6-0.4-6-1.4-12.4-1.2-5.8 0.2-10.6 1.6-12 1.9-6.5 1.9-9.7 3.5-13.6 5.6h0.3z" fill="#8486D5" p-id="19010"></path><path d="M327.5 386.9c3.4-1.8 7.4-1.6 11.8 1.1 13.4-7.6 26.6-8.8 36.3-3-14.5-8.1-30.4-7.6-48.4 1.9h0.3z" fill="#8486D5" p-id="19011"></path><path d="M339.8 388c13.4-7.2 26.5-8.5 36-2.6-1.2-0.7-3-1.6-4.4-2.3l-2.5-1.1c-1.1-0.3-2.5-0.7-3.5-1.1l-2.7-0.5c-1.1-0.2-2.5-0.4-3.5-0.7h-2.8c-1.1 0-2.5 0-3.5 0.2h-2.8c-1.1 0-2.3 0.4-3.4 0.4l-2.6 0.5c-1.1 0.2-2.3 0.5-3.2 0.7l-2.6 0.9c-0.9 0.4-2.1 0.7-3 1.1l-2.7 1.1c-0.9 0.4-1.9 0.9-2.8 1.2-0.7 0.4-1.8 0.9-2.5 1.2 3.4-1.8 7.2-1.8 11.5 0.7h0.9l0.1 0.3zM216.1 668.8c3.7 5.3 4.8 8.8 3.7 10.2l7.9-9.5 8-9.5 7.9-9.5 7.9-9.5 7.9-9.5 8-9.5 7.9-9.5 7.9-9.5 7.9-9.5 8-9.5 7.9-9.5 7.9-9.5 7.9-9.5 8-9.5 7.9-9.5 7.9-9.5 7.9-9.5 7.9-9.5 8-9.5 7.9-9.5c1.2-1.2 0-4.8-3.7-10.1L216.8 668.1l-0.7 0.7z" fill="#8486D5" p-id="19012"></path><path d="M339.3 388l4.9 3c13.4-7.6 26.7-8.8 36.4-3l-4.9-3c-9.7-5.8-23-4.4-36.4 3z" fill="#8486D5" p-id="19013"></path><path d="M344.6 390.6l-4.9-3c0 0.2-0.3 0.2-0.3 0.2l4.9 3c-0.1-0.2 0.3-0.2 0.3-0.2z" fill="#8486D5" p-id="19014"></path><path d="M380.6 388l-4.9-3c-9.7-5.8-22.6-4.6-36 2.6l4.9 3c13.4-7.2 26.5-8.4 36-2.6z" fill="#8486D5" p-id="19015"></path><path d="M374.6 477.8c3.7 5.3 4.8 8.7 3.7 10.1 0.9-1.2 2.3-2.8 3.2-4.1l3-4.1c0.9-1.2 1.8-3 2.6-4.2l2.5-4.2c0.7-1.2 1.6-3.2 2.3-4.4l1.9-4.4c0.5-1.4 1.2-3.2 1.8-4.6l1.6-4.4c0.5-1.4 1.1-3.4 1.4-4.8l1.1-4.6c0.4-1.4 0.7-3.5 0.9-5.1l0.5-4.4v-9.9c-0.2-1.8-0.5-4.2-0.7-6l-0.9-4c-0.5-1.8-1.2-4.2-1.9-6.2l-1.6-3.7c-1.1-1.8-2.5-4.2-3.7-6l-2.5-3-1.8-1.9-2.1-1.9c-0.9-0.9-2.1-1.8-3-2.5-0.7-0.5-1.6-1.1-2.3-1.6-9.5-5.8-25.4-4.6-36.4 3 1.4 1.1 8.1 7.8 8.5 8.3 6.5 9.2 11 22.8 10.8 35.1 7.8-4.4 15.2-4.4 19.8 0.9 7.6 8.7 3.7 28.8-8.3 43.3l-0.4-0.7z" fill="#8486D5" p-id="19016"></path><path d="M307.3 417.8c9.7-13.6 20.8-23.7 32-29.8-4.4-2.8-8.7-3-12-1.1-11.5 6.5-20.5 14.8-29.3 27 0.5-0.7 3.7 0.6 9.3 3.9z" fill="#E5E2F2" p-id="19017"></path><path d="M339.5 387.8c-0.7-0.3-1.2-0.7-1.9-1.1-3.7-1.8-7.2-1.6-10.1 0-0.5 0.4-1.8 1.1-1.8 1.1l-1.6 1.1c-0.4 0.4-1.6 1.1-1.6 1.1l-1.6 1.1c-0.5 0.4-1.6 1.2-1.6 1.2l-1.6 1.2c-0.5 0.4-1.6 1.2-1.6 1.2l-1.6 1.2c-0.5 0.4-1.6 1.2-1.6 1.2l-1.4 1.4c-0.4 0.5-1.4 1.4-1.4 1.4l-1.4 1.4-1.4 1.4-1.4 1.4c-0.5 0.5-1.4 1.6-1.4 1.6l-1.4 1.6c-0.4 0.5-1.2 1.6-1.2 1.6l-1.2 1.6c-0.4 0.4-0.9 1.1-1.2 1.6-0.4 0.5-0.9 1.2-1.2 1.8 0.5-0.9 3.5 0.2 8.7 3.4 1.2-1.8 17.3-20.7 32.5-29.5z" fill="#C5BEED" p-id="19018"></path><path d="M312.3 420.5c1.2-1.8 2.7-3.5 3.9-5.1l-4.9-3c-1.2 1.8-2.7 3.5-3.9 5.3l4.9 3v-0.2z" fill="#E5E2F2" p-id="19019"></path><path d="M344.1 390.8l-4.9-3c-9.5 5.3-19.2 13.8-27.9 24.7l4.9 3c8.6-11.1 18.3-19.4 27.9-24.7z" fill="#E5E2F2" p-id="19020"></path><path d="M348.5 448.7c4.8-6.9 10.1-11.6 15.2-14.5 0.2-17.3-8.5-36.7-19.4-43.4-11.1 6.2-22.4 16.2-31.9 29.8 11 6.7 27.2 19.2 36 28.1h0.1z" fill="#C5BEED" p-id="19021"></path><path d="M363.5 434.4c0.2-17.3-8.5-36.7-19.4-43.4-9.5 5.1-19.2 13.6-27.9 24.5 4.9-4.4 8.5-5.7 9.7-6 7.4-1.9 6.9 5.5-1.2 19.4 8.7 6.3 17.7 13.9 23.7 19.8 4.8-6.9 10.1-11.6 15.2-14.5v0.2z" fill="#C5BEED" p-id="19022"></path><path d="M363.5 434.4c0.2-13.2-4.8-27.7-12-36.7-0.2 6.4-1.8 8.5-19.1 35.7-0.2 0.4-0.5 0.7-0.7 1.1 6.2 4.9 12.4 10.1 16.6 14.3 4.8-6.9 10.1-11.6 15.2-14.5v0.1z" fill="#C5BEED" p-id="19023"></path><path d="M363.5 434.1c-5.1 2.8-10.2 7.6-15.2 14.5-49.1 67.8-98 135.4-146.5 202.7-5.7 8.1-7.1 17.8-3.2 22.4 2.5 2.8 6.7 3 11.1 0.5 2.3-1.2 4.8-3.2 7.1-6 52.8-63.4 105.6-126.6 158.2-189.8 12-14.7 15.9-34.6 8.3-43.3-4.6-5.1-12-5.1-19.8-0.9v-0.1z" fill="#989BE0" p-id="19024"></path><path d="M151.3 617.1c0.5-0.7 3.5 0.5 9.2 3.9l146.9-203.2c-5.6-3.5-8.8-4.8-9.3-3.9-48.9 67.6-97.8 135.4-146.7 203v0.2z" fill="#D2CBF6" p-id="19025"></path><path d="M306.6 417.3L159.8 620.5c0.4 0 0.7 0.3 0.7 0.3l146.9-203.2c-0.4-0.1-0.8-0.3-0.8-0.3z" fill="#E5E2F2" p-id="19026"></path><path d="M307 417.3c-3-1.8-5.3-2.8-6.7-3.4L153.4 617.1c1.4 0.5 3.5 1.6 6.5 3.4l146.9-203.2h0.2z" fill="#D2CBF6" p-id="19027"></path><path d="M301.5 413.6c-1.2-0.4-2.1 0-2.1 0l-7.4 10.2-7.4 10.2-7.4 10.2-7.4 10.2-7.4 10.2-7.4 10.2-7.4 10.2-7.4 10.2-7.4 10.2-7.4 10.2-7.4 10.2-7.4 10.2-7.4 10.2-7.4 10.1-7.4 10.1-7.4 10.1-7.4 10.1L166 597l-7.4 10.1-7.2 10.1c0.2-0.5 0.9-0.3 1.9 0L300.2 414l1.3-0.4z" fill="#C5BEED" p-id="19028"></path><path d="M150.8 688.8c-11.8-13.6-7.4-43.4 9.9-68-5.5-3.4-8.7-4.6-9.2-3.9-9.4 13.2-14.3 29.1-13.6 43.3 0.5 9.5 3.2 15.7 4.8 18.7 2.1 3.9 3.9 6 4.9 7.2 3.2 3.4 4.2 4.2 7.9 6.7-1.7-1-3.3-2.4-4.7-4z" fill="#8486D5" p-id="19029"></path><path d="M150.8 688.8c-11.8-13.6-7.4-43.4 9.9-68-5.5-3.4-8.7-4.6-9.2-3.9-19.9 29.3-18.2 61.2 4.1 75.9-1.8-1-3.4-2.4-4.8-4z" fill="#8486D5" p-id="19030"></path><path d="M153.6 616.8c-1.1-0.2-1.8-0.4-1.9 0-0.5 0.9-1.4 2.1-1.9 3l-1.8 3c-0.5 0.9-1.2 2.1-1.8 3l-1.6 3c-0.5 0.9-1.1 2.3-1.4 3.2l-1.2 3.2c-0.4 1.1-0.7 2.3-1.1 3.4l-0.9 3.2c-0.4 1.1-0.7 2.5-0.9 3.5l-0.5 3.4c0 1.2-0.2 2.7-0.5 3.9v7.6l0.3 3.4c0.2 1.4 0.5 3.2 0.7 4.6l0.7 3.2c0.4 1.4 1.1 3.4 1.6 4.8l1.4 3c0.7 1.4 1.9 3.2 2.8 4.6l1.9 2.5 1.6 1.8 1.8 1.6c0.7 0.7 1.8 1.6 2.6 2.1 0.5 0.5 1.4 1.1 1.9 1.4-1.8-1.1-3.4-2.5-4.8-4.1-5.1-5.7-7.2-14.1-6.7-24-4.1-6.7-6.9-24.4 9.2-47.7l0.5-0.6z" fill="#8486D5" p-id="19031"></path><path d="M312.3 420.7l-4.9-3L160.5 621l5.1 3 146.7-203.3z" fill="#E5E2F2" p-id="19032"></path><path d="M155.7 691.8c-11.8-13.6-7.4-43.4 9.9-68l-4.9-3c-17.5 24.5-21.7 54.4-9.9 68 1.4 1.8 3 3 4.8 4.1l4.9 3c-1.8-1.1-3.4-2.5-4.8-4.1z" fill="#8486D5" p-id="19033"></path><path d="M155.7 691.8c-5.1-5.6-7.2-14.1-6.7-24l-4.9-3c-0.4 9.7 1.8 18.4 6.7 24 1.4 1.8 3 3 4.8 4.1l4.9 3c-1.8-1.1-3.4-2.5-4.8-4.1z" fill="#8486D5" p-id="19034"></path><path d="M156.9 638.8l-4.9-3c-4.8 9.9-7.4 19.9-7.8 28.9l4.9 3c0.6-8.9 3.3-19 7.8-28.9z" fill="#C5BEED" p-id="19035"></path><path d="M165.4 624l-4.9-3c-3.4 4.8-6.4 9.7-8.7 14.8l4.9 3c2.4-4.9 5.4-10 8.7-14.8zM348.1 448.9c-4.2-4.4-10.2-9.5-16.6-14.5l-146.7 203c6.3 4.8 12.5 9.9 16.9 13.9l146.5-202.6-0.1 0.2z" fill="#C5BEED" p-id="19036"></path><path d="M331.7 434.2c-2.3-1.8-4.8-3.5-7.1-5.3L177.8 632.1c2.5 1.8 4.9 3.5 7.2 5.3l146.7-203v-0.2zM320.9 426.5L174.1 629.7c1.2 0.9 2.3 1.6 3.5 2.5L324.5 429c-1.3-0.9-2.3-1.6-3.6-2.5z" fill="#D2CBF6" p-id="19037"></path><path d="M321.1 426.7c-1.8-1.4-3.5-2.7-5.3-3.7L169 626.1c1.6 1.1 3.4 2.3 5.3 3.5l146.9-203.2v0.3zM312.3 420.7L165.4 623.8c1.1 0.7 2.1 1.4 3.4 2.1l146.9-203.2c-1.3-0.6-2.3-1.3-3.4-2z" fill="#D2CBF6" p-id="19038"></path><path d="M220.7 678.5c1.1-1.4 0-4.9-3.7-10.2-2.3 2.8-4.8 4.8-7.1 6-4.4 2.5-8.7 2.5-11.1-0.5-3.9-4.6-2.5-14.3 3.2-22.4-9.2-8.7-25.4-20.8-36.4-27.5-17.5 24.5-21.7 54.4-9.9 68 1.4 1.8 3 3 4.8 4.1 18.5 10.6 42.2 3.7 60-17.5h0.2z" fill="#8486D5" p-id="19039"></path><path d="M577.1 807.9c33.9-14.1 54.5-35.5 61.8-44.1 23.7-28.1 30.5-49.2 36.5-72-4.6 21-21.2 41.1-49.6 57-66.2 36.9-171.2 35.8-234.6-2.3-25.4-15.2-40.2-34.1-44.7-53.1 5.5 20.3 18.4 68 75.4 103.3 35.5 21.8 94.8 36.3 155.2 11.2z" fill="#C5BEED" p-id="19040"></path><path d="M566.1 363.1c29.7 17.8 28.6 46.4-2.3 63.7-30.9 17.3-80.1 16.8-110-1.1-29.7-17.8-28.8-46.4 2.3-63.7 30.9-17.3 80.2-16.7 110 1.1z m-62.5 27.7c-3.7 2.1-3.9 5.5-0.4 7.6 3.5 1.9 9.4 2.1 13.1 0 3.7-2.1 3.9-5.5 0.4-7.6-3.5-1.9-9.4-2.1-13.1 0z" fill="#D6D6D6" p-id="19041"></path><path d="M346.5 692.9c4.4 19.4 19.2 38.3 44.7 53.7 63.4 38.1 168.4 39.2 234.6 2.3 28.2-15.7 44.8-36 49.6-57l32.3-164.5c-5.5 25.2-25.4 49.4-59.5 68.5-79.4 44.3-205.3 42.9-281.4-2.8-30.5-18.4-48.4-41-53.7-64.4L346.3 693h0.2z" fill="#C5BEED" p-id="19042"></path><path d="M396.1 354.8c-30.7 16.8-57.5 44.3-71.7 73.6-21.7 45.4-15.2 81-11.6 100.1 5.3 23.5 23.1 46.1 53.7 64.4 76.1 45.7 202.1 47 281.4 2.8 34.1-19.1 54-43.3 59.8-69.6 4.6-26.6 7.4-56.1-12.2-98.5-18-38.8-52.6-61.2-65.7-69.7-16.1-9.7-38.5-9-63.7 5.1 29.7 17.8 28.6 46.4-2.3 63.7-30.9 17.3-80.1 16.8-110-1.1-29.7-17.8-28.8-46.4 2.3-63.7 30.9-17.3 80.1-16.8 110 1.1 25.3-13.9 47.7-14.8 63.7-5.1-68.3-40.6-162.1-41.8-233.4-3.2h-0.3z" fill="#F5F4FB" p-id="19043"></path><path d="M381.1 499.2c53.7 33.2 135.9 42.9 199.8 23.5 44.1-13.4 67.3-29.3 90.2-50.7 29.3-27.2 39.9-62.1 43.4-73.6-6.7 25.4-27.2 49.8-61.6 68.8-83 46.2-215 45-294.6-3-30.5-18.4-49.1-41.1-55.4-64.6 5.1 17.3 18.7 63 78.2 99.7v-0.1z" fill="#E5E2F2" p-id="19044"></path><path d="M403 142.1c-23.5 12.9-44 31.1-55.1 43.8-21.5 24.5-31.1 42.2-41.1 66-8.3 19.9-13.4 43.9-14.8 71.3-1.4 25.6 3.4 46.4 7.6 65 6.5 23.8 25.2 46.8 56.3 65.5 80.8 48.7 214.6 50 299 3 35-19.4 55.8-44.1 62.8-70.4 5.1-23.1 9-41.5 6.4-75-2.5-30.4-11.6-53.1-17.8-68.3-5.5-13.4-19.2-36.7-34.1-53.3-21-23.5-36.2-33.4-52.2-43.8-28.1-17.1-67.4-15.7-111.9 9 44.3-24.7 83.7-26 111.9-9-67.8-40.3-146.9-41.5-216.8-3.5l-0.2-0.3z" fill="#EFECF8" p-id="19045"></path><path d="M495.7 305.6c-38.5-0.3-77.1-9.5-105.6-27.5-8.5-5.3-15.4-11-21-16.9-7.2-5.3-12.6-8.3-16.2-9-49.2-9.7-78.4 97.8-28.8 162.4 7.6 8.1 16.9 15.7 28.1 22.8 38.1 24 89.8 36.4 141.4 36.7 77-5.8 86-69.9 86.3-72.6 4.4-34.5-23.1-88.5-84.2-95.9z" fill="#041B99" p-id="19046"></path><path d="M303.1 399.8c6.3 23.5 24.9 46.1 55.4 64.4 79.6 48 211.6 49.3 294.6 3 34.2-19.1 54.9-43.4 61.6-68.7l3-11.5c-6.9 25.6-27.9 50.3-62.7 69.7-84.2 46.9-218.2 45.7-299-3-31.1-18.7-49.8-41.6-56.3-65.5l3.2 11.5h0.2z" fill="#E5E2F2" p-id="19047"></path><path d="M343.9 283.3c-1.1-1.1-2.1-2.5-4.1-3.2-16.9-5.8-38.5 40.8-26.7 69.5 6.2 15.2 17.7 10.4 26.3-10.9 5-12.1 12.4-41.8 4.5-55.4zM474.7 343c-28.9-0.5-45.7 45.4-25.4 70.1 19.1 23.3 51.2 9.5 53.8-23.1 1.4-17-6.7-43.7-28.4-47zM405.3 425.8c0.2-1.8 0.2-2.8 0.2-3.5-19.4-6-37.6-14.1-53.3-24h-0.5c-0.7 4.6 0.5 13.2 6.5 22.2 14.8 22.4 43.4 25.8 47 5.3h0.1z" fill="#1EB0FC" p-id="19048"></path><path d="M689.2 559.8c-13.6 7.9-24.7 27.7-23.7 43.4-15 9.5-36.2 11.8-47.3 5.5v-6.2 6.2l-4.9-3c-4.2-2.5-6.4-5.8-6.5-9.5-0.5-19.1 5.3-36 13.8-50.1 8.7-14.5 19.9-26.1 31.8-33 3.2-1.8 7.4-1.8 11.8 0.9l4.9 3c11.1 6.5 20.1 25.8 20.1 43.1v-0.3z" fill="#F5F4FB" p-id="19049"></path><path d="M636.4 885.3c-6.7-3.9-11.1-11.8-11.8-23.1-4.2-2.5-6.3-5.8-6.5-9.7 0.5 5.7 0.9 7.2 1.8 10.6 0.7 2.6 2.1 6.3 3 7.8 2.6 4.8 3.4 5.7 6.7 9.4 1.1 1.2 2.8 2.5 4.1 3.5 0.7 0.5 2.6 1.6 2.6 1.6h0.1z" fill="#C5BEED" p-id="19050"></path><path d="M624.4 862.1c-4.2-2.5-6.3-5.8-6.5-9.7 1.2 15.4 6.9 25.4 18.4 32.8-6.8-3.8-11.2-11.8-11.9-23.1z" fill="#C5BEED" p-id="19051"></path><path d="M629.3 865.1l-4.9-3c0.7 11.3 5.1 19.2 11.8 23.1l4.9 3c-6.7-3.8-11.1-11.8-11.8-23.1z" fill="#C5BEED" p-id="19052"></path><path d="M629.3 865.1l-4.9-3c0.7 11.3 5.1 19.2 11.8 23.1l4.9 3c-6.7-3.8-11.1-11.8-11.8-23.1z" fill="#C5BEED" p-id="19053"></path><path d="M717.2 828.6c-0.4 5.3-4.9 11.1-13.8 15.7-0.4 7.8-6.2 17.5-13.2 21.5-7.1 4.1-12.9 1.1-13.4-6.7-15 9.7-36.2 12.4-47.3 6 0.7 11.3 5.1 19.2 11.8 23.1 30.5 16.9 72.4-16.1 75.9-59.8v0.2z" fill="#989BE0" p-id="19054"></path><path d="M702.6 843.9c8.8-4.6 13.6-10.4 13.8-15.9l0.5-13.4 0.5-13.4 0.5-13.4 0.5-13.4 0.6-13.4 0.5-13.4 0.5-13.4 0.5-13.4 0.5-13.4 0.5-13.4 0.5-13.4 0.5-13.4 0.5-13.4 0.5-13.4 0.5-13.4 0.5-13.4 0.5-13.4 0.5-13.4 0.5-13.4 0.5-13.4c-0.2 5.3-4.9 11.1-13.8 15.5L703 844.3l-0.4-0.4z" fill="#989BE0" p-id="19055"></path><path d="M613.8 604.6c-4.2-2.5-6.5-5.8-6.5-9.7l0.5 12.9 0.5 12.9 0.5 12.9 0.5 12.9 0.5 12.9 0.5 12.9 0.5 12.9 0.5 12.9 0.5 12.9 0.5 12.9 0.5 12.9 0.5 12.9 0.5 12.9 0.5 12.9 0.5 12.9 0.5 12.9 0.5 12.9 0.5 12.9 0.5 12.7 0.5 12.7c0.2 3.9 2.3 7.4 6.5 9.9L613.3 606l0.5-1.4zM664.4 514c14.1-7.9 26.8-8.7 36-3.4l-4.6-2.3-3.5-1.2c-1.9-0.5-4.6-1.1-6.5-1.4l-3.7-0.4c-1.9-0.2-4.6 0-6.5 0l-3.9 0.5c-1.8 0.4-4.2 0.9-6 1.4l-4 1.4c-1.8 0.7-3.9 1.8-5.5 2.5-1.2 0.5-2.8 1.4-4 2.1 3.2-1.9 7.2-1.8 11.5 0.5h0.9v0.3z" fill="#E5E2F2" p-id="19056"></path><path d="M618.2 608.8l-4.9-2.8 11.1 256.1 5.1 3-11.3-256.3z" fill="#E5E2F2" p-id="19057"></path><path d="M669 516.9h0.4c14.1-7.9 26.8-8.7 36-3.4l-4.9-3c-9.2-5.3-22.8-4.6-36.9 3.4l5.5 3.2v-0.2zM665.5 603.3c3.7 85.4 7.4 170.7 11.1 255.6 0.5 7.9 6.3 10.8 13.4 6.7s12.9-13.8 13.2-21.5c3.2-89.5 6.5-178.8 9.7-268.8 0.9-16.2-10.1-23.3-23.8-15.4-13.5 8-24.7 27.7-23.6 43.4z" fill="#C5BEED" p-id="19058"></path><path d="M618.2 608.8L629.3 865c11.1 6.5 32.3 3.7 47.3-6l-11.1-255.6c-15 9.5-36.2 11.8-47.3 5.4z" fill="#E5E2F2" p-id="19059"></path><path d="M606.7 596.6c0.2 3.7 2.3 7.1 6.5 9.5-1.9-32.8 21.3-75 50.8-92-4.4-2.6-8.5-2.8-11.8-0.9-10.1 5.8-16.2 12.4-19.6 15.9-3.5 3.9-9.4 11.3-13.9 19.6-5.8 10.8-8.3 19.4-9.2 22.6-0.4 1.6-0.9 3.7-1.2 5.3-0.5 2.8-1.1 6.5-1.4 9.3-0.2 1.8-0.2 4.1-0.2 5.8V596.6z" fill="#F5F4FB" p-id="19060"></path><path d="M689.2 559.9c0-17.3-9-36.7-20.1-43.1-29.5 17.1-52.8 59.3-50.8 92 11.1 6.5 32.3 4.1 47.3-5.5-1.2-15.7 10-35.6 23.6-43.4z" fill="#F5F4FB" p-id="19061"></path><path d="M726.8 552.5v7.8c-0.4 5.3-5.1 10.9-13.8 15.4 0.9-16.2-10.1-23.3-23.8-15.4 0-17.3-9-36.7-20.1-43.1 14.3-8.1 27.2-8.8 36.4-3.5 1.1 0.5 2.3 1.2 3.2 1.9 1.6 1.2 3.7 2.8 5.1 4.4 1.6 1.6 3.5 3.9 4.8 5.8 1.2 1.8 2.5 4 3.4 6 1.4 3.4 3 6.9 4.2 14.1 0.3 1.8 0.7 4.4 0.7 6.4v0.2z" fill="#C5BEED" p-id="19062"></path><path d="M688.6 560.1c-13.6 8-24.7 27.7-23.7 43.4-15 9.5-36.2 11.8-47.3 5.5l-4.9-3c-4.2-2.5-6.3-5.8-6.5-9.5v-4.6c0-1.8 0.2-4.1 0.2-5.8l0.5-4.8c0.2-1.6 0.5-3.7 0.9-5.3l1.1-4.6c0.4-1.6 0.9-3.5 1.4-4.9l1.6-4.6c0.7-1.4 1.4-3.2 1.9-4.6l1.9-4.4c0.7-1.2 1.6-3 2.3-4.2l2.5-4.2c0.9-1.2 1.8-2.8 2.7-4l2.8-3.9c0.9-1.2 2.1-2.8 3-3.9l3.2-3.5 3.5-3.5 3.5-3.2c1.2-1.1 2.8-2.5 4.1-3.4l3.9-2.8c1.4-0.9 3.4-2.1 4.8-3 3.2-1.9 7.2-1.8 11.5 0.5-3.5 0.2-7.1 1.1-10.4 2.5-3.5 1.4-6.9 3.4-9.9 5.7-3.4 2.5-6.4 5.1-9.2 8.1-3 3-5.6 6.4-8.1 9.9s-4.8 7.2-6.7 11.1c-1.9 3.9-3.7 7.8-5.1 11.8-1.2 3.7-2.5 7.6-3.2 11.6-0.7 3.5-1.1 7.2-1.1 10.9 0 2.3 0.4 4.6 0.7 6.9 0.4 1.6 0.5 3.9 1.6 5.1 2.7 3 6.7 4.8 10.6 5.1 4.4 0.4 10.6-1.6 13.1-5.5 0.9-1.4 1.6-2.8 2.5-4.2 3.2-5.1 6.2-10.4 9.3-15.5 3.9-6.4 7.6-12.7 11.5-19.1 3.2-5.3 6.2-10.4 9.4-15.5 1.1-1.8 1.9-3.4 3-5.1 2.1-3.7 4.8-9.2 5.1-13.4v-0.7c7.4 9 12.7 23.3 12.7 36.5l-0.7 0.1z" fill="#E5E2F2" p-id="19063"></path><path d="M658.8 289.5l30.9 17.8c20-11.5 38.3-12.5 51.4-4.9l-30.9-17.8c-13.1-7.8-31.3-6.8-51.4 4.9z" fill="#1462FC" p-id="19064"></path><path d="M740.9 302.6L710 284.7c-13.1-7.8-31.2-6.7-51.4 4.9l30.9 17.8c20-11.4 38.3-12.4 51.4-4.8z" fill="#0277FC" p-id="19065"></path><path d="M617.3 432.3c-0.2-45.9 32.1-101.8 72-125l-30.9-17.8c-39.9 23.1-72 79.1-72 125 0.2 22.8 8.1 38.8 21.2 46.4l30.9 17.8c-13.1-7.6-21.2-23.6-21.2-46.4z" fill="#1462FC" p-id="19066"></path><path d="M617.3 432.3c-0.2-45.9 32.1-101.8 72-125l-30.9-17.8c-39.9 23.1-72 79.1-72 125 0.2 22.8 8.1 38.8 21.2 46.4l30.9 17.8c-13.1-7.6-21.2-23.6-21.2-46.4z" fill="#0277FC" p-id="19067"></path><path d="M617.5 432.5c0.2 45.9 32.7 64.4 72.5 41.3 39.9-23 72-78.9 72-124.8-0.2-46.1-32.7-64.6-72.6-41.5-39.8 23.1-71.9 79.1-71.9 125z" fill="#031020" p-id="19068"></path><path d="M690.2 328.5l10.2 6c15.9-9.2 30.4-10.1 40.8-4.1l-10.2-6c-10.4-6-24.9-5.1-40.8 4.1z" fill="#E5E2F2" p-id="19069"></path><path d="M741.4 330.3l-10.2-6c-10.4-6-24.9-5.1-40.8 4.1l10.2 6c15.9-9.2 30.4-10.1 40.8-4.1zM643.5 433.2c-0.2-36.4 25.4-80.7 57-98.8l-10.2-6c-31.6 18.2-57 62.5-57 98.8 0.2 18 6.5 30.7 16.8 36.7l10.2 6c-10.5-6-16.8-18.7-16.8-36.7z" fill="#E5E2F2" p-id="19070"></path><path d="M643.5 433.2c-0.2-36.4 25.4-80.7 57-98.8l-10.2-6c-31.6 18.2-57 62.5-57 98.8 0.2 18 6.5 30.7 16.8 36.7l10.2 6c-10.5-6-16.8-18.7-16.8-36.7z" fill="#E5E2F2" p-id="19071"></path><path d="M700.6 334.5c-31.6 18.2-57 62.5-57 98.8 0 36.2 25.8 50.8 57.4 32.7 31.6-18.2 57-62.5 57-98.8 0-36.4-25.8-51-57.4-32.8v0.1z" fill="#989BE0" p-id="19072"></path><path d="M690.2 328.5l10.2 6c15.9-9.2 30.4-10.1 40.8-4.1l-10.2-6c-10.4-6-24.9-5.1-40.8 4.1z" fill="#E5E2F2" p-id="19073"></path><path d="M741.4 330.3l-10.2-6c-10.4-6-24.9-5.1-40.8 4.1l10.2 6c15.9-9.2 30.4-10.1 40.8-4.1zM643.5 433.2c-0.2-36.4 25.4-80.7 57-98.8l-10.2-6c-31.6 18.2-57 62.5-57 98.8 0.2 18 6.5 30.7 16.8 36.7l10.2 6c-10.5-6-16.8-18.7-16.8-36.7z" fill="#E5E2F2" p-id="19074"></path><path d="M643.5 433.2c-0.2-36.4 25.4-80.7 57-98.8l-10.2-6c-31.6 18.2-57 62.5-57 98.8 0.2 18 6.5 30.7 16.8 36.7l10.2 6c-10.5-6-16.8-18.7-16.8-36.7z" fill="#E5E2F2" p-id="19075"></path><path d="M700.6 334.5c-31.6 18.2-57 62.5-57 98.8 0 36.2 25.8 50.8 57.4 32.7 31.6-18.2 57-62.5 57-98.8 0-36.4-25.8-51-57.4-32.8v0.1z" fill="#989BE0" p-id="19076"></path><path d="M700.6 353c-22.8 13.1-41.1 45-41.1 71.1 0 26.1 18.5 36.5 41.3 23.5 22.8-13.1 41.1-45 41.1-71.1 0-26.3-18.5-36.7-41.3-23.7v0.2z" fill="#1EB0FC" p-id="19077"></path><path d="M412.4 126.9c3.5-2.3 30.5-11.8 41.7-11.8 16.2 0 34.4 3.9 53.7 12.5 17.8 7.9 35.1 19.1 51.2 32.5 1.8 1.6 3.7 3.2 5.5 4.8 17.3 15.2 33 32.8 46.8 52.2 7.4 10.6 14.3 21.5 20.3 32.8 17.1 31.9 16.1 47.7 19.8 69.7l46.6-30.2c-2.3-32.5-2.5-37.8-19.8-69.7-6-11.3-12.9-22.2-20.3-32.8-13.8-19.2-29.5-37.1-46.8-52.2-1.8-1.6-3.5-3.2-5.5-4.8-16.2-13.4-33.5-24.5-51.2-32.5-19.2-8.7-37.4-12.5-53.7-12.5-15.9 0.2-30 4.2-41.7 11.8l-46.6 30.2z" fill="#0277FC" p-id="19078"></path><path d="M651.6 319.9l-7.9-3.5c-4.1-35.3-13.2-58.2-39.7-96.2-13.2-19.1-25.2-34.4-42-49.1-16.6-14.6-34.6-26.8-53.3-35.1-18.4-8.1-35.3-11.8-50.7-11.8-4.4 0-8.7 0.4-12.7 1.1 1.4-2.1 2.8-4.1 4.2-5.8 1.1-1.6 4.8-4.2 4.8-4.2 16.2 0 34.4 3.9 53.7 12.5 19.8 8.8 39 21.7 56.7 37.2 26.5 23.5 49.8 53.1 67.1 85.1 17.1 31.9 16.9 49.2 19.8 69.7v0.1z" fill="#031020" p-id="19079"></path><path d="M413.3 126.6c-39.4 20.8-60.2 44-62.3 56.5 22.9-23.1 75-56.3 94.3-58.1 1.6-1.9 7.6-8.6 9-9.9-3.2-0.2-20.8 0.7-41.1 11.5h0.1zM355.2 494.3c-0.4 0-0.7-0.2-1.1-0.2-35.1-18.4-61.8-54.4-71.3-96.2-3.4-15-3.9-36.7-1.2-58.1 0.2-1.2 1.2-1.9 2.5-1.9 1.2 0.2 1.9 1.2 1.9 2.5-2.5 20.8-2.1 42 1.2 56.5 9.2 40.8 35.1 75.6 69 93.4 0.9 0.5 1.4 1.9 0.9 3-0.4 0.9-1.9 1.2-1.9 1.2v-0.2z" fill="#031020" p-id="19080"></path><path d="M371.4 475c-15-8.5-31.6-7.4-37.4 2.5-5.8 9.9 1.6 24.9 16.6 33.6 15 8.5 31.6 7.4 37.4-2.5 5.8-9.9-1.6-24.9-16.6-33.6z" fill="#031020" p-id="19081"></path><path d="M877.3 668.7c54.9 44.7 82.1 97.4 82.1 150l0.4-123.7c0.2-52.6-27.2-105.2-82.1-150l-0.4 123.7z" fill="#1EB0FC" fill-opacity=".4" p-id="19082"></path><path d="M70.1 535.2c0-10.4 1.2-20.8 3.5-31.2v-66.9c-2.3 10.4-3.4 20.8-3.4 31.2-0.1 22.3-0.1 44.7-0.1 66.9z" fill="#50A7F5" fill-opacity=".5" p-id="19083"></path><path d="M197.4 943l0.4-123.7c-44.5-26.1-77.5-56.7-98.8-89v62c-13.1-19.9-21.9-40.6-26.3-61.6v62c11.1 54.9 52.8 108.2 124.6 150.6l0.1-0.3z" fill="#1EB0FC" fill-opacity=".5" p-id="19084"></path><path d="M99.2 730.3c-13.1-19.9-21.9-40.6-26.3-61.6v62c-2.1-10.2-3.2-20.7-3.2-31.1l0.4-126.6c-0.2 31.4 9.5 62.8 29.1 92.7v64.6z" fill="#1EB0FC" fill-opacity=".5" p-id="19085"></path><path d="M99.1 792.2v-62c-13.1-19.9-21.9-40.6-26.3-61.6v62c4.4 21 13.1 41.7 26.1 61.6h0.2z" fill="#50A7F5" fill-opacity=".75" p-id="19086"></path><path d="M113 646.2c-28.6-35-42.7-73.1-42.7-111v-31.6-35.3c-0.2 38 14.1 75.9 42.7 111v66.9zM905.6 594.2c28.6-35 42.7-73.1 42.7-111v-31.6-35.3c0.2 38-14.1 75.9-42.7 111v66.9z" fill="#1EB0FC" fill-opacity=".5" p-id="19087"></path><path d="M959.6 818.7c0 2.7-0.2 5.1-0.2 7.8l0.4-123.7c0.2-2.7 0.2-5.1 0.2-7.8l-0.4 123.7zM926.9 614.8c-21.5 30.2-53.3 58.6-95.7 83.1-166.6 96.9-434.9 100.4-610.1 10.8l-0.4 126.6c117.4 60.2 276.6 78.4 419.1 54.7v-41.7c70.1-11.6 136.1-33.5 191.2-65.5 17.3-10.1 32.8-20.7 46.6-32v41.7c19.9-16.1 36.2-33.4 48.9-51.2l0.4-126.5z" fill="#50A7F5" fill-opacity=".5" p-id="19088"></path><path d="M877.7 792.8h-0.2V875c-13.9 11.1-29.5 21.9-46.8 31.9-55.1 31.9-121.1 53.8-191 65.5V848.5c70.1-11.7 136.1-33.6 191.2-65.5 17.3-10.1 33-20.8 46.8-31.9v41.7z" fill="#50A7F5" fill-opacity=".75" p-id="19089"></path><path d="M70.1 535.2c0-10.4 1.2-20.8 3.5-31.2v-66.9c-2.3 10.4-3.4 20.8-3.4 31.2-0.1 22.3-0.1 44.7-0.1 66.9z" fill="#50A7F5" fill-opacity=".5" p-id="19090"></path><path d="M842.6 582.2h0.2v-82.3c-13.9 11.1-29.5 21.9-46.8 31.9-55.1 32.1-121.1 53.8-191.5 65.5v82.3c70.1-11.6 136.1-33.6 191.2-65.5 17.3-10.1 33-20.7 46.8-31.9h0.1z" fill="#1EB0FC" fill-opacity=".5" p-id="19091"></path><path d="M959.6 818.7c0 2.7-0.2 5.1-0.2 7.8l0.4-123.7c0.2-2.7 0.2-5.1 0.2-7.8l-0.4 123.7z" fill="#50A7F5" fill-opacity=".5" p-id="19092"></path><path d="M926.9 614.8c-21.5 30.2-53.3 58.6-95.7 83.1-166.6 96.9-434.9 100.4-610.1 10.8l-0.4 126.6c117.4 60.2 276.6 78.4 419.1 54.7v-41.7c70.1-11.6 136.1-33.5 191.2-65.5 17.3-10.1 32.8-20.7 46.6-32v41.7c19.9-16.1 36.2-33.4 48.9-51.2l0.4-126.5z" fill="#1EB0FC" fill-opacity=".5" p-id="19093"></path><path d="M450.2 1024v-68.1c-83-7.2-162.9-27.9-229.8-62V962c66.7 34.2 146.9 54.9 229.6 62h0.2z" fill="#50A7F5" fill-opacity=".5" p-id="19094"></path><path d="M450.2 1024v-68.1c-83-7.2-162.9-27.9-229.8-62V962c66.7 34.2 146.9 54.9 229.6 62h0.2z" fill="#1EB0FC" fill-opacity=".5" p-id="19095"></path></svg>