<svg class="icon" viewBox="0 0 1024 1024" xmlns="http://www.w3.org/2000/svg" width="200" height="200"><path d="M499.2 671.232v-261.12h102.4c16.384 0 28.672 1.024 37.888 2.56 13.312 2.048 24.576 6.656 34.816 13.312 9.728 6.656 17.92 16.384 23.552 28.16 6.144 12.288 8.704 25.6 8.192 38.4 0 23.552-7.68 44.032-23.04 59.904-15.36 16.896-40.96 25.088-78.848 25.088h-43.52v93.184l-61.44.512zm281.6 0h-61.952v-261.12H780.8v261.12zm-287.744 0h-69.12L396.8 601.6h-73.728l-25.088 69.632h-66.56l100.352-261.12h54.272l107.008 261.12zM343.552 545.28h32.256l-15.872-42.496c0-.512-.512-1.024-.512-1.536l-15.872 44.032zm217.6-26.112h43.52c20.48 0 28.16-4.608 31.232-7.168 4.608-4.096 7.168-10.752 7.168-18.944 0-6.656-1.536-11.776-4.096-15.36-2.56-3.584-6.144-6.144-10.752-7.68-1.536-.512-6.656-1.536-24.064-1.536h-43.008v50.688z"/><path d="M747.52 842.752H512c-8.704 0-16.384-3.584-22.016-9.728-6.144-6.144-9.216-14.336-8.704-22.528.512-16.896 14.336-30.72 31.232-31.232H747.52c115.712 0 209.408-94.208 209.408-209.408 0-104.96-78.848-194.56-183.296-207.872l-22.528-3.072-4.608-22.016C724.992 231.936 631.808 156.16 524.288 156.16c-124.928 0-226.304 101.376-226.304 226.304v8.704l1.536 36.352-36.352-4.096c-6.144-1.024-12.288-1.024-18.432-1.024-98.304 0-178.176 79.872-178.176 178.176 0 98.304 79.872 178.176 178.176 178.176h63.488c8.704 0 16.384 3.584 22.016 9.728 6.144 6.144 9.216 14.336 8.704 22.528-.512 16.896-14.336 30.72-31.232 31.232h-64c-64 0-123.904-25.088-169.472-70.144C28.16 726.528 3.072 665.6 3.072 601.088c0-129.536 103.936-236.544 232.448-241.152 12.288-157.184 149.504-276.48 307.2-266.24 59.904 3.584 118.784 27.136 165.888 65.536 45.568 37.376 77.824 87.04 94.208 143.872 125.952 26.112 217.088 137.728 217.088 266.752.512 151.04-121.856 272.896-272.384 272.896z"/><path d="M572.416 930.816c-8.192 0-15.872-3.072-21.504-8.704L431.616 812.544l113.152-117.76c6.144-6.144 13.824-9.216 22.528-9.216 8.704 0 16.384 3.072 22.528 9.216 11.776 11.776 12.288 31.232 1.024 44.032l-68.608 70.656 71.68 66.048c6.144 5.632 9.728 13.312 10.24 22.016.512 8.704-2.56 16.384-8.192 23.04-6.656 6.656-14.848 10.24-23.552 10.24z"/></svg>