<svg t="1650625061372" class="icon" viewBox="0 0 1068 1024" version="1.1" xmlns="http://www.w3.org/2000/svg" p-id="28067" width="200" height="200"><path d="M520.557634 4.710624c18.292924-6.168675 39.008456-4.755487 56.21345 4.06011 5.820986 3.039474 11.462519 6.415422 17.193779 9.634348 98.867032 56.269529 197.734064 112.527842 296.58988 168.797371 19.60517 10.206353 33.075312 30.327448 36.866243 51.91781 45.872508 167.3954 91.924469 334.734721 137.830624 502.13012 4.531172 16.038554 4.665761 33.299628 0.257963 49.383045-8.322103 32.121972-35.273604 58.288368-67.54138 65.926309-118.943264 32.660329-237.897744 65.28701-356.818576 98.003417 21.657656-21.085652 42.608719-42.911544 64.333669-63.907469 10.24-3.544184 20.917415-5.843417 31.325652-8.916539 80.080613-21.982913 160.150011-43.977043 240.230624-65.959957 9.73529-2.669354 20.065016-4.777919 28.050646-11.384008 15.186156-11.271851 22.240876-32.054677 17.182563-50.257875-46.029529-167.731873-92.115137-335.45253-138.167097-503.173188-1.312245-5.720044-2.355312-11.731698-6.056517-16.487185-2.725433-4.048894-6.751895-6.942563-11.069968-9.084775-102.702826-58.422957-205.38322-116.890778-308.07483-175.324951-7.077152-4.284425-15.982475-5.51816-23.867163-2.893669-7.054721 2.209507-13.066375 7.290252-16.599343 13.761752-6.953779 12.270055-13.986068 24.495246-20.894983 36.787733-12.348565-8.64736-26.816911-15.017919-42.036714-15.724513 0.448631-2.523549 1.985192-4.632114 3.20771-6.819189 7.211742-12.595312 14.333757-25.246703 21.556715-37.8308 8.894107-15.287097 23.474611-27.142169 40.287053-32.637897z" p-id="28068"></path><path d="M26.099102 152.870975c13.07759-11.54103 30.394743-18.180767 47.846484-18.203198 119.302169-0.022432 238.593122 0.022432 357.89529-0.022432 21.971698-0.79632 43.472333 9.94839 57.413538 26.693538 120.479825 120.636846 241.105455 241.127886 361.630142 361.708653 5.59667 5.619102 11.417656 11.081183 16.083418 17.530252 12.875706 17.249858 19.369639 39.098182 18.057393 60.576385-1.031851 18.629398-7.918335 36.866243-19.39207 51.570121-4.463877 5.854633-9.903527 10.845652-15.073998 16.072201-109.936999 109.914567-219.806703 219.873998-329.788565 329.743702-15.915181 15.231019-37.393384 24.226068-59.342651 25.459803h-8.748302c-18.248061-1.031851-36.215728-7.245389-50.885958-18.191982-7.133231-5.136824-13.021512-11.686835-19.257481-17.810647L31.527536 636.988565c-5.742475-5.877065-11.978445-11.372793-16.733932-18.124688C5.73126 606.324644 0.852399 590.858094 0.986988 575.391544c0.011216-119.257306 0-238.525827 0-357.783132 0.033647-6.034085-0.2131-12.101818 0.515925-18.102256 2.041271-17.877941 11.013888-34.824973 24.596189-46.635181m44.840657 26.87299c-13.672026 1.469266-25.033604 13.974852-25.056035 27.74782-0.07851 122.240701 0.011216 244.492618-0.044863 366.733319-0.773888 10.206353 4.755487 19.549091 12.314918 25.953297 121.71356 121.691128 243.404688 243.393472 365.107032 365.0846 11.126046 11.126046 28.016999 16.218007 43.416254 12.853275 9.555838-2.018839 18.472377-6.942563 25.190624-14.053363 111.563286-111.619365 223.193866-223.182651 334.768368-334.802015 13.447711-13.436495 17.541468-35.127798 9.746506-52.501029-2.83759-6.718248-7.436057-12.528018-12.70747-17.496605-122.274348-122.263133-244.548697-244.515049-366.789397-366.789398-5.540591-6.987426-13.470142-12.954217-22.745586-12.954216-117.395487 0.011216-234.790975 0-352.186463 0.011215-3.678773 0.022432-7.357547-0.157021-11.013888 0.2131zM615.85805 215.522278c36.406396-0.50471 72.308083 18.169551 93.124557 47.992289 13.604732 19.156539 20.85012 42.619934 20.894983 66.094546-37.942957-38.088762-76.03172-76.042935-114.01954-114.086835z" p-id="28069"></path><path d="M247.262913 281.190624c25.616824-3.723636 52.444951 1.637503 74.584885 15.051567 22.083855 13.189748 39.434655 34.095947 48.227821 58.265936 9.982037 26.917853 9.196933 57.649069-2.209507 84.006134-11.103614 26.200044-32.514524 47.779189-58.557547 59.219277-23.014765 10.262432-49.472771 12.393428-73.878291 6.213538-29.116145-7.256605-54.901205-26.682322-70.031282-52.57954-13.772968-23.194217-18.752771-51.4131-13.862694-77.927186 4.026462-22.667076 15.231019-43.977043 31.583614-60.183833 17.171347-17.227426 40.040307-28.701161 64.143001-32.065893m3.398379 44.907952c-27.714173 4.867645-50.818664 28.398335-55.136736 56.21345-2.882453 16.834874 0.807536 34.690383 10.217569 48.956846 8.93897 13.750537 22.925038 24.169989 38.716845 28.633866 17.070405 4.946156 36.047492 2.904885 51.637416-5.641533 13.997284-7.570646 25.235487-20.121095 31.134983-34.914699 6.920131-17.014326 6.550011-36.82138-0.986988-53.566528-6.561227-14.827251-18.562103-27.130953-33.18747-34.118379-13.055159-6.31448-28.151588-8.266024-42.395619-5.563023zM597.239869 466.206002c18.046177-2.815159 37.225148 3.084337 50.470974 15.67965 8.266024 8.198729 17.3508 16.105849 22.28574 26.917853 11.126046 22.173582 6.639737 50.930821-10.845652 68.573231-66.857218 66.946944-133.804162 133.815378-200.695027 200.728675-7.77253 7.615509-15.006703 16.173143-24.91023 21.119299-21.590361 11.742913-50.168149 8.400613-68.404995-8.097788-9.163286-8.86046-19.134107-17.563899-24.293362-29.519912-10.475531-22.22966-5.484513-50.470975 11.978444-67.75448 70.098576-70.132223 140.2308-140.2308 210.340592-210.351807 9.118423-9.230581 21.231457-15.421687 34.073516-17.294721m6.415421 44.403242c-3.63391 0.538357-6.841621 2.557196-9.342738 5.181687-69.739671 69.773319-139.524206 139.51299-209.275093 209.286309-6.594874 6.078949-6.213538 17.50782 0.58322 23.295159 4.912508 4.295641 8.703439 10.520394 15.287098 12.415859 5.820986 1.738445 12.281271-0.392552 16.285301-4.845213 69.706024-69.750887 139.445696-139.445696 209.151719-209.185367 5.652749-5.22655 6.505148-14.659014 1.80574-20.760394-3.039474-3.678773-6.662169-6.819189-9.94839-10.251216-3.63391-3.981599-9.196933-6.10138-14.546857-5.136824z" p-id="28070"></path></svg>