<svg t="1733620744216" class="icon" viewBox="0 0 1024 1024" version="1.1" xmlns="http://www.w3.org/2000/svg" p-id="13366" width="128" height="128"><path d="M512.956 741.549c24.671-8.545 73.221-25.811 120.072-46.486 12.131-5.394 24.087-12.036 47.412-25.31a109.078 109.078 0 0 0 37.94-29.11 83.344 83.344 0 0 0 12.227-23.053V219.281c-0.096-24.831-20.211-44.936-45.045-45.043-9.34 1.573-22.76 4.209-38.757 8.543 24.439 62.406 18.146 132.708-17.021 189.792-34.498 55.993-92.88 92.712-158.098 99.992-1.275 0.137-2.499 0.463-3.776 0.585v223.354c0.11 24.835 20.213 44.934 45.046 45.045zM378.672 741.549c24.833-0.108 44.939-20.21 45.046-45.047V472.779a213.556 213.556 0 0 1-158.787-101.461c-34.357-56.592-40.495-125.929-16.655-187.697a423.782 423.782 0 0 0-42.873-9.482c-24.833 0.098-44.938 20.214-45.047 45.047v398.308a82.748 82.748 0 0 0 12.242 23.039c10.5 12.524 23.704 22.495 38.591 29.219 23.801 13.273 35.756 20.011 47.424 25.311 46.84 20.673 95.405 37.942 120.059 46.486z" fill="#FFBA00" opacity=".4" p-id="13367"></path><path d="M744.827 708.729a57 57 0 0 0 32.919-11.275 53.974 53.974 0 0 0 17.343-27.226V271.907c-0.066-23.054-17.548-42.33-40.493-44.667 0.528 2.635 0.815 5.297 0.855 7.974v398.309a82.915 82.915 0 0 1-12.227 23.037 108.602 108.602 0 0 1-37.941 29.126c-22.944 12.799-34.805 19.428-46.568 24.752 12.528 0.003 49.706 0.761 86.112-1.709zM141.202 227.432c-22.861 2.335-40.317 21.49-40.495 44.475V670.23a53.882 53.882 0 0 0 17.362 27.4 56.9 56.9 0 0 0 32.902 11.291c36.421 2.471 73.585 1.984 86.112 1.711-11.764-5.324-23.61-11.958-46.565-24.751a108.597 108.597 0 0 1-37.928-29.128 82.787 82.787 0 0 1-12.242-23.036V235.404c0.041-2.676 0.327-5.338 0.854-7.972z" fill="#FFBA00" opacity=".4" p-id="13368"></path><path d="M629.782 372.569c35.172-57.083 41.463-127.383 17.023-189.792-0.007-0.026-0.016-0.066-0.029-0.096-51.497 13.939-127.844 45.508-165.674 117.207a189.132 189.132 0 0 0-13.288 31.87v141.388c1.307-0.123 2.569-0.447 3.872-0.585 65.218-7.28 123.598-44 158.096-99.992zM248.658 183.62c-23.842 61.769-17.701 131.105 16.639 187.697 34.357 56.608 93.013 94.084 158.8 101.461h0.099v-141.02a190.385 190.385 0 0 0-13.273-31.87c-36.989-70.079-110.861-101.855-162.265-116.268z" fill="#FEC744" opacity=".4" p-id="13369"></path><path d="M593.104 570.52v223.357c0.105 24.83 20.215 44.938 45.05 45.046 24.668-8.544 73.218-25.811 120.071-46.488 12.127-5.392 24.086-12.036 47.409-25.306a109.116 109.116 0 0 0 37.941-29.114 83.408 83.408 0 0 0 12.225-23.051v-398.31c-0.092-24.833-20.21-44.938-45.045-45.047-9.481 1.602-23.134 4.265-39.446 8.723 24.355 62.297 18.091 132.42-16.915 189.423a213.388 213.388 0 0 1-161.29 100.767zM330.601 271.513c-24.833 0.094-44.939 20.214-45.048 45.045v398.31a82.678 82.678 0 0 0 12.24 23.039c10.502 12.524 23.708 22.493 38.595 29.22 23.799 13.271 35.753 20.013 47.422 25.307 46.841 20.677 95.404 37.944 120.062 46.488 24.831-0.109 44.938-20.216 45.045-45.046v-223.72c-65.791-7.377-124.448-44.86-158.79-101.463-34.354-56.591-40.496-125.93-16.655-187.696a423.057 423.057 0 0 0-42.871-9.484z" fill="#FFBA00" p-id="13370"></path><path d="M868.422 753.937a108.626 108.626 0 0 1-37.943 29.126c-22.944 12.796-34.805 19.428-46.567 24.75 12.526 0 49.702 0.765 86.112-1.71a56.988 56.988 0 0 0 32.916-11.274 54.009 54.009 0 0 0 17.346-27.228v-398.32c-0.069-23.053-17.552-42.328-40.496-44.667 0.529 2.635 0.815 5.299 0.855 7.974v398.31a83.035 83.035 0 0 1-12.223 23.039zM266.399 324.804c-22.863 2.338-40.319 21.491-40.496 44.477v398.323a53.886 53.886 0 0 0 17.361 27.4 56.879 56.879 0 0 0 32.901 11.291c36.419 2.471 73.587 1.983 86.111 1.708-11.764-5.323-23.608-11.953-46.566-24.75a108.578 108.578 0 0 1-37.928-29.124 82.698 82.698 0 0 1-12.238-23.039V332.779c0.039-2.675 0.326-5.338 0.855-7.975z" fill="#FFBA00" p-id="13371"></path><path d="M771.97 280.058c-51.497 13.939-127.844 45.508-165.675 117.207a188.947 188.947 0 0 0-13.289 31.871v141.386c66.797-6.206 126.786-43.472 161.969-100.58 35.184-57.11 41.473-127.45 16.995-189.884z" fill="#FFBA00" p-id="13372"></path><path d="M771.97 280.058c-51.497 13.939-127.844 45.508-165.675 117.207a188.947 188.947 0 0 0-13.289 31.871v141.386c66.797-6.206 126.786-43.472 161.969-100.58 35.184-57.11 41.473-127.45 16.995-189.884z" fill="#FEC744" p-id="13373"></path><path d="M549.294 570.155h0.095V429.132a189.948 189.948 0 0 0-13.271-31.871c-36.992-70.081-110.863-101.856-162.266-116.268-23.839 61.769-17.701 131.105 16.642 187.696 34.352 56.608 93.012 94.089 158.8 101.466z" fill="#FFBA00" p-id="13374"></path><path d="M549.294 570.155h0.095V429.132a189.948 189.948 0 0 0-13.271-31.871c-36.992-70.081-110.863-101.856-162.266-116.268-23.839 61.769-17.701 131.105 16.642 187.696 34.352 56.608 93.012 94.089 158.8 101.466z" fill="#FEC744" p-id="13375"></path></svg>
