<svg t="1650328614187" class="icon" viewBox="0 0 1024 1024" version="1.1" xmlns="http://www.w3.org/2000/svg" p-id="5090" width="200" height="200"><path d="M962.184 55.874H61.818C27.732 55.874 0 83.606 0 117.692v621.64c0 34.086 27.732 61.818 61.818 61.818h308.52v44.98c0 41.234-33.547 74.782-74.781 74.782h-67.995c-13.036 0-23.606 10.568-23.606 23.606 0 13.038 10.57 23.606 23.606 23.606h568.874c13.036 0 23.606-10.568 23.606-23.606 0-13.038-10.57-23.606-23.606-23.606h-67.997c-41.234 0-74.782-33.548-74.782-74.782v-44.978h308.52c34.087 0 61.821-27.732 61.821-61.819v-621.64c0.004-34.087-27.728-61.819-61.814-61.819zM391.84 920.916c16.092-20.672 25.714-46.616 25.714-74.782v-44.98h188.894v44.98c0 28.166 9.622 54.112 25.714 74.782H391.841zM976.79 739.333c0 8.054-6.552 14.608-14.608 14.608H61.818c-8.054 0-14.608-6.552-14.608-14.608V615.267h929.58v124.066z m0-171.28H47.212v-450.36c0-8.055 6.552-14.609 14.608-14.609h900.362c8.054 0 14.61 6.552 14.61 14.608v450.361z" fill="" p-id="5091"></path><path d="M486.531 684.611a25.476 25.476 0 1 0 50.952 0 25.476 25.476 0 1 0-50.952 0zM552.477 218.508c-9.22-9.218-24.162-9.218-33.386 0L352.263 385.337c-9.218 9.218-9.218 24.166 0 33.386a23.534 23.534 0 0 0 16.694 6.914 23.526 23.526 0 0 0 16.692-6.914l166.828-166.829c9.218-9.218 9.218-24.166 0-33.386z m98.88 96.679c-9.216-9.218-24.158-9.218-33.384-0.002l-66.46 66.456c-9.218 9.22-9.218 24.168 0 33.386a23.53 23.53 0 0 0 16.692 6.914c6.04 0 12.082-2.304 16.692-6.914l66.46-66.456c9.218-9.218 9.218-24.166 0-33.384z" fill="" p-id="5092"></path></svg>