<svg t="1656952898982" class="icon" viewBox="0 0 1024 1024" version="1.1" xmlns="http://www.w3.org/2000/svg" p-id="1483" width="200" height="200"><path d="M896 170.666667a85.333333 85.333333 0 0 1 85.333333 85.333333v170.666667h-85.333333l-6.4 0.213333a85.333333 85.333333 0 0 0 0 170.24L896 597.333333h85.333333v170.666667a85.333333 85.333333 0 0 1-85.333333 85.333333H128a85.333333 85.333333 0 0 1-85.333333-85.333333v-170.666667h85.333333a85.333333 85.333333 0 0 0 6.4-170.453333L128 426.666667H42.666667V256a85.333333 85.333333 0 0 1 85.333333-85.333333h768z m0 42.666666H128a42.666667 42.666667 0 0 0-42.368 37.674667L85.333333 256v128h44.245334l7.936 0.341333a128 128 0 0 1-2.005334 255.445334L128 640H85.333333v128a42.666667 42.666667 0 0 0 37.674667 42.368L128 810.666667h192v-42.666667h42.666667v42.666667H896a42.666667 42.666667 0 0 0 42.368-37.674667L938.666667 768v-128h-44.245334l-7.936-0.341333A128 128 0 0 1 768 512a128.213333 128.213333 0 0 1 112.554667-126.976l7.509333-0.768L896 384h42.666667V256a42.666667 42.666667 0 0 0-37.674667-42.368L896 213.333333zM362.666667 682.666667v42.666666h-42.666667v-42.666666h42.666667z m160.938666-327.082667l2.474667 2.816 1.962667 3.328 47.914666 100.096 48-100.096a21.333333 21.333333 0 0 1 39.850667 14.805333l-1.365333 3.626667-52.608 109.696 55.04 0.042667a21.333333 21.333333 0 0 1 3.84 42.325333l-3.84 0.341333L597.333333 532.522667v43.050666l67.541334 0.042667a21.333333 21.333333 0 0 1 3.84 42.325333l-3.84 0.341334L597.333333 618.24V682.666667a21.333333 21.333333 0 0 1-42.325333 3.84L554.666667 682.666667v-64.426667l-67.541334 0.042667a21.333333 21.333333 0 0 1-3.84-42.325334l3.84-0.341333L554.666667 575.573333v-43.050666l-67.541334 0.042666a21.333333 21.333333 0 0 1-3.84-42.325333l3.84-0.341333 54.997334-0.042667-52.565334-109.696a21.333333 21.333333 0 0 1 34.048-24.576zM362.666667 597.333333v42.666667h-42.666667v-42.666667h42.666667z m0-85.333333v42.666667h-42.666667v-42.666667h42.666667z m0-85.333333v42.666666h-42.666667v-42.666666h42.666667z m0-85.333334v42.666667h-42.666667V341.333333h42.666667z m0-85.333333v42.666667h-42.666667V256h42.666667z" p-id="1484"></path></svg>
