<svg xmlns="http://www.w3.org/2000/svg" xmlns:xlink="http://www.w3.org/1999/xlink" width="30px" height="30px" viewBox="0 0 30 30" version="1.1">
    <title>ic/csdn</title>
    <g id="ic/csdn" stroke="none" stroke-width="1" fill="none" fill-rule="evenodd">
        <path d="M24.7385612,21.818791 C24.4728206,21.5662432 24.1090763,21.4267765 23.7575825,21.4343152 C23.3966653,21.4399693 23.0696724,21.5907441 22.8378562,21.8555424 C20.7581061,24.2349574 17.1347988,24.4922169 15.6732254,24.4922169 C12.9611634,24.4922169 10.886125,23.8043069 9.50559315,22.4501605 C8.19385225,21.1638629 7.50594216,19.2678696 7.46070972,16.8168365 C7.35516735,11.1345107 10.5732673,5.25806226 16.139685,5.25806226 C18.7980335,5.25806226 20.8627061,7.14368979 21.6260036,7.95410443 C21.8917442,8.23586486 22.2583155,8.39794779 22.6352525,8.39983247 C23.0131319,8.4092559 23.362741,8.24151892 23.599269,7.96164317 L23.8160078,7.70532598 C24.2607935,7.18232584 24.4605701,6.50572386 24.380471,5.80179394 C24.2984872,5.09126763 23.9422817,4.44293592 23.3778185,3.97459165 C22.0133064,2.84472288 19.6951436,1.5 16.3969445,1.5 C12.9715292,1.5 9.58757695,3.07465447 7.1129853,5.82441016 C4.51306208,8.71269021 3.1240491,12.6441435 3.20320588,16.895051 C3.26634283,20.3063311 4.38490349,23.1729373 6.44015269,25.1886081 C8.64806138,27.3550537 11.8821812,28.5 15.7947876,28.5 C20.3849384,28.5 23.2289283,27.1401996 24.8082945,26.0009074 C25.4198749,25.5608334 25.7845615,24.8644423 25.8128317,24.093606 C25.8392173,23.3190004 25.5225902,22.5604146 24.9430495,22.0119712 L24.7385612,21.818791 Z" id="Fill-1" fill="#FC5533"/>
    </g>
<script xmlns=""/></svg>
