<svg t="1655022848495" class="icon" viewBox="0 0 1024 1024" version="1.1" xmlns="http://www.w3.org/2000/svg" p-id="2190"
  width="200" height="200">
  <path d="M239.9 492.6m-42 0a42 42 0 1 0 84 0 42 42 0 1 0-84 0Z" p-id="2191"></path>
  <path d="M826 513.5H378.5c-11.6 0-21-9.4-21-21s9.4-21 21-21H826c11.6 0 21 9.4 21 21s-9.4 21-21 21z" p-id="2192">
  </path>
  <path d="M239.9 632.4m-42 0a42 42 0 1 0 84 0 42 42 0 1 0-84 0Z" p-id="2193"></path>
  <path d="M826 653.4H378.5c-11.6 0-21-9.4-21-21s9.4-21 21-21H826c11.6 0 21 9.4 21 21s-9.4 21-21 21z" p-id="2194">
  </path>
  <path
    d="M882.6 234.9H531.2l-29-46.3c-6.9-11.7-35-54.7-77.8-54.7h-304c-30.9 0-55.9 25-55.9 55.9v623.3c0 42.4 34.5 76.9 76.9 76.9h741.2c42.4 0 76.9-34.5 76.9-76.9V311.8c0-42.4-34.5-76.9-76.9-76.9z m34.9 578.2c0 19.3-15.7 35-35 35H141.4c-19.3 0-35-15.7-35-35V311.8c0-19.3 15.7-35 35-35h741.2c19.3 0 35 15.7 35 35v501.3z"
    p-id="2195"></path>
</svg>
