<svg t="1655030231175" class="icon" viewBox="0 0 1024 1024" version="1.1" xmlns="http://www.w3.org/2000/svg" p-id="3473"
  width="200" height="200">
  <path
    d="M449.6 116.2H303.8c-14.2 0-25.7-11.5-25.7-25.7s11.5-25.7 25.7-25.7h145.8c14.2 0 25.7 11.5 25.7 25.7s-11.5 25.7-25.7 25.7z m0 0"
    p-id="3474"></path>
  <path
    d="M160.1 859.3c-14.2 0-25.7-11.5-25.7-25.7V167.4c0-56.6 46-102.6 102.6-102.6h66.8c14.2 0 25.7 11.5 25.7 25.7s-11.5 25.7-25.7 25.7H237c-28.2 0-51.1 22.9-51.1 51.1v666.2c-0.1 14.3-11.6 25.8-25.8 25.8z m0 0M533.6 346.7c-6.3 0-12.4-1.3-17.6-3.5-13.5-5.8-21.9-17.9-21.9-31.6v-221c0-14.2 11.5-25.7 25.7-25.7s25.7 11.5 25.7 25.7v189l27.7-26.6c14.1-13.5 36.1-13.5 50.1 0l22.1 21.3V90.5c0-14.2 11.5-25.7 25.7-25.7s25.7 11.5 25.7 25.7v219.6c0 14.5-8.6 27.5-22 33.2-13.3 5.7-28.7 2.9-39.2-7.2l-37.5-36-37.5 36c-7.6 7.6-17.5 10.6-27 10.6z m0 0"
    p-id="3475"></path>
  <path
    d="M846.1 958.9H236.9c-56.6 0-102.6-46-102.6-102.6v-22.8c0-14.2 11.5-25.7 25.7-25.7s25.7 11.5 25.7 25.7v22.8c0 28.2 22.9 51.1 51.1 51.1H846c14.2 0 25.7 11.5 25.7 25.7 0.1 14.3-11.4 25.8-25.6 25.8z m0 0"
    p-id="3476"></path>
  <path
    d="M160.1 876h-0.9c-14.2-0.5-25.3-12.4-24.8-26.6 1-28.2 6.3-48.5 16.7-63.6 13.8-20.1 35.4-30.3 64.3-30.3h615c3.2-2.7 6.4-6.1 8.6-8.6V133.1c-1.8-5.1-11.7-15-16.8-16.8H449.6c-14.2 0-25.7-11.5-25.7-25.7s11.5-25.7 25.7-25.7h373.6c19.8 0 36.7 13.9 45 22.2 8.3 8.3 22.2 25.2 22.2 45v621.6c0 10.8-6.2 19.6-12.3 26.7-4.6 5.4-10.3 11-15.6 15.4-1 0.9-2.1 1.7-3.2 2.5-5.4 4.1-12.9 8.8-22.3 8.8H215.3c-15 0-28 0-29.5 44.2-0.5 13.8-11.9 24.7-25.7 24.7z m0 0"
    p-id="3477"></path>
  <path
    d="M284.4 806.4c-14.2 0-25.7-11.5-25.7-25.7V90.5c0-14.2 11.5-25.7 25.7-25.7s25.7 11.5 25.7 25.7v690.1c0 14.3-11.5 25.8-25.7 25.8z m0 0M844.9 959h-1.6c-6.6-0.3-30-2.3-52.2-16.9-19.5-12.7-42.6-38-42.6-86.3 0-62.3 35.7-101 93.1-101 14.2 0 25.7 11.5 25.7 25.7s-11.5 25.7-25.7 25.7c-12.5 0-41.7 0-41.7 49.6 0 21 6.6 35.3 20.1 43.8 10.6 6.6 22.1 7.8 25 8 1.4-0.1 2.9 0 4.4 0.2 13.7 1.7 23.6 14 22.5 27.7-0.9 9.5-8.8 23.5-27 23.5z m-1.8-51.3c-1.1 0.1-2.3 0.3-3.4 0.6 1.1-0.3 2.2-0.5 3.4-0.6z m0 0"
    p-id="3478"></path>
</svg>
