<svg t="1675604765384" class="icon" viewBox="0 0 1024 1024" version="1.1" xmlns="http://www.w3.org/2000/svg" p-id="21161" width="200" height="200"><path d="M832.1 185.1H609.4l-17.1-62c-9.6-34.6-40.5-58.8-75.3-58.8H196c-43.2 0-78.3 36.4-78.3 81.1V897c0 35.3 28.7 64 64 64H832c35.3 0 64-28.7 64-64V249c0.1-35.2-28.6-63.9-63.9-63.9z m-644.4-39.7c0-6.6 4.4-11.1 8.3-11.1h321c3.4 0 6.6 3.1 7.8 7.4l12 43.4H187.7v-39.7z m638.4 745.8H187.7V255.1h638.4v636.1z" p-id="21162"></path><path d="M346.1 415.1m-35 0a35 35 0 1 0 70 0 35 35 0 1 0-70 0Z" p-id="21163"></path><path d="M462.3 380.1h257.8v70H462.3z" p-id="21164"></path><path d="M346.1 582.3m-35 0a35 35 0 1 0 70 0 35 35 0 1 0-70 0Z" p-id="21165"></path><path d="M462.3 547.3h257.8v70H462.3z" p-id="21166"></path><path d="M346.1 749.5m-35 0a35 35 0 1 0 70 0 35 35 0 1 0-70 0Z" p-id="21167"></path><path d="M462.3 714.5h257.8v70H462.3z" p-id="21168"></path></svg>
