<svg t="1721541550402" class="icon" viewBox="0 0 1024 1024" version="1.1" xmlns="http://www.w3.org/2000/svg" p-id="1592" width="200" height="200"><path d="M979.096493 980.950486H44.904061C19.829898 980.950486 0.000277 960.442811 0.000277 935.839135v-740.047567c0-25.184865 20.410811-45.111351 44.903784-45.111352h934.192432c25.074162 0 44.903784 20.507676 44.903784 45.111352v740.047567c0 25.184865-20.410811 45.111351-44.903784 45.111351z" fill="#FFA000" p-id="1593"></path><path d="M512.000277 344.409946H0.000277V112.902919a45.097514 45.097514 0 0 1 44.903784-45.24973h350.470918c19.829622 0 37.320649 12.924541 43.146379 32.311352L512.000277 344.423784z" fill="#FFA000" p-id="1594"></path><path d="M909.699736 925.599135H114.300817c-25.184865 0-45.111351-20.134054-45.111351-44.281081v-603.32973c0-24.728216 20.493838-44.281081 45.111351-44.281081h795.398919c25.184865 0 45.111351 20.134054 45.111352 44.281081v603.32973c0.567351 24.147027-19.926486 44.281081-45.111352 44.281081z" fill="#FFFFFF" p-id="1595"></path><path d="M979.096493 980.950486H44.904061C19.829898 980.950486 0.000277 960.802595 0.000277 936.627892V361.056865c0-24.755892 20.410811-44.322595 44.903784-44.322595h934.192432c25.074162 0 44.903784 20.147892 44.903784 44.322595v575.571027c0 24.755892-20.410811 44.322595-44.903784 44.322594z" fill="#FFCA28" p-id="1596"></path><path d="M364.46125 485.708108H106.634655C93.917682 485.708108 83.027304 476.021622 83.027304 463.512216c0-11.96973 10.295351-22.223568 23.607351-22.223567h257.21773c12.716973 0 23.607351 9.686486 23.607351 22.223567 0 11.955892-10.295351 22.223568-22.998486 22.223568z m0 149.296433H106.634655c-12.716973 0-23.607351-9.686486-23.607351-22.223568 0-12.537081 10.295351-22.223568 23.607351-22.223568h257.21773c12.716973 0 23.607351 9.686486 23.607351 22.223568 0 12.537081-10.295351 22.223568-22.998486 22.223568z" fill="#FFF8E1" p-id="1597"></path></svg>
