<svg t="1650624175386" class="icon" viewBox="0 0 1024 1024" version="1.1" xmlns="http://www.w3.org/2000/svg" p-id="12087" width="200" height="200"><path d="M879.2064 234.7008l-89.8048 0L789.4016 197.632c0-6.2464-0.6144-12.3904-1.6384-18.3296-2.1504-11.776-6.3488-22.8352-12.1856-32.5632-11.6736-19.3536-29.696-33.4848-50.7904-38.4-5.2224-1.2288-10.6496-1.8432-16.2816-1.8432L144.7936 106.496c-5.5296 0-10.9568 0.6144-16.2816 1.8432-20.992 4.9152-39.1168 18.944-50.7904 38.4-5.8368 9.728-10.0352 20.6848-12.1856 32.5632-1.1264 5.9392-1.6384 11.9808-1.6384 18.3296l0 457.9328c0 6.2464 0.6144 12.3904 1.6384 18.3296 2.1504 11.776 6.3488 22.8352 12.1856 32.4608 11.6736 19.3536 29.696 33.4848 50.7904 38.4 5.2224 1.2288 10.6496 1.8432 16.2816 1.8432l47.2064 0L192 826.368c0 50.0736 36.352 91.0336 80.7936 91.0336l606.3104 0c44.4416 0 80.7936-40.96 80.7936-91.0336L959.8976 426.7008l0 0c0 0 0 0 0 0l0-100.9664C960 275.6608 923.648 234.7008 879.2064 234.7008zM192 325.7344l0 378.2656-47.2064 0c-20.6848 0-38.1952-22.1184-38.1952-48.3328L106.5984 197.632c0-26.2144 17.5104-48.3328 38.1952-48.3328l563.6096 0c20.6848 0 38.1952 22.1184 38.1952 48.3328l0 36.9664-85.2992 0L490.7008 234.5984 272.896 234.5984C228.352 234.7008 192 275.6608 192 325.7344zM661.2992 277.2992l0 378.9824-66.2528-33.0752-19.0464-9.5232-19.0464 9.5232-66.2528 33.0752L490.7008 426.7008l0 0c0 0 0 0 0 0L490.7008 277.2992 661.2992 277.2992zM448 277.2992l0 128L234.7008 405.2992l0-79.6672c0-26.2144 17.5104-48.3328 38.1952-48.3328L448 277.2992zM917.2992 826.368c0 26.2144-17.5104 48.3328-38.1952 48.3328L272.896 874.7008c-20.6848 0-38.1952-22.1184-38.1952-48.3328L234.7008 448l213.2992 0 0 213.2992c0 23.4496 19.2512 42.7008 42.7008 42.7008l85.2992-42.7008 85.2992 42.7008c23.4496 0 42.7008-19.1488 42.7008-42.7008L704 448l213.2992 0L917.2992 826.368zM917.2992 405.2992 704 405.2992l0-128 175.2064 0c20.6848 0 38.1952 22.1184 38.1952 48.3328L917.4016 405.2992z" p-id="12088"></path></svg>