<svg t="1650329871849" class="icon" viewBox="0 0 1024 1024" version="1.1" xmlns="http://www.w3.org/2000/svg" p-id="10813" width="200" height="200"><path d="M909.7 219.4l-6.1-3.2V87.5c0-4.6-1.8-8.7-4.2-12.2-0.3-0.4-0.5-0.8-0.8-1.2-1.1-1.3-2.2-2.5-3.6-3.5-0.7-0.6-1.5-1.1-2.3-1.5-1.2-0.7-2.4-1.4-3.8-1.9-1.8-0.7-3.8-1-5.8-1.2-0.5 0-0.9-0.3-1.4-0.3H139.9c-9.7 0-18.2 6.3-20.9 15.6-1.4 4.6-1.2 9.4 0.4 13.7-0.7 2.1-1.3 4.2-1.3 6.5v114.7l-6.4 3.2c-9 1.2-15.7 5.3-15.7 15.1v690.2l2 1.9c2.4 18.1 16.9 32 35.3 33.1l0.5 0.4h752.4c20.4 0 36.6-15.9 38-35.9l1-0.9V234.6c0.1-9.9-6.5-13.9-15.5-15.2z m-88.3-110.1l-58.6 37.5c-5.6 4.3-8.8 11.1-8.5 18.1 0.3 7.1 3.9 13.6 9.8 17.4l66.3 36.5H194.8l73-37.8c6.3-3.9 10.2-10.8 10.4-18.3 0.1-7.5-3.6-14.5-9.9-18.5l-64.7-34.9h617.8z m38.6 17.3v66.7l-57.9-30.5 57.9-36.2z m-698.2-1.3l63.4 36.7-63.4 32.1v-68.8z m719.9 791.3h-742V262.5h741.9v654.1zM340.1 423.2c15.9 86.5 78.5 143.9 163.2 143.9 84.6 0 147.2-57.2 163.2-143.6 13.3-7 22.5-20.8 22.5-36.8 0-23-18.7-41.8-41.8-41.8-23 0-41.8 18.7-41.8 41.8 0 13.6 6.6 25.6 16.7 33.2C610 476 572.2 523.5 503.2 523.5c-68.9 0-106.6-47.3-118.8-103.3 10.3-7.6 17.1-19.7 17.1-33.5 0-23-18.8-41.8-41.8-41.8-23 0-41.7 18.7-41.7 41.8 0.1 15.8 9.1 29.5 22.1 36.5z" p-id="10814"></path></svg>