<svg class="icon" viewBox="0 0 1024 1024" xmlns="http://www.w3.org/2000/svg" width="200" height="200"><path d="M958.401 451.55a20.01 20.01 0 0 0-6.966-14.972L524.345 69.511c-7.499-6.446-18.581-6.446-26.08 0L309.583 231.676V129.657c0-11.05-8.902-19.533-19.952-19.533h-88.034c-11.048 0-19.928 8.482-19.928 19.533v211.954L71.176 436.578a20.003 20.003 0 0 0-6.968 15.174v105.5a20.007 20.007 0 0 0 33.052 15.172l53.298-45.826V850.7c0 60.678 49.364 110.042 110.042 110.042h504.192c60.678 0 110.043-49.364 110.043-110.042V527.026l51.586 44.336a20.001 20.001 0 0 0 21.48 2.966 20.006 20.006 0 0 0 11.566-18.343l-1.066-104.436zM221.579 150.033h48.095v115.942l-48.095 41.336V150.034zm349.14 770.692H436.665V700.642c0-11.03 8.977-20.007 20.008-20.007h94.036c11.03 0 20.007 8.976 20.007 20.007v220.084zm264.1-424.83v354.803c0 38.612-31.415 70.027-70.028 70.027H610.733V700.642c0-33.096-26.927-60.023-60.023-60.023h-94.036c-33.097 0-60.023 26.927-60.023 60.023v220.085H260.599c-38.612 0-70.027-31.415-70.027-70.027V495.895a20.07 20.07 0 0 0-.315-3.432L512.37 215.504l322.703 277.349a20.158 20.158 0 0 0-.255 3.042zM525.41 173.947c-7.502-6.446-18.587-6.447-26.086.003l-395.1 339.714v-52.727l407.081-349.87 407.177 349.952.522 51.205L525.41 173.948z"/></svg>