<svg t="1699574162110" class="icon" viewBox="0 0 1024 1024" version="1.1" xmlns="http://www.w3.org/2000/svg" p-id="1543" width="200" height="200"><path d="M512 512m-512 0a512 512 0 1 0 1024 0 512 512 0 1 0-1024 0Z" fill="#FD8E66" p-id="1544"></path><path d="M377.745 354.306h63.05l-78.638 315.388h-63.05l78.638-315.388zM518.387 354.306h103.519c69.926 0 117.527 24.3 98.942 98.896-17.958 72.017-80.148 104.401-147.89 104.401H530.77L502.8 669.694h-63.05l78.637-315.388z m62.702 153.443c43.489 0 68.927-18.329 77.964-54.547 9.153-36.659-10.779-49.018-54.222-49.018h-35.823l-25.833 103.565h37.914z" fill="#FFFFFF" p-id="1545"></path></svg>
