<svg t="1615363536977" class="icon" viewBox="0 0 1024 1024" version="1.1" xmlns="http://www.w3.org/2000/svg" p-id="16426" width="256" height="256"><path d="M938.688 341.312v519.808c0 42.816-34.752 77.568-77.568 77.568H162.88c-42.816 0-77.568-34.752-77.568-77.568V341.312h853.376zM402.112 483.584H389.12a32.32 32.32 0 0 0-31.808 26.496l-0.512 5.76v215.424c0 15.808 11.392 29.056 26.496 31.744l5.76 0.576h12.992a32.32 32.32 0 0 0 31.808-26.56l0.512-5.76V515.84a32.32 32.32 0 0 0-32.32-32.32z m232.704 0H563.84a50.88 50.88 0 0 0-10.88 1.152 32.384 32.384 0 0 0-40.32 25.344L512 515.84v215.424a32.32 32.32 0 0 0 64.128 5.76l0.512-5.76v-74.368h58.24c46.336 0 83.968-38.784 83.968-86.656 0-47.872-37.632-86.656-84.032-86.656z m0 66.624l3.904 0.448a19.84 19.84 0 0 1 15.488 19.584 19.84 19.84 0 0 1-14.912 19.456l-4.48 0.512H576.64v-40h58.24z m226.304-464.896c42.816 0 77.568 34.752 77.568 77.568v121.6H85.312v-121.6c0-42.816 34.752-77.568 77.568-77.568h698.24z" p-id="16427"></path></svg>
