<svg class="icon" viewBox="0 0 1024 1024" xmlns="http://www.w3.org/2000/svg" width="200" height="200"><path d="M0 512a512 512 0 1 0 1024 0A512 512 0 1 0 0 512z" fill="#FD8E66"/><path d="M377.745 354.306h63.05l-78.638 315.388h-63.05l78.638-315.388zm140.642 0h103.519c69.926 0 117.527 24.3 98.942 98.896-17.958 72.017-80.148 104.401-147.89 104.401H530.77L502.8 669.694h-63.05l78.637-315.388zm62.702 153.443c43.489 0 68.927-18.329 77.964-54.547 9.153-36.659-10.779-49.018-54.222-49.018h-35.823l-25.833 103.565h37.914z" fill="#FFF"/></svg>