<svg t="1719843722868" class="icon" viewBox="0 0 1024 1024" version="1.1" xmlns="http://www.w3.org/2000/svg" p-id="226927" width="200" height="200"><path d="M276.854606 340.74413h468.523178v298.151114H276.854606z" fill="#0ee41c" p-id="226928"></path><path d="M511.116195 1.76761c-282.285215 0-511.116195 228.83098-511.116195 511.116195s228.83098 511.116195 511.116195 511.116195 511.116195-228.83098 511.116195-511.116195c0-282.263919-228.83098-511.116195-511.116195-511.116195z m276.854605 670.712227C787.9708 686.343864 759.284404 724.081276 745.420377 724.081276H575.005719v15.354782l42.593017 33.478111V787.9708H404.633654v-15.077927l42.593017-33.478111V724.081276h-170.414658C262.926689 724.081276 234.261589 686.343864 234.261589 672.479837V337.762619c0-13.864027 28.6651-39.611505 42.550424-39.611505h468.608364C759.284404 298.151114 787.9708 323.898592 787.9708 337.762619v334.717218z" fill="#0ee41c" p-id="226929"></path></svg>
