<svg t="1719764355721" class="icon" viewBox="0 0 1024 1024" version="1.1" xmlns="http://www.w3.org/2000/svg" p-id="34051" width="200" height="200"><path d="M512 0a512 512 0 1 1 0 1024A512 512 0 0 1 512 0z m199.094857 296.155429H327.68a49.737143 49.737143 0 0 0-49.737143 49.737142v280.356572a49.737143 49.737143 0 0 0 49.737143 49.810286h120.466286v68.754285H363.300571a17.115429 17.115429 0 0 0 0 34.230857h311.222858a17.115429 17.115429 0 0 0 0-34.230857H588.507429v-68.754285h122.587428a49.737143 49.737143 0 0 0 49.737143-49.810286V345.965714a49.737143 49.737143 0 0 0-49.737143-49.810285z m16.091429 35.328v310.637714H312.393143V331.483429h414.793143z m-35.181715 34.157714H346.697143v241.664h345.234286V365.641143z" fill="#00BC70" p-id="34052"></path></svg>
