<svg t="1675576810577" class="icon" viewBox="0 0 1024 1024" version="1.1" xmlns="http://www.w3.org/2000/svg" p-id="1553" width="200" height="200"><path d="M379.392 460.8l114.688 114.688-42.496 102.4L307.2 532.48l-168.96 168.96-71.68-72.704L234.496 460.8l-45.056-45.056c-27.136-27.136-51.2-66.56-66.56-108.544h112.64c7.68 14.336 16.896 27.136 26.112 35.84l45.568 46.08 45.056-45.056C382.976 312.32 409.6 247.808 409.6 204.8H0V102.4h256V0h102.4v102.4h256v102.4h-102.4c0 70.144-37.888 161.28-87.04 210.944L378.88 460.8z m196.608 409.6L512 1024H409.6l256-614.4h102.4l256 614.4h-102.4l-64-153.6h-281.6z m42.496-102.4h196.608L716.8 532.48 618.496 768z" p-id="1554" data-spm-anchor-id="a313x.7781069.0.i0" class="selected"></path></svg>
