<svg class="icon" viewBox="0 0 1024 1024" xmlns="http://www.w3.org/2000/svg" width="200" height="200"><path d="M611.2 368 316.8 662.4c-6.4 6.4-9.6 16-9.6 22.4s3.2 16 9.6 22.4 16 9.6 22.4 9.6 16-3.2 22.4-9.6L656 412.8c6.4-6.4 9.6-16 9.6-22.4s-3.2-16-9.6-22.4c-12.8-12.8-32-12.8-44.8 0z"/><path d="m608 755.2-99.2 99.2c-96 96-249.6 96-342.4 3.2-92.8-92.8-92.8-246.4 3.2-342.4l99.2-99.2c12.8-12.8 12.8-32 0-44.8s-32-12.8-44.8 0l-99.2 99.2C3.2 592 3.2 784 121.6 902.4 179.2 960 259.2 992 336 992c80 0 156.8-28.8 217.6-89.6l99.2-99.2c12.8-12.8 12.8-32 0-44.8s-32-16-44.8-3.2zm294.4-633.6C844.8 64 771.2 35.2 688 35.2h-3.2c-83.2 0-160 35.2-217.6 92.8l-96 96c-12.8 12.8-12.8 32 0 44.8s32 12.8 44.8 0l96-96c48-48 108.8-73.6 172.8-73.6h3.2c64 0 121.6 25.6 166.4 70.4 92.8 92.8 92.8 246.4-3.2 345.6l-96 96c-12.8 12.8-12.8 32 0 44.8 6.4 6.4 16 9.6 22.4 9.6s16-3.2 22.4-9.6l96-96c121.6-124.8 124.8-320 6.4-438.4z"/></svg>