<svg xmlns="http://www.w3.org/2000/svg" width="1em" height="1em" viewBox="0 0 1024 1024"><path fill="currentColor" d="M224 448a32 32 0 0 0-32 32v384a32 32 0 0 0 32 32h576a32 32 0 0 0 32-32V480a32 32 0 0 0-32-32zm0-64h576a96 96 0 0 1 96 96v384a96 96 0 0 1-96 96H224a96 96 0 0 1-96-96V480a96 96 0 0 1 96-96"/><path fill="currentColor" d="M512 544a32 32 0 0 1 32 32v192a32 32 0 1 1-64 0V576a32 32 0 0 1 32-32m192-160v-64a192 192 0 1 0-384 0v64zM512 64a256 256 0 0 1 256 256v128H256V320A256 256 0 0 1 512 64"/></svg>