<?xml version="1.0" standalone="no"?><!DOCTYPE svg PUBLIC "-//W3C//DTD SVG 1.1//EN" "http://www.w3.org/Graphics/SVG/1.1/DTD/svg11.dtd"><svg t="1612240746070" class="icon" viewBox="0 0 1024 1024" version="1.1" xmlns="http://www.w3.org/2000/svg" p-id="2134" xmlns:xlink="http://www.w3.org/1999/xlink" width="128" height="128"><defs><style type="text/css"></style></defs><path d="M344.832 474.112H98.048a61.632 61.632 0 0 1-61.44-61.44V165.888c0-33.792 27.648-61.44 61.44-61.44h247.296c33.792 0 61.44 27.648 61.44 61.44v247.296a61.632 61.632 0 0 1-61.952 60.928zM98.048 165.888v247.296h247.296V165.888H98.048z m609.792 359.424a60.8 60.8 0 0 1-43.52-17.92L489.728 332.8a60.8 60.8 0 0 1-17.92-43.52 60.8 60.8 0 0 1 17.92-43.52L664.32 71.168a60.8 60.8 0 0 1 43.52-17.92 60.8 60.8 0 0 1 43.52 17.92l174.592 174.592a60.8 60.8 0 0 1 17.92 43.52 60.8 60.8 0 0 1-17.92 43.52L751.36 507.392a60.8 60.8 0 0 1-43.52 17.92z m0-411.136L533.248 288.768 707.84 463.36l174.592-174.592-174.592-174.592zM344.832 960.512H98.048a61.632 61.632 0 0 1-61.44-61.44v-247.296c0-33.792 27.648-61.44 61.44-61.44h247.296c33.792 0 61.44 27.648 61.44 61.44v247.296a61.76 61.76 0 0 1-61.952 61.44z m-246.784-308.224v247.296h247.296v-247.296H98.048z m733.184 308.224H583.936a61.632 61.632 0 0 1-61.44-61.44v-247.296c0-33.792 27.648-61.44 61.44-61.44h247.296c33.792 0 61.44 27.648 61.44 61.44v247.296c0 34.304-27.136 61.44-61.44 61.44z m-246.784-308.224v247.296h247.296v-247.296H584.448z" fill="#666666" p-id="2135"></path></svg>