<svg class="icon" viewBox="0 0 1024 1024" xmlns="http://www.w3.org/2000/svg" width="200" height="200"><path d="M374.272 440.832H127.488c-33.792 0-61.44-27.648-61.44-61.44V132.608c0-33.792 27.648-61.44 61.44-61.44h247.296c33.792 0 61.44 27.648 61.44 61.44v247.296c-.512 33.792-27.648 60.928-61.952 60.928zM127.488 132.608v247.296h247.296V132.608H127.488zM762.88 492.032c-16.384 0-31.744-6.144-43.52-17.92L544.768 299.52c-11.776-11.776-17.92-27.136-17.92-43.52s6.144-31.744 17.92-43.52L719.36 37.888c11.776-11.776 27.136-17.92 43.52-17.92s31.744 6.144 43.52 17.92L980.992 212.48c11.776 11.776 17.92 27.136 17.92 43.52s-6.144 31.744-17.92 43.52L806.4 474.112c-11.776 11.776-27.136 17.92-43.52 17.92zm0-410.624L588.288 256 762.88 430.592 937.472 256 762.88 81.408zM374.272 952.832H127.488c-33.792 0-61.44-27.648-61.44-61.44V644.096c0-33.792 27.648-61.44 61.44-61.44h247.296c33.792 0 61.44 27.648 61.44 61.44v247.296c-.512 34.304-27.648 61.44-61.952 61.44zM127.488 644.608v247.296h247.296V644.608H127.488zm758.784 308.224H638.976c-33.792 0-61.44-27.648-61.44-61.44V644.096c0-33.792 27.648-61.44 61.44-61.44h247.296c33.792 0 61.44 27.648 61.44 61.44v247.296c0 34.304-27.136 61.44-61.44 61.44zM639.488 644.608v247.296h247.296V644.608H639.488z"/></svg>