<svg t="1719845783644" class="icon" viewBox="0 0 1024 1024" version="1.1" xmlns="http://www.w3.org/2000/svg" p-id="277659" width="200" height="200"><path d="M392.297931 841.021793a130.01269 128.635586 90 1 0 257.271172 0 130.01269 128.635586 90 1 0-257.271172 0Z" fill="#FFD08D" p-id="277660"></path><path d="M456.174345 52.965517m50.458483 0l-0.035311 0q50.458483 0 50.458483 50.458483l0 59.568552q0 50.458483-50.458483 50.458482l0.035311 0q-50.458483 0-50.458483-50.458482l0-59.568552q0-50.458483 50.458483-50.458483Z" fill="#FFD293" p-id="277661"></path><path d="M520.933517 1006.344828c-90.641655 0-163.945931-74.081103-163.945931-165.323035 0-91.206621 73.304276-165.323034 163.945931-165.323034 90.606345 0 163.945931 74.116414 163.945931 165.323034 0 91.241931-73.339586 165.323034-163.945931 165.323035z m0-70.62069c51.447172 0 93.325241-42.301793 93.325242-94.702345 0-52.365241-41.878069-94.702345-93.325242-94.702345-51.482483 0-93.325241 42.337103-93.325241 94.702345 0 52.400552 41.842759 94.702345 93.325241 94.702345z" fill="#FCA100" p-id="277662"></path><path d="M506.632828 88.275862a15.148138 15.148138 0 0 0-15.148138 15.148138v59.603862a15.148138 15.148138 0 0 0 30.296276 0V103.424a15.148138 15.148138 0 0 0-15.183449-15.148138z m85.768827 15.148138v59.603862a85.768828 85.768828 0 1 1-171.537655 0V103.424a85.768828 85.768828 0 1 1 171.537655 0z" fill="#FB9C00" p-id="277663"></path><path d="M177.893517 494.344828c0-183.472552 147.173517-332.270345 328.739311-332.270345 181.530483 0 346.394483 148.797793 346.394482 332.270345v260.025379l100.034207 129.977379H77.85931l100.034207-129.977379V494.344828z" fill="#FFA300" p-id="277664"></path></svg>
