<svg class="icon" viewBox="0 0 1024 1024" xmlns="http://www.w3.org/2000/svg" width="200" height="200"><path d="M0 512a512 512 0 1 0 1024 0A512 512 0 1 0 0 512z" fill="#50DCB6"/><path d="M790.148 502.822c0-30.856-25.013-55.87-55.869-55.87H483.666c-30.855 0-55.869 25.014-55.869 55.87v158.432c0 30.856 25.014 55.87 55.87 55.87h229.557a47.894 47.894 0 0 1 26.28 7.854l35.81 23.508c6.37 4.18 14.834-.388 14.834-8.007V502.822z" fill="#FFF" fill-opacity=".4"/><path d="M233.852 320.848c0-30.856 25.013-55.869 55.869-55.869h366.341c30.856 0 55.87 25.013 55.87 55.869v245.026c0 30.855-25.014 55.869-55.87 55.869h-325.28a47.894 47.894 0 0 0-26.295 7.865l-55.799 36.66c-6.369 4.185-14.836-.384-14.836-8.004V320.848z" fill="#FFF"/><path d="M323.242 446.952a34.32 34.32 0 1 0 68.64 0 34.32 34.32 0 1 0-68.64 0zm115.729 0a34.32 34.32 0 1 0 68.64 0 34.32 34.32 0 1 0-68.64 0zm115.729 0a34.32 34.32 0 1 0 68.639 0 34.32 34.32 0 1 0-68.64 0z" fill="#46D7B0"/></svg>