<svg t="1651250049265" class="icon" viewBox="0 0 1146 1024" version="1.1" xmlns="http://www.w3.org/2000/svg" p-id="12503" width="200" height="200"><path d="M1091.555481 293.125035l-0.029028-0.152398-0.123369-0.123369C999.485831 119.76239 802.044436 0 573.238256 0c-316.53614 0-573.223741 229.292399-573.223741 512.039914 0 90.22637 47.947047 182.143624 93.869388 255.736933l-21.771021 172.861911c0 8.352815 3.461592 16.458892 10.471861 22.808774 6.451479 5.682237 14.862351 8.686638 23.382077 9.100287v0.166911h2.148074l215.083179-21.132405c75.545445 32.816187 160.372602 72.345105 250.04744 72.345105 316.53614 0 573.223741-229.205315 573.223741-511.974601 0.021771-78.295851-19.731803-152.462464-54.913773-218.827794z m-773.306687 270.265461a51.423153 51.423153 0 1 1 0-102.853563 51.43041 51.43041 0 0 1 0 102.853563z m252.630935 0a51.437667 51.437667 0 0 1 0-102.853563 51.43041 51.43041 0 1 1 0 102.853563z m252.638191 0a51.43041 51.43041 0 1 1-0.014514-102.846306 51.43041 51.43041 0 0 1 0.014514 102.846306z" fill="" p-id="12504"></path></svg>