<svg t="1650814389177" class="icon" viewBox="0 0 1024 1024" version="1.1" xmlns="http://www.w3.org/2000/svg" p-id="33470" width="200" height="200"><path d="M512.824785 2.489704c-283.043425 0-512.477884 203.929576-512.477884 455.538057 0 147.789974 72.163553 279.138488 194.830337 362.373191 0.726547 0.485047-12.627598 201.108321-12.627598 201.108321l206.019167-120.274294c37.784558 7.897877 80.438007 12.332886 120.917954 12.332886 283.043425 0 514.166339-203.929576 514.166339-455.540104C1023.653099 206.420303 795.868209 2.489704 512.824785 2.489704zM263.463484 523.996219c-35.317367 0-63.956637-28.636201-63.956637-63.956637 0-35.322483 28.639271-63.956637 63.956637-63.956637 35.32453 0 63.956637 28.634154 63.956637 63.956637C327.420121 495.361041 298.788014 523.996219 263.463484 523.996219zM512 523.996219c-35.32453 0-63.956637-28.636201-63.956637-63.956637 0-35.322483 28.632107-63.956637 63.956637-63.956637 35.317367 0 63.956637 28.634154 63.956637 63.956637C575.956637 495.361041 547.316344 523.996219 512 523.996219zM760.52833 523.996219c-35.32453 0-63.956637-28.636201-63.956637-63.956637 0-35.322483 28.632107-63.956637 63.956637-63.956637s63.956637 28.634154 63.956637 63.956637C824.484967 495.361041 795.85286 523.996219 760.52833 523.996219z" p-id="33471"></path></svg>