<svg t="1699460574600" class="icon" viewBox="0 0 1024 1024" version="1.1" xmlns="http://www.w3.org/2000/svg" p-id="1651" width="200" height="200"><path d="M512 512m-512 0a512 512 0 1 0 1024 0 512 512 0 1 0-1024 0Z" fill="#50DCB6" p-id="1652"></path><path d="M790.14809 502.821512c0-30.855682-25.013375-55.869057-55.869056-55.869057H483.666407c-30.855682 0-55.869057 25.013375-55.869057 55.869057v158.432674c0 30.855682 25.013375 55.869057 55.869057 55.869056h229.557973a47.894148 47.894148 0 0 1 26.280007 7.854392l35.810469 23.508103c6.369072 4.180602 14.833235-0.387891 14.833234-8.006834V502.821512z" fill="#FFFFFF" fill-opacity=".4" p-id="1653"></path><path d="M233.85191 320.848012c0-30.855682 25.013375-55.869057 55.869056-55.869056h366.341388c30.855682 0 55.869057 25.013375 55.869057 55.869056v245.025721c0 30.855682-25.013375 55.869057-55.869057 55.869057H330.782329a47.894148 47.894148 0 0 0-26.295171 7.864767l-55.798821 36.660477c-6.369072 4.184592-14.836427-0.3839-14.836427-8.004439V320.848012z" fill="#FFFFFF" p-id="1654"></path><path d="M357.561964 446.952455m-34.319563 0a34.319564 34.319564 0 1 0 68.639127 0 34.319564 34.319564 0 1 0-68.639127 0Z" fill="#46D7B0" p-id="1655"></path><path d="M473.290725 446.952455m-34.319564 0a34.319564 34.319564 0 1 0 68.639127 0 34.319564 34.319564 0 1 0-68.639127 0Z" fill="#46D7B0" p-id="1656"></path><path d="M589.019486 446.952455m-34.319564 0a34.319564 34.319564 0 1 0 68.639127 0 34.319564 34.319564 0 1 0-68.639127 0Z" fill="#46D7B0" p-id="1657"></path></svg>
