<svg version="1.1" id="Layer_1" xmlns="http://www.w3.org/2000/svg" x="0" y="0" viewBox="0 0 256 256" style="enable-background:new 0 0 256 256" xml:space="preserve"><style>.st0{fill:#3a312a}.st2{fill:#87796f}.st7{fill:#d34e5c}.st10{fill:#d7e057}.st12{fill:#f16c7a}.st17{fill:#6a5c52}</style><path class="st2" d="m16.658 103.572 99.646 82.848c6.48 5.388 17.009 5.388 23.49 0l99.646-82.848H16.658z"/><path class="st0" d="M240.851 103.062a1.5 1.5 0 0 0-1.411-.99H16.658a1.5 1.5 0 0 0-.959 2.653l99.646 82.848c3.503 2.913 8.103 4.369 12.704 4.368 4.6 0 9.202-1.456 12.704-4.368l99.646-82.848a1.5 1.5 0 0 0 .452-1.663zm-102.016 82.204c-5.947 4.945-15.625 4.944-21.572 0l-96.455-80.194H235.29l-96.455 80.194z"/><path class="st2" d="M139.794 20.724c-6.481-5.388-17.009-5.388-23.49 0l-99.646 82.848H239.44l-99.646-82.848z"/><path class="st0" d="M240.399 102.418 140.753 19.57c-7.004-5.824-18.402-5.824-25.408 0l-99.646 82.848a1.5 1.5 0 0 0 .959 2.653H239.44a1.5 1.5 0 0 0 .959-2.653zm-219.591-.346 96.455-80.195c5.947-4.944 15.625-4.944 21.572 0l96.455 80.195H20.808z"/><path d="M196.844 58.341H59.255c-8.852 0-16.027 7.175-16.027 16.027v149.234c0 8.852 7.176 16.027 16.027 16.027h137.589c8.852 0 16.027-7.176 16.027-16.027V74.368c0-8.852-7.176-16.027-16.027-16.027z" style="fill:#fce8cb"/><path class="st0" d="M196.844 56.841h-33.465a1.5 1.5 0 1 0 0 3h33.465c8.01 0 14.527 6.517 14.527 14.527v149.234c0 8.01-6.517 14.527-14.527 14.527H59.254c-8.01 0-14.527-6.517-14.527-14.527V74.368c0-8.01 6.517-14.527 14.527-14.527h89.368a1.5 1.5 0 1 0 0-3H59.254c-9.665 0-17.527 7.863-17.527 17.527v149.234c0 9.665 7.863 17.527 17.527 17.527h137.589c9.664 0 17.527-7.863 17.527-17.527V74.368c.001-9.664-7.862-17.527-17.526-17.527z"/><path class="st0" d="M187.89 83.889H68.11a1.5 1.5 0 1 0 0 3h119.78a1.5 1.5 0 1 0 0-3zM187.89 108.961H68.11a1.5 1.5 0 1 0 0 3h119.78a1.5 1.5 0 1 0 0-3zM187.89 134.034H68.11a1.5 1.5 0 1 0 0 3h119.78a1.5 1.5 0 1 0 0-3z"/><path class="st12" d="M157.43 171.76h-.01l-17.63 14.66c-6.48 5.39-17.01 5.39-23.49 0l-17.63-14.66-82.01-68.19v122.58c0 4 1.76 7.58 4.54 10.03 2.35 2.06 5.43 3.32 8.81 3.32h196.08c3.38 0 6.46-1.26 8.81-3.32 2.78-2.45 4.54-6.03 4.54-10.03V103.57l-82.01 68.19z"/><path class="st0" d="M240.077 102.212a1.5 1.5 0 0 0-1.596.205l-81.908 68.105a1.556 1.556 0 0 0-.112.084l-17.63 14.66c-5.946 4.947-15.623 4.948-21.572 0l-99.64-82.85a1.5 1.5 0 0 0-2.459 1.153v55.324a1.5 1.5 0 1 0 3 0v-52.126l97.181 80.805c7.005 5.827 18.403 5.828 25.408 0l17.528-14.576c.039-.026.076-.054.112-.084l79.551-66.145V226.15c0 3.401-1.47 6.647-4.029 8.902A11.862 11.862 0 0 1 226.09 238H30.01a11.86 11.86 0 0 1-7.818-2.945 11.878 11.878 0 0 1-4.032-8.905v-53.044a1.5 1.5 0 1 0-3 0v53.044c0 4.262 1.84 8.328 5.051 11.158A14.857 14.857 0 0 0 30.009 241h196.08c3.603 0 7.083-1.311 9.802-3.694a14.882 14.882 0 0 0 5.048-11.156V103.57a1.496 1.496 0 0 0-.862-1.358z"/><path class="st10" d="M47.471 25.724c-.974 11.564-13.025 13.39-13.025 13.39 10.346.487 12.925 14.059 12.925 14.059.221-9.677 13.321-14.202 13.321-14.202-9.813-.587-13.221-13.247-13.221-13.247z"/><path class="st0" d="M60.782 37.473c-8.604-.514-11.831-12.024-11.863-12.14a1.51 1.51 0 0 0-1.584-1.102 1.5 1.5 0 0 0-1.359 1.367c-.86 10.215-11.314 11.963-11.754 12.032a1.5 1.5 0 0 0 .154 2.981c9.028.425 11.498 12.719 11.522 12.843a1.5 1.5 0 0 0 2.972-.247c.195-8.509 12.192-12.777 12.313-12.819a1.502 1.502 0 0 0 .994-1.623 1.499 1.499 0 0 0-1.395-1.292zM47.216 47.819c-1.356-3.13-3.709-6.907-7.587-8.876 2.931-1.405 6.409-3.913 8.202-8.273 1.551 3.071 4.199 6.88 8.334 8.722-3.007 1.64-6.922 4.406-8.949 8.427z"/><path class="st10" d="M25.772 42.705c-.689 8.179-9.212 9.471-9.212 9.471 7.318.344 9.142 9.944 9.142 9.944.156-6.845 9.422-10.045 9.422-10.045-6.941-.416-9.352-9.37-9.352-9.37z"/><path class="st0" d="M35.213 50.577c-5.766-.345-7.972-8.185-7.994-8.264a1.5 1.5 0 0 0-2.942.266c-.579 6.871-7.646 8.067-7.942 8.114a1.5 1.5 0 0 0 .155 2.982c6.035.284 7.724 8.644 7.739 8.726a1.5 1.5 0 0 0 2.974-.246c.13-5.709 8.331-8.634 8.412-8.662a1.502 1.502 0 0 0-.402-2.916zm-9.584 6.795c-.924-1.885-2.34-3.947-4.447-5.28 1.855-1.041 3.697-2.63 4.871-4.917 1.057 1.874 2.654 3.955 4.941 5.224-1.85 1.101-3.989 2.741-5.365 4.973z"/><path class="st10" d="M25.772 16.048c-.689 8.179-9.212 9.471-9.212 9.471 7.318.344 9.142 9.944 9.142 9.944.156-6.845 9.422-10.045 9.422-10.045-6.941-.416-9.352-9.37-9.352-9.37z"/><path class="st0" d="M35.214 23.919c-5.766-.345-7.973-8.185-7.994-8.265a1.5 1.5 0 0 0-2.942.266c-.579 6.871-7.646 8.067-7.942 8.114a1.5 1.5 0 0 0 .155 2.981c6.035.284 7.724 8.644 7.739 8.726a1.5 1.5 0 0 0 2.974-.246c.13-5.709 8.331-8.634 8.412-8.662a1.5 1.5 0 0 0-.402-2.914zm-9.585 6.795c-.924-1.885-2.34-3.947-4.447-5.28 1.855-1.041 3.697-2.63 4.871-4.916 1.057 1.873 2.654 3.954 4.941 5.224-1.85 1.101-3.989 2.74-5.365 4.972z"/><path class="st12" d="M157.43 171.76h-.01l-17.63-14.66c-6.48-5.38-17.01-5.38-23.49 0l-17.63 14.66-77.47 64.42c2.35 2.06 5.43 3.32 8.81 3.32h196.08c3.38 0 6.46-1.26 8.81-3.32l-77.47-64.42z"/><path class="st0" d="m235.859 235.027-77.47-64.42a1.507 1.507 0 0 0-.11-.083l-17.531-14.578c-7.004-5.815-18.401-5.815-25.407.001l-95.1 79.08a1.503 1.503 0 0 0-.03 2.282 14.857 14.857 0 0 0 9.798 3.692h196.08c3.603 0 7.083-1.311 9.799-3.692a1.5 1.5 0 0 0-.029-2.282zM226.09 238H30.01c-2.278 0-4.495-.657-6.396-1.876l93.644-77.87c5.948-4.939 15.626-4.939 21.573-.001l17.63 14.66c.035.029.072.057.109.083l75.916 63.128A11.847 11.847 0 0 1 226.09 238z"/><path class="st17" d="M222.44 105.07v10.68l12.85-10.68zM222.44 91.39v10.68h12.85z"/><path class="st7" d="M222.44 119.66v104.21l12.38 10.29c1.99-2.18 3.12-5.03 3.12-8.01V106.77l-15.5 12.89zM222.35 227.69c-.39 3.37-2.03 6.36-4.45 8.49-.81.71-1.71 1.32-2.67 1.82h10.86c2.28 0 4.49-.66 6.4-1.88l-10.14-8.43z"/></svg>
