<svg version="1.1" id="Layer_1" xmlns="http://www.w3.org/2000/svg" x="0" y="0" viewBox="0 0 256 256" style="enable-background:new 0 0 256 256" xml:space="preserve"><style>.st0{fill:#ef6d7a}.st1{fill:#3a312a}.st2{fill:#87796f}.st4{fill:#d5de58}.st6{fill:#d34e5c}</style><path class="st0" d="M235.7 89.1 165.6 19c-4-4-10.6-4-14.6 0l-19.7 19.7-10 10-76.6 76.6c-4 4-4 10.6 0 14.6l70.1 70.1c4 4 10.6 4 14.6 0l106.4-106.4c3.9-3.9 3.9-10.5-.1-14.5z"/><path class="st1" d="M236.8 88.1 166.7 18c-2.2-2.2-5.2-3.5-8.4-3.5s-6.1 1.2-8.4 3.5l-19.7 19.7c-.6.6-.6 1.5 0 2.1.6.6 1.5.6 2.1 0L152 20.1c1.7-1.7 3.9-2.6 6.2-2.6s4.6.9 6.2 2.6l70.1 70.1c1.7 1.7 2.6 3.9 2.6 6.2s-.9 4.6-2.6 6.2L128.3 209c-1.7 1.7-3.9 2.6-6.2 2.6-2.4 0-4.6-.9-6.2-2.6l-70.1-70.1c-1.7-1.7-2.6-3.9-2.6-6.2s.9-4.6 2.6-6.2l76.6-76.6c.6-.6.6-1.5 0-2.1-.6-.6-1.5-.6-2.1 0l-76.6 76.6c-2.2 2.2-3.5 5.2-3.5 8.4s1.2 6.1 3.5 8.4l70.1 70.1c2.2 2.2 5.2 3.5 8.4 3.5s6.1-1.2 8.4-3.5L237 104.9c2.2-2.2 3.5-5.2 3.5-8.4s-1.5-6.2-3.7-8.4z"/><path transform="rotate(-45.001 121.075 95.469)" class="st2" d="M35.5 84.2h171.1v22.5H35.5z"/><path class="st1" d="M190.6 41.9 174.7 26c-.6-.6-1.5-.6-2.1 0l-121 121c-.6.6-.6 1.5 0 2.1L67.5 165c.3.3.7.4 1.1.4s.8-.2 1.1-.4l121-121c.3-.3.4-.7.4-1.1s-.2-.8-.5-1zM68.5 161.8 54.8 148 173.6 29.1l13.8 13.8L68.5 161.8z"/><path d="M178.5 120.2H28c-5.7 0-10.3 4.6-10.3 10.3V229.6c0 5.7 4.6 10.3 10.3 10.3h150.5c5.7 0 10.3-4.6 10.3-10.3v-99.1c0-5.7-4.6-10.3-10.3-10.3z" style="fill:#fce8cb"/><path class="st1" d="M178.5 118.7H28c-6.5 0-11.8 5.3-11.8 11.8v51.2c0 .8.7 1.5 1.5 1.5s1.5-.7 1.5-1.5v-51.2c0-4.9 4-8.8 8.8-8.8h150.5c4.9 0 8.8 4 8.8 8.8v99.1c0 4.9-4 8.8-8.8 8.8H28c-4.9 0-8.8-4-8.8-8.8v-33.7c0-.8-.7-1.5-1.5-1.5s-1.5.7-1.5 1.5v33.7c0 6.5 5.3 11.8 11.8 11.8h150.5c6.5 0 11.8-5.3 11.8-11.8v-99.1c0-6.5-5.3-11.8-11.8-11.8z"/><path class="st4" d="M48.2 26.3c-1 11.6-13 13.4-13 13.4 10.3.5 12.9 14.1 12.9 14.1.2-9.7 13.3-14.2 13.3-14.2-9.8-.6-13.2-13.3-13.2-13.3z"/><path class="st1" d="M61.5 38.1c-8.6-.5-11.8-12-11.9-12.1-.2-.7-.9-1.2-1.6-1.1-.7.1-1.3.6-1.4 1.4-.9 10.2-11.3 12-11.8 12-.8.1-1.3.8-1.3 1.6s.7 1.4 1.4 1.4c9 .4 11.5 12.7 11.5 12.8.1.7.8 1.2 1.5 1.2h.1c.8-.1 1.4-.7 1.4-1.5.4-8.5 12.4-12.8 12.5-12.8.7-.2 1.1-.9 1-1.6s-.7-1.3-1.4-1.3zM47.9 48.4c-1.4-3.1-3.7-6.9-7.6-8.9 2.9-1.4 6.4-3.9 8.2-8.3 1.6 3.1 4.2 6.9 8.3 8.7-2.9 1.7-6.9 4.5-8.9 8.5z"/><path class="st4" d="M26.5 43.3c-.7 8.2-9.2 9.5-9.2 9.5 7.3.3 9.1 9.9 9.1 9.9.2-6.8 9.4-10 9.4-10-6.9-.4-9.3-9.4-9.3-9.4z"/><path class="st1" d="M35.9 51.2c-5.8-.3-8-8.2-8-8.3-.2-.7-.9-1.2-1.6-1.1-.7.1-1.3.6-1.4 1.4-.6 6.9-7.6 8.1-7.9 8.1-.8.1-1.3.8-1.3 1.6s.7 1.4 1.4 1.4c6 .3 7.7 8.6 7.7 8.7.1.7.8 1.2 1.5 1.2h.1c.8-.1 1.4-.7 1.4-1.5.1-5.7 8.3-8.6 8.4-8.7.7-.2 1.1-.9 1-1.6 0-.6-.6-1.2-1.3-1.2zM26.3 58c-.9-1.9-2.3-3.9-4.4-5.3 1.9-1 3.7-2.6 4.9-4.9 1.1 1.9 2.7 4 4.9 5.2-1.9 1.1-4 2.7-5.4 5z"/><path class="st4" d="M26.4 16.7c-.7 8.2-9.2 9.5-9.2 9.5 7.3.3 9.2 9.9 9.2 9.9.1-6.8 9.4-10.1 9.4-10.1-6.9-.4-9.4-9.3-9.4-9.3z"/><path class="st1" d="M35.9 24.5c-5.7-.3-8-8.1-8-8.2-.2-.7-.9-1.2-1.6-1.1-.7.1-1.3.6-1.4 1.4-.6 6.9-7.6 8.1-7.9 8.1-.8.1-1.3.8-1.3 1.6s.7 1.4 1.4 1.4c6 .3 7.8 8.6 7.8 8.7.1.7.8 1.2 1.5 1.2h.1c.8-.1 1.4-.7 1.4-1.5.1-5.7 8.3-8.7 8.4-8.7.7-.2 1.1-.9 1-1.6-.1-.7-.7-1.3-1.4-1.3zm-9.5 6.8c-.9-1.9-2.4-3.9-4.5-5.3 1.9-1 3.7-2.6 4.9-4.9 1.1 1.9 2.7 3.9 5 5.2-1.9 1.1-4.1 2.8-5.4 5zM84 166.6H37.7c-.8 0-1.5.7-1.5 1.5s.7 1.5 1.5 1.5H84c.8 0 1.5-.7 1.5-1.5s-.7-1.5-1.5-1.5zM169.7 218.5h-132c-.8 0-1.5.7-1.5 1.5s.7 1.5 1.5 1.5h132c.8 0 1.5-.7 1.5-1.5s-.7-1.5-1.5-1.5zM84 145.8H37.7c-.8 0-1.5.7-1.5 1.5s.7 1.5 1.5 1.5H84c.8 0 1.5-.7 1.5-1.5s-.7-1.5-1.5-1.5z"/><circle cx="194" cy="194.7" style="fill-rule:evenodd;clip-rule:evenodd;fill:#d5de58" r="44.7"/><path class="st1" d="M194 148.5c-25.5 0-46.2 20.7-46.2 46.2S168.5 241 194 241s46.2-20.7 46.2-46.2-20.7-46.3-46.2-46.3zm0 89.5c-23.8 0-43.2-19.4-43.2-43.2s19.4-43.2 43.2-43.2 43.2 19.4 43.2 43.2S217.8 238 194 238z"/><path class="st2" d="M194.1 163.3c-8.4 0-15.2 6.8-15.2 15.2v11.7c0 1.9 1.6 3.5 3.5 3.5s3.5-1.6 3.5-3.5v-11.7c0-4.6 3.7-8.3 8.3-8.3 4.6 0 8.3 3.7 8.3 8.3v11.7c0 1.9 1.6 3.5 3.5 3.5s3.5-1.6 3.5-3.5v-11.7c-.2-8.4-7-15.2-15.4-15.2z"/><path class="st1" d="M194.1 161.8c-9.2 0-16.7 7.5-16.7 16.7v11.7c0 2.7 2.2 5 5 5s5-2.2 5-5v-11.7c0-3.7 3-6.8 6.8-6.8s6.8 3 6.8 6.8v11.7c0 2.7 2.2 5 5 5s5-2.2 5-5v-11.7c-.2-9.2-7.7-16.7-16.9-16.7zm13.7 28.4c0 1.1-.9 2-2 2s-2-.9-2-2v-11.7c0-5.4-4.4-9.8-9.8-9.8s-9.8 4.4-9.8 9.8v11.7c0 1.1-.9 2-2 2s-2-.9-2-2v-11.7c0-7.6 6.2-13.7 13.7-13.7s13.7 6.2 13.7 13.7l.2 11.7z"/><path class="st0" d="M204.8 189.1h-21.5c-4.3 0-7.8 3.5-7.8 7.8v21.5c0 4.3 3.5 7.8 7.8 7.8h21.5c4.3 0 7.8-3.5 7.8-7.8v-21.5c0-4.3-3.5-7.8-7.8-7.8z"/><path class="st1" d="M204.8 187.6h-21.5c-5.1 0-9.3 4.2-9.3 9.3v21.5c0 5.1 4.2 9.3 9.3 9.3h21.5c5.1 0 9.3-4.2 9.3-9.3v-21.5c0-5.1-4.2-9.3-9.3-9.3zm6.3 30.7c0 3.5-2.8 6.3-6.3 6.3h-21.5c-3.5 0-6.3-2.8-6.3-6.3v-21.5c0-3.5 2.8-6.3 6.3-6.3h21.5c3.5 0 6.3 2.8 6.3 6.3v21.5z"/><path class="st2" d="M194.1 197.3c-3.1 0-5.6 2.5-5.6 5.6 0 2.2 1.3 4.2 3.2 5.1v7.4c0 1.3 1.1 2.4 2.4 2.4 1.3 0 2.4-1.1 2.4-2.4V208c1.9-.9 3.2-2.8 3.2-5.1 0-3-2.5-5.6-5.6-5.6z"/><path class="st1" d="M194.1 195.8c-3.9 0-7.1 3.2-7.1 7.1 0 2.4 1.2 4.6 3.2 6v6.5c0 2.2 1.8 3.9 3.9 3.9s3.9-1.8 3.9-3.9v-6.5c2-1.3 3.2-3.5 3.2-6 0-3.9-3.2-7.1-7.1-7.1zm1.8 10.9c-.5.2-.9.8-.9 1.4v7.4c0 .5-.4.9-.9.9s-.9-.4-.9-.9v-7.4c0-.6-.3-1.1-.9-1.4-1.5-.7-2.4-2.1-2.4-3.7 0-2.3 1.9-4.1 4.1-4.1s4.1 1.9 4.1 4.1c.1 1.6-.8 3-2.2 3.7z"/><path class="st6" d="M164.6 20.1c-1.7-1.7-3.9-2.6-6.2-2.6-2.4 0-4.6.9-6.2 2.6l-2.7 2.7L162.6 36l8.9-8.9-6.9-7zM234.7 90.2 189.5 45l-8.9 8.9L215.7 89c4 4 4 10.6 0 14.6l-25.5 25.5c.1.4.1.9.1 1.4V147l44.3-44.3c1.7-1.7 2.6-3.9 2.6-6.2 0-2.4-.9-4.7-2.5-6.3z"/><path transform="rotate(-45.033 176.04 40.505)" style="fill:#695b51" d="M169.7 30.8h12.6v19.5h-12.6z"/></svg>
