<svg t="1699460938272" class="icon" viewBox="0 0 1024 1024" version="1.1" xmlns="http://www.w3.org/2000/svg" p-id="15147" width="200" height="200"><path d="M512 512m-512 0a512 512 0 1 0 1024 0 512 512 0 1 0-1024 0Z" fill="#FF822B" p-id="15148"></path><path d="M324.408781 655.018925C505.290126 655.018925 651.918244 508.387706 651.918244 327.509463c0-152.138029-103.733293-280.047334-244.329811-316.853972C205.813923 52.463528 47.497011 213.017581 8.987325 415.981977 47.587706 553.880127 174.183098 655.018925 324.408781 655.018925z" fill="#FFFFFF" fill-opacity=".2" p-id="15149"></path><path d="M512 1024c282.766631 0 512-229.233369 512-512 0-31.765705-2.891385-62.853911-8.433853-93.018889C928.057169 336.0999 809.874701 285.26268 679.824375 285.26268c-269.711213 0-488.357305 218.645317-488.357305 488.357305 0 54.959576 9.084221 107.802937 25.822474 157.10377C300.626556 989.489417 402.283167 1024 512 1024z" fill="#FFFFFF" fill-opacity=".15" p-id="15150"></path><path d="M732.535958 756.566238c36.389596 0 65.889478-29.499882 65.889477-65.889478 0 36.389596 29.502983 65.889478 65.889478 65.889478-17.053747 0-65.889478 29.502983-65.889478 65.889477 0-36.386495-29.499882-65.889478-65.889477-65.889477zM159.685087 247.279334c25.686819 0 46.51022-20.8234 46.51022-46.51022 0 25.686819 20.8234 46.51022 46.510219 46.51022-12.03607 0-46.51022 20.8234-46.510219 46.510219 0-25.686819-20.8234-46.51022-46.51022-46.510219z" fill="#FFFFFF" fill-opacity=".5" p-id="15151"></path><path d="M206.195307 333.32324c8.562531 0 15.503407-6.940875 15.503406-15.503407 0 8.562531 6.940875 15.503407 15.503407 15.503407-4.012282 0-15.503407 6.940875-15.503407 15.503406 0-8.562531-6.940875-15.503407-15.503406-15.503406z" fill="#FFFFFF" fill-opacity=".3" p-id="15152"></path><path d="M802.301287 726.987288c0 8.109832-1.387555 15.685572-4.154913 22.727994-2.77511 7.042422-6.712975 13.231382-11.829099 18.566105-5.116124 5.335497-11.084936 9.493511-17.90566 12.485668-6.820724 2.984406-14.280963 4.480484-22.379942 4.480485H281.80542c-8.099755 0-15.773166-1.496079-23.019458-4.480485-7.247067-2.992157-13.641447-7.150171-19.18314-12.485668-5.541693-5.334722-9.911328-11.523682-13.10813-18.566105-3.197578-7.042422-4.795979-14.618162-4.795979-22.727994V407.517893c0-16.218889 5.648666-29.983588 16.945223-41.294874 11.296557-11.31051 25.044203-16.965378 41.242938-16.965378h464.226252c16.198734 0 29.94638 5.654868 41.242938 16.965378 11.294232 11.311285 16.945223 25.075985 16.945223 41.294874v87.069456H657.150643c-16.198734 0-29.94638 5.548669-41.242937 16.646008-11.296557 11.097338-16.945223 24.755064-16.945223 40.973953 0.426344 11.097338 2.771234 20.914095 7.033896 29.450271 3.409974 7.255594 9.05864 13.871673 16.944448 19.846685 7.886583 5.975788 19.290114 8.963294 34.209816 8.963295H802.301287v116.519727zM715.338804 319.80737h-290.301287c23.019458-11.950801 44.759885-23.474483 65.222056-34.571821a6020.558002 6020.558002 0 0 0 53.072812-28.16969c17.477765-9.389638 31.118438-16.646008 40.923567-21.767558 14.919703-8.109057 28.241005-11.843827 39.963906-11.203536 11.722901 0.640291 21.634229 2.667361 29.733983 6.081986 9.378011 4.694431 17.477765 10.883391 24.297714 18.566104l37.087249 71.064515zM628.376321 552.20731c0-8.109057 2.770459-14.938307 8.312927-20.486977 5.541693-5.548669 12.361641-8.323004 20.461395-8.323004 8.099755 0 14.919703 2.774335 20.461396 8.323004 5.542468 5.548669 8.312927 12.37792 8.312927 20.486977 0 8.109832-2.770459 15.045281-8.312927 20.807121-5.541693 5.761841-12.361641 8.643149-20.461396 8.64315-8.099755 0-14.919703-2.881308-20.461395-8.64315-5.542468-5.761841-8.312927-12.69729-8.312927-20.807121z" fill="#FFFFFF" p-id="15153"></path></svg>
