<svg t="1651249944904" class="icon" viewBox="0 0 1024 1024" version="1.1" xmlns="http://www.w3.org/2000/svg" p-id="8089" width="200" height="200"><path d="M688 316.8C726.4 278.4 768 220.8 768 160c0-35.2-9.6-64-32-86.4C694.4 32 620.8 32 537.6 32l-22.4 0c-12.8 0-25.6 0-38.4 0C396.8 32 332.8 32 291.2 70.4c-22.4 22.4-32 51.2-32 89.6 0 64 41.6 118.4 76.8 156.8-140.8 73.6-236.8 220.8-236.8 371.2 0 278.4 281.6 278.4 416 278.4s416 0 416-278.4C931.2 534.4 832 390.4 688 316.8zM611.2 579.2c19.2 0 32 12.8 32 32s-12.8 32-32 32l-64 0 0 32 64 0c19.2 0 32 12.8 32 32s-12.8 32-32 32l-64 0 0 67.2c0 19.2-12.8 32-32 32s-32-12.8-32-32l0-67.2-64 0c-19.2 0-32-12.8-32-32s12.8-32 32-32l64 0 0-32-64 0c-19.2 0-32-12.8-32-32s12.8-32 32-32l64 0 0-19.2-89.6-86.4c-12.8-12.8-12.8-32 0-44.8 12.8-12.8 32-12.8 44.8 0l80 76.8 80-76.8c12.8-12.8 32-12.8 44.8 0 12.8 12.8 12.8 32 0 44.8l-96 92.8 0 12.8L611.2 579.2z" p-id="8090"></path></svg>