<svg class="icon" viewBox="0 0 1024 1024" xmlns="http://www.w3.org/2000/svg" width="200" height="200"><path d="M0 512a512 512 0 1 0 1024 0A512 512 0 1 0 0 512z" fill="#FF822B"/><path d="M324.409 655.019c180.881 0 327.51-146.631 327.51-327.51 0-152.138-103.734-280.047-244.33-316.854C205.813 52.464 47.496 213.018 8.986 415.982c38.6 137.898 165.196 239.037 315.422 239.037z" fill="#FFF" fill-opacity=".2"/><path d="M512 1024c282.767 0 512-229.233 512-512 0-31.766-2.891-62.854-8.434-93.019-87.509-82.881-205.691-133.718-335.742-133.718-269.71 0-488.357 218.645-488.357 488.357 0 54.96 9.084 107.803 25.823 157.104C300.627 989.489 402.283 1024 512 1024z" fill="#FFF" fill-opacity=".15"/><path d="M732.536 756.566c36.39 0 65.89-29.5 65.89-65.89 0 36.39 29.502 65.89 65.889 65.89-17.054 0-65.89 29.503-65.89 65.89 0-36.387-29.5-65.89-65.889-65.89zM159.686 247.28c25.686 0 46.51-20.823 46.51-46.51 0 25.687 20.823 46.51 46.51 46.51-12.037 0-46.51 20.824-46.51 46.51 0-25.686-20.824-46.51-46.51-46.51z" fill="#FFF" fill-opacity=".5"/><path d="M206.195 333.323c8.563 0 15.504-6.94 15.504-15.503 0 8.562 6.94 15.503 15.503 15.503-4.012 0-15.503 6.941-15.503 15.504 0-8.563-6.941-15.504-15.504-15.504z" fill="#FFF" fill-opacity=".3"/><path d="M802.301 726.987c0 8.11-1.387 15.686-4.155 22.728-2.775 7.043-6.713 13.232-11.829 18.566-5.116 5.336-11.085 9.494-17.905 12.486-6.821 2.984-14.281 4.48-22.38 4.48H281.805c-8.1 0-15.773-1.496-23.019-4.48-7.247-2.992-13.641-7.15-19.183-12.486-5.542-5.334-9.912-11.523-13.108-18.566-3.198-7.042-4.796-14.618-4.796-22.728v-319.47c0-16.218 5.648-29.983 16.945-41.294 11.296-11.31 25.044-16.965 41.243-16.965h464.226c16.199 0 29.947 5.655 41.243 16.965 11.294 11.311 16.945 25.076 16.945 41.295v87.07h-145.15c-16.2 0-29.947 5.548-41.243 16.645-11.297 11.098-16.946 24.755-16.946 40.974.427 11.098 2.772 20.914 7.034 29.45 3.41 7.256 9.059 13.872 16.945 19.847 7.886 5.976 19.29 8.964 34.21 8.964H802.3v116.52zm-86.962-407.18H425.038c23.019-11.95 44.76-23.474 65.222-34.571a6020.558 6020.558 0 0 0 53.072-28.17c17.478-9.39 31.119-16.646 40.924-21.768 14.92-8.109 28.241-11.844 39.964-11.203 11.723.64 21.634 2.667 29.734 6.082 9.378 4.694 17.478 10.883 24.298 18.566l37.087 71.064zm-86.963 232.4c0-8.109 2.77-14.938 8.313-20.487 5.542-5.548 12.362-8.323 20.462-8.323s14.92 2.775 20.461 8.323c5.543 5.549 8.313 12.378 8.313 20.487 0 8.11-2.77 15.046-8.313 20.807-5.542 5.762-12.362 8.644-20.461 8.644-8.1 0-14.92-2.882-20.462-8.644-5.542-5.761-8.313-12.697-8.313-20.807z" fill="#FFF"/></svg>