<svg t="1615364033349" class="icon" viewBox="0 0 1024 1024" version="1.1" xmlns="http://www.w3.org/2000/svg" p-id="25128" width="256" height="256"><path d="M128 832c0 23.04 17.92 43.52 43.52 43.52h43.52v-148.48H128v104.96zM128 532.48h84.48v148.48H128zM128 340.48h84.48v148.48H128zM128 192v107.52h84.48V148.48H171.52c-25.6 0-43.52 20.48-43.52 43.52zM852.48 148.48H256v724.48h596.48c23.04 0 43.52-17.92 43.52-43.52v-640c0-20.48-17.92-40.96-43.52-40.96z m-168.96 317.44h-107.52v84.48h84.48c12.8 0 20.48 10.24 20.48 20.48 0 12.8-10.24 20.48-20.48 20.48h-84.48v107.52c0 12.8-10.24 20.48-20.48 20.48-12.8 0-20.48-10.24-20.48-20.48v-107.52h-84.48c-12.8 0-20.48-10.24-20.48-20.48 0-12.8 10.24-20.48 20.48-20.48h84.48v-84.48h-107.52c-12.8 0-20.48-10.24-20.48-20.48 0-12.8 10.24-20.48 20.48-20.48h89.6l-71.68-69.12c-7.68-7.68-10.24-20.48 0-30.72 7.68-7.68 20.48-10.24 30.72 0l79.36 74.24 74.24-74.24c7.68-7.68 20.48-7.68 30.72 0 7.68 7.68 7.68 20.48 0 28.16L588.8 424.96h99.84c12.8 0 20.48 10.24 20.48 20.48-5.12 12.8-15.36 20.48-25.6 20.48z" p-id="25129"></path></svg>
