<svg class="icon" viewBox="0 0 1024 1024" xmlns="http://www.w3.org/2000/svg" width="200" height="200"><path d="M0 512a512 512 0 1 0 1024 0A512 512 0 1 0 0 512z" fill="#F15BB5"/><path d="m772 432.8-7.9-63.3v-.2c-.1-1-.4-2.1-.7-3.1v-.3l-.2-.4-25.7-72.1c-.3-.7-.6-1.5-1-2.2-7-14.4-21.5-23.7-37.5-24h-24.1c-10 0-18.6 7.8-18.9 17.8-.4 10.5 8 19.1 18.4 19.1H699c1.9.3 3.4 1.4 4.2 3.1l13.5 37.9c.7 1.9.4 3.9-.7 5.6-1.1 1.6-3 2.6-5 2.6h-67.3c-3.5 0-6.2-2.8-6.2-6.2v-24.5c0-67.9-55.1-123-123-123s-123 55.1-123 123v24.5c0 3.5-2.8 6.2-6.2 6.2h-69.8c-3.4 0-6.2-2.8-6.2-6.2 0-.8.2-1.6.5-2.3l15.5-36.8c.7-2.1 2.5-3.5 4.7-3.9h24.1c10 0 18.6-7.8 18.9-17.8.4-10.5-8-19.1-18.4-19.1H330c-16.5.5-31.3 10.2-38.1 25.3l-30.6 72.1v.2c-.2.4-.3.8-.5 1.2v.4c-.3 1-.6 2.1-.7 3.1l-39 310.8c-6.4 50.5 29.5 96.7 80.1 103 3.8.5 7.7.7 11.5.7h94.5C514.8 718.5 680.7 597.9 772 432.8zM440.7 322.5c0-41 33.3-74.1 74.3-73.8 40.7.3 73.3 34.1 73.3 74.8V347c0 3.5-2.8 6.2-6.2 6.2H446.9c-3.5 0-6.2-2.8-6.2-6.2v-24.5zm152.7 257L514 662.4c-2.3 2.4-6.3 2.5-8.7.2l-.2-.2-79.4-82.9c-15.1-15.1-18.8-38.2-9.3-57.3 13.4-26.8 47.7-36.1 73.3-18.2 2.3 1.6 4.4 3.5 6.4 5.5l9.2 9.2c2.4 2.4 6.3 2.4 8.7 0l9.4-9.4c19.4-19.4 50.8-19.4 70.2 0 19.3 19.4 19.3 50.8-.2 70.2z" fill="#FFFDF3"/><path d="M803.7 691.6c0-3.8-.3-7.7-.7-11.4l-31-247.4c-91.3 165.1-257.2 285.7-364.8 351h304.1c51 0 92.4-41.2 92.4-92.2z" fill="#FFF" opacity=".9"/></svg>