<svg t="1650329913223" class="icon" viewBox="0 0 1024 1024" version="1.1" xmlns="http://www.w3.org/2000/svg" p-id="11785" width="200" height="200"><path d="M875.4 101.1H155c-37.9 0-73.4 30.8-73.4 68.7 0 37.9 35.5 68.7 73.4 68.7h5v689.7l25.5-25.5h2.8l74.5-74.5 81.2 81.2 1.4-1.4 2.5 2.5 81.1-81.1 81.1 81.1 2.5-2.5 2.5 2.5 81.1-81.1 81.1 81.1 2.5-2.5 1.4 1.4 81.2-81.2 74.5 74.5h2.8l25.5 25.5V238.5h10.3c37.9 0 68.7-30.8 68.7-68.7 0-37.9-30.9-68.7-68.8-68.7z m5.9 97.6h-16.2v-57.6h-39v63.6h-0.1v629l-62.2-62.2-1.4 1.4-1.4-1.4-81.2 81.2-81.1-81.2-2.5 2.5-2.5-2.5-81.1 81.1-81.1-81.1-2.5 2.5-2.5-2.5-81.1 81.2-81.2-81.2-1.4 1.4-1.4-1.4-62.2 62.2 0.2-692.6H160v57.6h-14.7c-15.9 0-28.8-12.9-28.8-28.9 0-15.9 12.9-28.8 28.8-28.8h736c15.9 0 28.9 12.9 28.9 28.8-0.1 16-13 28.9-28.9 28.9zM288.6 451.2h209.3c10.3 0 18.6-8.3 18.6-18.6s-8.3-18.6-18.6-18.6H288.6c-10.3 0-18.6 8.3-18.6 18.6s8.4 18.6 18.6 18.6z m0-117.5h326.8c10.3 0 18.6-8.3 18.6-18.6s-8.3-18.6-18.6-18.6H288.6c-10.3 0-18.6 8.3-18.6 18.6s8.4 18.6 18.6 18.6zM635 531.5H288.6c-10.3 0-18.6 8.3-18.6 18.6s8.3 18.6 18.6 18.6H635c10.3 0 18.6-8.3 18.6-18.6s-8.3-18.6-18.6-18.6zM595.9 649H288.6c-10.3 0-18.6 8.3-18.6 18.6s8.3 18.6 18.6 18.6h307.2c10.3 0 18.6-8.3 18.6-18.6 0.1-10.3-8.3-18.6-18.5-18.6z" p-id="11786"></path></svg>