<svg class="icon" viewBox="0 0 1024 1024" xmlns="http://www.w3.org/2000/svg" width="200" height="200"><path d="M520.235 504.577c51.305-33.512 85.254-91.477 85.254-157.301 0-103.485-84.273-187.757-187.758-187.757S229.974 243.79 229.974 347.275c0 65.715 33.95 123.68 85.255 157.301-47.266 15.72-90.603 42.245-126.845 78.486-61.24 61.24-94.97 142.675-94.97 229.239 0 13.318 10.698 24.016 24.015 24.016s24.015-10.699 24.015-24.016c0-152.28 123.899-276.177 276.178-276.177S693.801 660.02 693.801 812.302c0 13.318 10.697 24.016 24.014 24.016s24.016-10.699 24.016-24.016c0-86.564-33.73-168-94.97-229.237-36.024-36.134-79.36-62.768-126.627-78.488zm-242.23-157.192c0-77.067 62.658-139.726 139.726-139.726s139.727 62.658 139.727 139.726-62.66 139.726-139.727 139.726c-76.958 0-139.726-62.659-139.726-139.726z"/><path d="M871.406 599.002a323.731 323.731 0 0 0-150.643-119.86c27.072-40.28 41.481-87.765 41.045-136.778-.437-59.602-22.706-116.694-62.55-160.795-8.95-9.824-24.124-10.589-33.95-1.637-9.823 8.951-10.587 24.125-1.637 33.949 66.7 73.575 67.135 185.138.983 259.477-1.528 1.746-2.837 3.71-3.712 5.675-1.2 1.856-2.074 3.93-2.729 6.222-3.492 12.773 4.15 25.981 16.92 29.474C807.11 550.097 892.366 674.323 878.065 809.9c-1.419 13.208 8.188 24.998 21.396 26.417.873.109 1.746.109 2.51.109 12.117 0 22.597-9.17 23.907-21.504 7.968-75.868-11.353-152.608-54.471-215.921z"/></svg>