<svg t="1650623852152" class="icon" viewBox="0 0 1024 1024" version="1.1" xmlns="http://www.w3.org/2000/svg" p-id="7510" width="200" height="200"><path d="M520.23466666 504.57706667c51.3056-33.51253333 85.2544-91.47733333 85.2544-157.30133334 0-103.4848-84.27306667-187.7568-187.75786666-187.7568S229.9744 243.79093333 229.9744 347.27466667c0 65.7152 33.9488 123.68 85.2544 157.30133333-47.26613333 15.71946667-90.60266667 42.24533333-126.8448 78.4864-61.23946667 61.23946667-94.97066667 142.67413333-94.97066667 229.2384 0 13.3184 10.69866667 24.016 24.016 24.016s24.01493333-10.69866667 24.01493333-24.016c0-152.27946667 123.89866667-276.17706667 276.17813334-276.17706667S693.80053333 660.02133333 693.80053333 812.30186667c0 13.3184 10.6976 24.016 24.01493333 24.016s24.016-10.69866667 24.016-24.016c0-86.56426667-33.7312-167.99893333-94.97066666-229.23733334-36.02346667-36.13333333-79.36-62.768-126.6272-78.48746666zM278.00533333 347.38453333c0-77.06666667 62.65813333-139.72586667 139.72586667-139.72586666s139.72693333 62.65813333 139.72693333 139.72586666-62.6592 139.72693333-139.72693333 139.72693334c-76.95786667 0-139.72586667-62.6592-139.72586667-139.72693334z" p-id="7511"></path><path d="M871.40586666 599.0016a323.7312 323.7312 0 0 0-150.6432-119.8592c27.072-40.28053333 41.4816-87.76533333 41.04533334-136.77866667-0.43733333-59.60213333-22.70613333-116.69333333-62.54933334-160.79466666-8.95146667-9.824-24.1248-10.5888-33.94986666-1.63733334-9.824 8.95146667-10.58773333 24.1248-1.63733334 33.9488 66.69866667 73.57546667 67.13493333 185.13813333 0.9824 259.47733334-1.52746667 1.74613333-2.83733333 3.71093333-3.712 5.67466666-1.2 1.856-2.0736 3.93066667-2.72853333 6.22293334-3.49226667 12.77226667 4.14933333 25.9808 16.92053333 29.47306666 131.97546667 35.36853333 217.23093333 159.59466667 202.93013334 295.17226667-1.41866667 13.20853333 8.18773333 24.9984 21.39626666 26.41706667 0.87253333 0.1088 1.74613333 0.1088 2.50986667 0.1088 12.11733333 0 22.59733333-9.16906667 23.9072-21.504 7.968-75.86773333-11.3536-152.608-54.47146667-215.92106667z" p-id="7512"></path></svg>