<svg t="1653975130734" class="icon" viewBox="0 0 1024 1024" version="1.1" xmlns="http://www.w3.org/2000/svg" p-id="2343" width="200" height="200"><path d="M768 416.914c43.886-43.885 43.886-109.714 0-153.6C724.114 219.43 650.971 219.43 607.086 256s-43.886 109.714 0 153.6S724.114 460.8 768 416.914z m-109.714-51.2c-14.629-14.628-14.629-36.571 0-51.2 14.628-14.628 36.571-14.628 51.2 0 14.628 14.629 14.628 36.572 0 51.2s-36.572 14.629-51.2 0z m-512 563.2c-14.629 14.629-36.572 14.629-51.2 0s-14.629-36.571 0-51.2l387.657-387.657-14.629-21.943C409.6 365.714 424.23 241.371 504.686 153.6c102.4-102.4 263.314-102.4 358.4 0s102.4 263.314 0 358.4c-80.457 87.771-204.8 102.4-307.2 43.886l-21.943-14.629-160.914 160.914 80.457 80.458c14.628 14.628 36.571 14.628 51.2 0 14.628-14.629 14.628-36.572 0-51.2l-21.943-29.258 65.828-65.828c124.343 58.514 277.943 36.571 373.029-65.829 131.657-131.657 131.657-336.457 0-468.114s-336.457-124.343-468.114 0C358.4 204.8 329.143 351.086 387.657 475.429L36.571 826.514c-43.885 43.886-43.885 109.715 0 153.6 43.886 43.886 109.715 43.886 153.6 0l80.458-80.457-51.2-43.886-73.143 73.143z m307.2-51.2L321.829 746.057l-51.2 58.514L402.286 936.23c14.628 14.628 36.571 14.628 51.2 0 14.628-21.943 14.628-43.886 0-58.515z" p-id="2344"></path></svg>
