<svg t="1699460669940" class="icon" viewBox="0 0 1024 1024" version="1.1" xmlns="http://www.w3.org/2000/svg" p-id="6619" width="200" height="200"><path d="M512 512m-512 0a512 512 0 1 0 1024 0 512 512 0 1 0-1024 0Z" fill="#69ADF4" p-id="6620"></path><path d="M526.765394 288.528561m35.292598-10.116657l42.197672-12.096002q35.292598-10.116657 45.409255 25.175942l117.221262 408.933803q10.116657 35.292598-25.175942 45.409255l-42.197672 12.096003q-35.292598 10.116657-45.409255-25.175942l-117.221262-408.933803q-10.116657-35.292598 25.175942-45.409256Z" fill="#FFFFFF" opacity=".4" p-id="6621"></path><path d="M284.134061 263.382697c-20.275679 0-36.713952 16.437475-36.713952 36.713951v43.897117c0 4.408069 3.573225 7.981294 7.981294 7.981293h55.469992c13.443691 0 24.342946 10.898457 24.342946 24.342947S324.315087 400.660951 310.871395 400.660951H255.401403c-4.408069 0-7.981294 3.573225-7.981294 7.981294v316.857365c0 20.276477 16.438273 36.713952 36.713952 36.713952h43.897116c20.275679 0 36.713952-16.437475 36.713952-36.713952V300.096648c0-20.276477-16.438273-36.713952-36.713952-36.713951h-43.897116zM436.576773 263.382697c-20.275679 0-36.713952 16.437475-36.713951 36.713951v122.911926c0 4.408069 3.573225 7.981294 7.981293 7.981293h49.084957c13.443691 0 24.342946 10.898457 24.342947 24.342947S470.372764 479.67576 456.929072 479.67576H407.844115c-4.408069 0-7.981294 3.573225-7.981293 7.981294v237.842556c0 20.276477 16.438273 36.713952 36.713951 36.713952h43.897116c20.275679 0 36.713952-16.437475 36.713952-36.713952V300.096648c0-20.276477-16.438273-36.713952-36.713952-36.713951h-43.897116z" fill="#FFFFFF" p-id="6622"></path></svg>
