<svg class="icon" viewBox="0 0 1024 1024" xmlns="http://www.w3.org/2000/svg" width="200" height="200"><path d="M0 512a512 512 0 1 0 1024 0A512 512 0 1 0 0 512z" fill="#69ADF4"/><path d="m562.058 278.412 42.198-12.096q35.292-10.117 45.409 25.176l117.221 408.934q10.117 35.292-25.176 45.409l-42.197 12.096q-35.293 10.117-45.41-25.176l-117.22-408.934q-10.118-35.292 25.175-45.41z" fill="#FFF" opacity=".4"/><path d="M284.134 263.383c-20.276 0-36.714 16.437-36.714 36.714v43.897a7.981 7.981 0 0 0 7.981 7.981h55.47c13.444 0 24.343 10.899 24.343 24.343s-10.899 24.343-24.343 24.343h-55.47a7.981 7.981 0 0 0-7.98 7.981V725.5c0 20.276 16.437 36.714 36.713 36.714h43.897c20.276 0 36.714-16.438 36.714-36.714V300.097c0-20.277-16.438-36.714-36.714-36.714h-43.897zm152.443 0c-20.276 0-36.714 16.437-36.714 36.714v122.912a7.981 7.981 0 0 0 7.981 7.98h49.085c13.444 0 24.343 10.9 24.343 24.344s-10.9 24.343-24.343 24.343h-49.085a7.981 7.981 0 0 0-7.981 7.981V725.5c0 20.276 16.438 36.714 36.714 36.714h43.897c20.276 0 36.714-16.438 36.714-36.714V300.097c0-20.277-16.438-36.714-36.714-36.714h-43.897z" fill="#FFF"/></svg>