<svg t="1719844718926" class="icon" viewBox="0 0 1024 1024" version="1.1" xmlns="http://www.w3.org/2000/svg" p-id="266272" width="200" height="200"><path d="M138.0173018 383.04044608h747.9653964c7.09277447 0 12.89595271-5.80317818 12.89595812-12.89595273v-64.47977419c0-28.37110348-23.21271811-51.58382158-51.58382153-51.58382161H497.81445089c-24.50231446 0-47.71503251-11.60636172-62.54538509-31.59508902l-24.50231442-33.52948343c-14.83034722-19.98873261-38.04306533-31.59508889-62.54537971-31.59509427h-145.72429566c-42.55665253 0-77.37573228 34.81907982-77.37573233 77.37573236v135.40753016c0 7.09277447 5.80317818 12.89595271 12.89595812 12.89595273zM885.9826982 415.2803386h-747.9653964c-7.09277447 0-12.89595271 5.80317818-12.89595812 12.89595272V787.97344057c0 42.55665253 34.81907982 77.37573228 77.37573233 77.37573223l619.00584798 1.28959637c42.55665253 0 77.37573228-34.81907982 77.37573233-77.37573236v-361.08674549c0-7.09277447-5.80317818-12.89595271-12.89595812-12.89595272z m-606.1098899 310.14771686c-1.28959636 1.93439451-3.22399088 3.86878903-5.8031835 5.80318347-32.88468534 20.63353074-67.05896691-13.54075089-46.4254362-46.42544153 1.28959636-1.93439451 3.22399088-3.86878903 5.80317822-5.80317821 32.88468534-20.63353074 67.70376514 14.18554911 46.42544148 46.42543627z m0-137.98671761c-1.28959636 1.93439451-3.22399088 3.86878903-5.8031835 5.80317817-32.88468534 20.63353074-67.05896691-13.54075089-46.4254362-46.4254362 1.28959636-1.93439451 3.22399088-3.86878903 5.80317822-5.80317818 32.88468534-21.27832364 67.70376514 13.54075089 46.42544148 46.42543621z m361.08674562 149.59307926h-264.36708411c-6.44797635 0-12.25115989-2.57919268-16.11994359-7.73757266-21.27832364-27.08150713-2.57919268-56.74220161 23.212718-56.74220164h264.36708417c6.44797635 0 12.25115989 2.57919268 16.11994364 7.73757283 21.27832364 27.08150713 2.57919268 56.74220161-23.21271811 56.74220147z m128.95954853-137.98671756h-393.32663264c-6.44797635 0-12.25115989-2.57919268-16.11994359-7.73757269-21.27832364-27.08150713-2.57919268-56.74220161 23.212718-56.74220692h393.32663275c6.44797635 0 12.25115989 2.57919268 16.11994354 7.7375727 21.27832364 27.08150713 2.57919268 56.74220161-23.21271806 56.74220691z" fill="#08D19F" p-id="266273"></path></svg>
