<svg t="1650624655184" class="icon" viewBox="0 0 1024 1024" version="1.1" xmlns="http://www.w3.org/2000/svg" p-id="22328" width="200" height="200"><path d="M924.145781 233.089709l0-3.215228-0.642636-0.642636 0-2.571568-0.642636-0.642636 0-0.642636-0.642636-0.642636-0.642636 0-0.642636-0.642636 0-0.642636-1.928932-1.928932 0-0.642636-0.642636-0.642636 0-1.286296-1.928932 0-0.642636-0.642636-1.286296 0-0.642636-0.642636 0-0.642636-0.642636 0 0-0.642636-0.642636 0-0.642636-0.642636-0.642636 0 0-0.642636-2.571568 0 0-0.642636-5.14416 0-0.642636 0.642636-0.642636 0 0 0.642636-1.286296 0-0.642636 0.642636-1.286296 0L112.707968 515.999081c-10.287297 3.857864-15.431457 14.788821-11.573593 25.718755 2.571568 5.786797 7.073092 9.644661 12.216229 11.573593l235.972363 94.517677 24.433482 135.667889c1.928932 10.930957 12.216229 17.36039 22.50455 16.074094 4.500501-0.642636 8.358365-3.215228 10.930957-6.429433l87.444585-87.444585 178.104397 71.370491c10.287297 3.857864 21.218254-0.642636 25.718755-10.287297l223.756133-523.383258 0.642636-0.642636 0-0.642636 0-1.286296 0-5.14416L924.145781 233.089709 924.145781 233.089709zM364.112812 610.516758 364.112812 610.516758l-190.32165-75.870991 604.39841-230.829226L364.112812 610.516758 364.112812 610.516758zM405.263024 738.468918 405.263024 738.468918l-12.859889-74.585719 62.368466 25.076118L405.263024 738.468918 405.263024 738.468918zM670.169369 733.325781 670.169369 733.325781 406.54932 627.877147l452.012767-334.347904L670.169369 733.325781 670.169369 733.325781z" p-id="22329"></path></svg>