<svg class="icon" viewBox="0 0 1024 1024" xmlns="http://www.w3.org/2000/svg" width="200" height="200"><path d="M924.146 233.09v-3.216l-.643-.642v-2.572l-.642-.642v-.643l-.643-.643h-.643l-.642-.642v-.643l-1.93-1.929v-.642l-.642-.643v-1.286h-1.929l-.643-.643h-1.286l-.642-.643v-.642h-.643v-.643h-.643l-.642-.643h-.643v-.642h-2.572v-.643h-5.144l-.642.643h-.643v.642h-1.286l-.643.643h-1.286L112.708 516c-10.287 3.858-15.431 14.789-11.574 25.719 2.572 5.787 7.073 9.644 12.217 11.573l235.972 94.518 24.433 135.668c1.93 10.931 12.217 17.36 22.505 16.074 4.5-.643 8.358-3.215 10.931-6.43l87.445-87.444 178.104 71.37c10.287 3.858 21.218-.642 25.719-10.287l223.756-523.383.642-.643v-7.073l1.288-2.571zM364.113 610.517 173.79 534.646l604.399-230.83-414.077 306.7zm41.15 127.952-12.86-74.586 62.369 25.076-49.509 49.51zm264.906-5.143L406.55 627.877 858.562 293.53 670.17 733.326z"/></svg>