<svg t="1719843111735" class="icon" viewBox="0 0 1024 1024" version="1.1" xmlns="http://www.w3.org/2000/svg" p-id="146261" width="200" height="200"><path d="M512 42.7C252.8 42.7 42.7 252.8 42.7 512c0 259.2 210.1 469.3 469.3 469.3S981.3 771.2 981.3 512c0-259.2-210.1-469.3-469.3-469.3z m93.3 225.9c16.1 0 29.1 13 29.1 29.1s-13.1 29.1-29.1 29.1c-16.1 0-29.1-13.1-29.1-29.1-0.1-16 13-29.1 29.1-29.1zM506.2 257c19.3 0 35 15.7 35 35s-15.7 35-35 35-35-15.7-35-35c0-19.4 15.7-35 35-35zM343 321.1c0-29 23.5-52.5 52.5-52.5s52.5 23.5 52.5 52.5-23.5 52.5-52.5 52.5c-29.1 0-52.5-23.5-52.5-52.5z m303.1 247.7c-11.7 35 11.7 81.6-11.7 128.2-23.3 46.6-58.3 69.9-93.3 69.9s-104.9 0-104.9-93.3c0-70 35-58.3 35-104.9s-23.3-23.3-58.3-81.6 0-93.3 0-93.3 58.3-58.3 174.9-23.3c116.6 35.1 69.9 163.4 58.3 198.3z m11.6-198.2c-12.9 0-23.3-10.4-23.3-23.3s10.4-23.3 23.3-23.3 23.3 10.4 23.3 23.3-10.4 23.3-23.3 23.3z" fill="#FFBD27" p-id="146262"></path></svg>
