<svg t="1719763848667" class="icon" viewBox="0 0 1024 1024" version="1.1" xmlns="http://www.w3.org/2000/svg" p-id="1470" width="200" height="200"><path d="M493.037037 18.128593C230.779259 18.128593 18.128593 230.779259 18.128593 493.037037S230.779259 967.945481 493.037037 967.945481 967.945481 755.294815 967.945481 493.037037 755.294815 18.128593 493.037037 18.128593z" fill="#8F7AF6" p-id="1471"></path><path d="M488.903111 285.278815c-145.256296 0-262.97837 171.728593-262.97837 200.362666 0 34.360889 117.76 200.400593 262.97837 200.400593 145.256296 0 263.016296-157.430519 263.016296-200.400593 0-28.634074-117.76-200.362667-263.016296-200.362666z m159.895704 294.001778c-29.316741 26.775704-89.050074 71.717926-159.895704 71.717926-65.232593 0-121.742222-39.594667-157.696-72.817778-43.880296-40.580741-65.611852-78.734222-70.807704-91.780741 6.33363-14.639407 31.364741-54.234074 71.907556-92.084148 36.02963-33.754074 92.463407-73.955556 156.634074-73.955556 64.094815 0 120.528593 40.201481 156.634074 73.879704 41.377185 38.760296 66.597926 79.113481 72.248889 93.032296-3.944296 13.50163-25.903407 52.565333-69.025185 92.008297z" fill="#F4F8FF" p-id="1472"></path><path d="M488.903111 360.410074a112.715852 112.715852 0 1 0 0 225.431704 112.715852 112.715852 0 0 0 0-225.431704zM458.903704 470.660741a32.616296 32.616296 0 1 1 0-65.232593 32.616296 32.616296 0 0 1 0 65.232593z" fill="#F4F8FF" p-id="1473"></path></svg>
