<svg class="icon" viewBox="0 0 1024 1024" xmlns="http://www.w3.org/2000/svg" width="256" height="256"><path d="M79.238 961.896v-25.442c0-109.28 28.835-214.892 81.139-297.416 48.427-76.396 115.304-131.573 195.508-161.896A240.785 240.785 0 0 1 279.488 300.5c0-131.538 104.331-238.535 232.547-238.535S744.546 168.962 744.546 300.5a240.854 240.854 0 0 1-76.742 176.988c190.87 73.004 276.992 277.131 276.992 458.966v25.442H79.238zM694.908 300.5c0-103.43-82.039-187.615-182.873-187.615-100.835 0-182.873 84.184-182.873 187.615 0 103.465 82.038 187.65 182.873 187.65 100.834 0 182.873-84.185 182.873-187.65zm-79.166 213.508a226.454 226.454 0 0 1-103.707 25.096A225.935 225.935 0 0 1 407.912 513.8C212.888 564.927 136.804 752.854 129.5 910.977h765.035c-7.997-167.4-95.227-347.746-278.793-396.97zm-143.411 37.246h79.407l39.739-8.48-45.242 65.664 30.6 227.527-64.8 56.908-69.197-56.908 40.535-227.527-50.78-65.665 39.738 8.48z"/></svg>