<svg t="1612242856287" class="icon" viewBox="0 0 1024 1024" version="1.1" xmlns="http://www.w3.org/2000/svg" p-id="5203" width="128" height="128"><path d="M422.4 395.392l-27.2-327.68L256.768 194.88 114.688 64 65.472 109.12 207.616 240 69.184 367.168 422.4 395.392zM960 66.752 604.096 91.776l138.112 127.488L600.064 350.08l49.216 45.312 142.016-130.88 138.112 127.552L960 66.752zM423.936 675.392 374.848 630.016l-142.144 130.88L94.592 633.344 64 958.656l355.84-25.024-138.112-127.488L423.936 675.392zM958.528 914.88l-142.016-130.88 138.368-127.104L601.472 628.608l27.328 327.744 138.432-127.232L909.248 960 958.528 914.88z" p-id="5204" fill="#666666"></path></svg>
