<svg class="icon" viewBox="0 0 1024 1024" xmlns="http://www.w3.org/2000/svg" width="200" height="200"><path d="m586.667 494.933-8.534 40.534L533.333 416l-19.2 2.133-29.866 57.6H448l-8.533 19.2-25.6 51.2L384 473.6l-17.067 6.4 38.4 93.867H422.4l38.4-78.934h36.267l27.733-51.2L571.733 569.6h19.2l14.934-74.667h51.2v-19.2h-66.134l-4.266 19.2zM512 283.733c-117.333 0-213.333 96-213.333 213.334S394.667 710.4 512 710.4s213.333-96 213.333-213.333c0-119.467-96-213.334-213.333-213.334zm0 401.067c-104.533 0-189.867-85.333-189.867-189.867S407.467 305.067 512 305.067 701.867 390.4 701.867 494.933 616.533 684.8 512 684.8zM893.867 224c-44.8-14.933-134.4-44.8-179.2-66.133C625.067 113.067 590.933 83.2 556.8 57.6 544 46.933 529.067 42.667 512 42.667s-32 4.266-44.8 12.8c-34.133 25.6-68.267 55.466-157.867 100.266-44.8 21.334-134.4 51.2-179.2 66.134-29.866 10.666-46.933 36.266-44.8 66.133 8.534 98.133 32 288 89.6 405.333 68.267 134.4 236.8 238.934 302.934 279.467 10.666 6.4 21.333 8.533 34.133 8.533s23.467-2.133 34.133-8.533c66.134-40.533 234.667-145.067 302.934-279.467 57.6-117.333 81.066-307.2 89.6-401.066 2.133-32-17.067-59.734-44.8-68.267zm-83.2 450.133C768 759.467 672 846.933 524.8 936.533c-4.267 0-8.533 2.134-12.8 2.134s-8.533-2.134-10.667-4.267C352 846.933 256 757.333 213.333 674.133 153.6 554.667 132.267 347.733 128 288c-2.133-14.933 12.8-21.333 17.067-23.467l17.066-6.4c49.067-17.066 125.867-42.666 168.534-64 81.066-40.533 119.466-70.4 151.466-93.866 4.267-4.267 8.534-6.4 12.8-10.667 0-2.133 6.4-4.267 14.934-4.267h4.266c8.534 0 14.934 2.134 17.067 4.267 4.267 4.267 8.533 6.4 12.8 10.667 29.867 23.466 68.267 53.333 151.467 93.866 42.666 21.334 117.333 46.934 168.533 64l17.067 6.4c4.266 2.134 17.066 6.4 17.066 23.467-6.4 59.733-27.733 266.667-87.466 386.133z"/></svg>