<svg t="1650625555592" class="icon" viewBox="0 0 1024 1024" version="1.1" xmlns="http://www.w3.org/2000/svg" p-id="36820" width="200" height="200"><path d="M586.666667 494.933333l-8.533334 40.533334-44.8-119.466667-19.2 2.133333-29.866666 57.6H448l-8.533333 19.2-25.6 51.2-29.866667-72.533333-17.066667 6.4 38.4 93.866667h17.066667l38.4-78.933334H497.066667l27.733333-51.2 46.933333 125.866667h19.2l14.933334-74.666667h51.2v-19.2h-66.133334l-4.266666 19.2zM512 283.733333c-117.333333 0-213.333333 96-213.333333 213.333334s96 213.333333 213.333333 213.333333 213.333333-96 213.333333-213.333333c0-119.466667-96-213.333333-213.333333-213.333334z m0 401.066667c-104.533333 0-189.866667-85.333333-189.866667-189.866667s85.333333-189.866667 189.866667-189.866666 189.866667 85.333333 189.866667 189.866666-85.333333 189.866667-189.866667 189.866667z m381.866667-460.8c-44.8-14.933333-134.4-44.8-179.2-66.133333-89.6-44.8-123.733333-74.666667-157.866667-100.266667-12.8-10.666667-27.733333-14.933333-44.8-14.933333s-32 4.266667-44.8 12.8c-34.133333 25.6-68.266667 55.466667-157.866667 100.266666-44.8 21.333333-134.4 51.2-179.2 66.133334-29.866667 10.666667-46.933333 36.266667-44.8 66.133333 8.533333 98.133333 32 288 89.6 405.333333 68.266667 134.4 236.8 238.933333 302.933334 279.466667 10.666667 6.4 21.333333 8.533333 34.133333 8.533333s23.466667-2.133333 34.133333-8.533333c66.133333-40.533333 234.666667-145.066667 302.933334-279.466667 57.6-117.333333 81.066667-307.2 89.6-401.066666 2.133333-32-17.066667-59.733333-44.8-68.266667zM810.666667 674.133333c-42.666667 85.333333-138.666667 172.8-285.866667 262.4-4.266667 0-8.533333 2.133333-12.8 2.133334s-8.533333-2.133333-10.666667-4.266667c-149.333333-87.466667-245.333333-177.066667-288-260.266667C153.6 554.666667 132.266667 347.733333 128 288c-2.133333-14.933333 12.8-21.333333 17.066667-23.466667l17.066666-6.4c49.066667-17.066667 125.866667-42.666667 168.533334-64 81.066667-40.533333 119.466667-70.4 151.466666-93.866666 4.266667-4.266667 8.533333-6.4 12.8-10.666667 0-2.133333 6.4-4.266667 14.933334-4.266667h4.266666c8.533333 0 14.933333 2.133333 17.066667 4.266667 4.266667 4.266667 8.533333 6.4 12.8 10.666667 29.866667 23.466667 68.266667 53.333333 151.466667 93.866666 42.666667 21.333333 117.333333 46.933333 168.533333 64l17.066667 6.4c4.266667 2.133333 17.066667 6.4 17.066666 23.466667-6.4 59.733333-27.733333 266.666667-87.466666 386.133333z" p-id="36821"></path></svg>