<svg t="1675605231338" class="icon" viewBox="0 0 1024 1024" version="1.1" xmlns="http://www.w3.org/2000/svg" p-id="12660" width="200" height="200"><path d="M139 669.6V164.3c0-12.7 10.3-23.1 23.1-23.1h694.4c12.7 0 23.1 10.4 23.1 23.1v248.5h70V164.3c0-51.3-41.8-93.1-93.1-93.1H162c-51.3 0.1-93 41.8-93 93.1v505.3c0 51.3 41.8 93.1 93.1 93.1h224.7v-70H162c-12.7 0-23-10.4-23-23.1zM104.7 800.6h282v70h-282z" p-id="12661"></path><path d="M954.9 599.4l-5.1-15c-11.5-33.9-29.4-64.9-53.2-91.9l-10.5-11.9h-83.2l-41.7-72.2-15.6-3.1c-34.8-6.9-71.3-6.9-106.1 0l-15.6 3.1-41.7 72.2H499l-10.5 11.9c-23.8 27.1-41.7 58-53.2 91.9l-5.1 15 41.7 72.2-41.7 72.2 5.1 15c11.5 33.9 29.4 64.9 53.2 91.9l10.5 11.9h83.2l41.7 72.2 15.6 3.1c17.4 3.5 35.3 5.2 53.1 5.2s35.6-1.8 53.1-5.2l15.6-3.1 41.7-72.2h83.2l10.5-11.9c23.8-27.1 41.7-58 53.2-91.9l5.1-15-41.7-72.2 41.6-72.2z m-76.8 151.2c-6.4 14.9-14.5 29-24.3 42h-91.2l-45.6 79c-16.1 1.9-32.4 1.9-48.5 0l-45.6-79h-91.2c-9.8-13-17.9-27-24.3-42l45.6-79.1-45.6-79.1c6.4-14.9 14.5-29 24.3-42h91.2l45.6-79c16.1-1.9 32.4-1.9 48.5 0l45.6 79h91.2c9.8 13 17.9 27 24.3 42l-45.6 79.1 45.6 79.1z" p-id="12662"></path><path d="M692.7 560.2c-61.4 0-111.3 49.9-111.3 111.3s49.9 111.3 111.3 111.3S804 732.9 804 671.5c0-61.3-49.9-111.3-111.3-111.3z m0 152.7c-22.8 0-41.3-18.5-41.3-41.3s18.5-41.3 41.3-41.3 41.3 18.5 41.3 41.3-18.5 41.3-41.3 41.3z" p-id="12663"></path></svg>
