<svg t="1650328724458" class="icon" viewBox="0 0 1024 1024" version="1.1" xmlns="http://www.w3.org/2000/svg" p-id="5922" width="200" height="200"><path d="M768.8 907.11c-13.81 0-25-11.2-25-25v-45.99c0-13.8 11.19-25 25-25s25 11.2 25 25v45.99c-0.01 13.8-11.19 25-25 25zM768.8 605.83c-13.81 0-25-11.2-25-25v-30.46c0-13.8 11.19-25 25-25s25 11.2 25 25v30.46c-0.01 13.81-11.19 25-25 25zM639.89 741.24h-36.96c-13.81 0-25-11.2-25-25s11.19-25 25-25h36.96c13.81 0 25 11.2 25 25s-11.19 25-25 25zM935.36 741.24h-44.45c-13.81 0-25-11.2-25-25s11.19-25 25-25h44.45c13.81 0 25 11.2 25 25-0.01 13.8-11.19 25-25 25zM886.08 858.54c-6.4 0-12.81-2.44-17.69-7.34l-27.66-27.66c-9.76-9.75-9.76-25.58-0.01-35.34 9.76-9.76 25.59-9.76 35.35 0l27.69 27.7c9.76 9.76 9.74 25.6-0.02 35.34a24.985 24.985 0 0 1-17.66 7.3zM682.38 654.81c-6.4 0-12.79-2.44-17.67-7.32l-30.86-30.85c-9.77-9.75-9.77-25.58-0.02-35.34 9.76-9.76 25.6-9.76 35.34 0l30.88 30.85c9.76 9.75 9.76 25.58 0.01 35.34-4.88 4.88-11.28 7.32-17.68 7.32zM651.51 858.54c-6.4 0-12.79-2.44-17.67-7.32-9.76-9.76-9.76-25.58 0-35.34l34.37-34.38c9.76-9.76 25.59-9.76 35.35 0 9.76 9.75 9.76 25.58 0.01 35.34l-34.38 34.38a24.984 24.984 0 0 1-17.68 7.32zM852.35 657.69c-6.4 0-12.79-2.44-17.67-7.32-9.76-9.75-9.76-25.58-0.01-35.34l33.74-33.73c9.77-9.78 25.6-9.75 35.35 0 9.76 9.76 9.76 25.6-0.01 35.34l-33.73 33.73c-4.87 4.88-11.27 7.32-17.67 7.32z" p-id="5923"></path><path d="M768.8 856.49c-77.32 0-140.22-62.91-140.22-140.24 0-77.31 62.9-140.22 140.22-140.22s140.23 62.91 140.23 140.22c0 77.32-62.91 140.24-140.23 140.24z m0-230.48c-49.75 0-90.23 40.47-90.23 90.23s40.48 90.25 90.23 90.25c49.76 0 90.24-40.49 90.24-90.25s-40.48-90.23-90.24-90.23z" p-id="5924"></path><path d="M768.8 856.49c-77.32 0-140.22-62.91-140.22-140.24 0-77.31 62.9-140.22 140.22-140.22s140.23 62.91 140.23 140.22c0 77.32-62.91 140.24-140.23 140.24z m0-230.48c-49.75 0-90.23 40.47-90.23 90.23s40.48 90.25 90.23 90.25c49.76 0 90.24-40.49 90.24-90.25s-40.48-90.23-90.24-90.23z" p-id="5925"></path><path d="M540.94 706.35h-420.4c-31.07 0-56.35-25.27-56.35-56.35V248.14c0-31.08 25.28-56.35 56.35-56.35h619.39c31.07 0 56.35 25.27 56.35 56.35V483.5c0 13.8-11.19 25-25 25s-25-11.2-25-25V248.14c0-3.51-2.86-6.36-6.36-6.36H120.53c-3.51 0-6.35 2.85-6.35 6.36V650c0 3.51 2.85 6.36 6.35 6.36h420.4c13.81 0 25 11.2 25 25s-11.19 24.99-24.99 24.99z" p-id="5926"></path><path d="M430.23 820.83c-13.81 0-25-11.2-25-25V681.36c0-13.8 11.19-25 25-25s25 11.2 25 25v114.48c0 13.8-11.19 24.99-25 24.99z" p-id="5927"></path><path d="M582.37 854.73H278.09c-13.81 0-25-11.2-25-25s11.19-25 25-25h304.27c13.81 0 25 11.2 25 25s-11.19 25-24.99 25z" p-id="5928"></path></svg>