<svg t="1699460646090" class="icon" viewBox="0 0 1024 1024" version="1.1" xmlns="http://www.w3.org/2000/svg" p-id="6462" width="200" height="200"><path d="M512 512m-512 0a512 512 0 1 0 1024 0 512 512 0 1 0-1024 0Z" fill="#FF8F41" p-id="6463"></path><path d="M436.576773 217.091193m29.530787 0l93.381138 0q29.530787 0 29.530788 29.530787l0 51.08028q0 29.530787-29.530788 29.530788l-93.381138 0q-29.530787 0-29.530787-29.530788l0-51.08028q0-29.530787 29.530787-29.530787Z" fill="#FFFFFF" opacity=".4" p-id="6464"></path><path d="M719.583077 342.1014l40.038959-17.701712c3.507779-1.549169 4.020976-6.315598 0.924234-8.578294l-55.734971-40.715773c-3.096742-2.262697-7.481665-0.324839-7.891106 3.488624l-4.475909 41.54423-58.874014 80.591115 28.157206 20.568592 57.855601-79.196782z" fill="#FFFFFF" opacity=".4" p-id="6465"></path><path d="M512.399065 521.178488m-249.016368 0a249.016368 249.016368 0 1 0 498.032736 0 249.016368 249.016368 0 1 0-498.032736 0Z" fill="#FFFFFF" p-id="6466"></path><path d="M512.399065 348.383476c9.917556 0 17.957911 8.040355 17.957911 17.957911v143.564321l97.432443 55.102055c8.633366 4.882157 11.67344 15.838878 6.791282 24.471445-4.882157 8.633366-15.838878 11.67344-24.471445 6.791283l-106.550272-60.258768A17.957911 17.957911 0 0 1 494.441154 520.380359V366.341387c0-9.917556 8.040355-17.957911 17.957911-17.957911z" fill="#FF8F41" p-id="6467"></path><path d="M513.197194 524.371005m-40.704599 0a40.704599 40.704599 0 1 0 81.409198 0 40.704599 40.704599 0 1 0-81.409198 0Z" fill="#FF8338" p-id="6468"></path></svg>
