<svg t="1719844784164" class="icon" viewBox="0 0 1024 1024" version="1.1" xmlns="http://www.w3.org/2000/svg" p-id="269353" width="200" height="200"><path d="M920.78 322.56L700.878 102.656c-36.199-36.198-94.925-36.198-131.123 0s-36.199 94.925 0 131.123l23.5 23.501-86.272 86.323c-123.033-75.11-285.798-59.494-392.192 46.9l-37.376 37.375L293.94 644.403l-89.088 89.088c-23.5 23.501-23.5 61.645 0 85.146s61.645 23.5 85.146 0l89.088-89.088L595.61 946.074l37.376-37.376c106.393-106.394 122.01-269.21 46.899-392.192l86.323-86.324 23.5 23.501c36.2 36.199 94.926 36.199 131.124 0s36.198-94.925-0.051-131.123z m-454.758 132.3a41.206 41.206 0 0 1-34.304 18.28 41.057 41.057 0 0 1-22.988-7.015c-55.91-37.581-122.266-8.09-122.932-7.783-20.633 9.728-45.21 0.87-54.886-19.763a41.196 41.196 0 0 1 19.763-54.886c4.403-2.048 108.851-50.023 204.083 13.926 18.893 12.698 23.962 38.349 11.264 57.242z" fill="#FF5C64" p-id="269354"></path><path d="M569.754 102.656c-36.199 36.198-36.199 94.925 0 131.123l23.5 23.501-86.272 86.323c-123.033-75.11-285.798-59.494-392.192 46.9l-37.376 37.375L293.94 644.403l-89.088 89.088c-23.5 23.501-23.5 61.645 0 85.146s61.645 23.5 85.146 0l89.088-89.088 105.83 105.83c99.226-42.445 182.119-115.558 236.851-207.462a319.145 319.145 0 0 0-41.881-111.411l86.323-86.324 20.173 20.173c4.3-26.624 6.656-53.862 6.656-81.664 0-82.073-19.61-159.539-54.221-228.147l-37.888-37.888c-36.25-36.198-94.976-36.198-131.174 0zM466.022 454.861a41.206 41.206 0 0 1-34.304 18.278 41.057 41.057 0 0 1-22.988-7.014c-55.91-37.581-122.266-8.09-122.932-7.783-20.633 9.728-45.21 0.87-54.886-19.763a41.196 41.196 0 0 1 19.763-54.886c4.403-2.048 108.851-50.023 204.083 13.926 18.893 12.698 23.962 38.349 11.264 57.242z" fill="#FF5C64" p-id="269355"></path><path d="M253.85 684.442c228.812-49.152 400.332-252.468 400.332-495.924 0-38.758-4.505-76.441-12.697-112.69-25.754-1.69-52.07 7.167-71.731 26.88-36.199 36.198-36.199 94.924 0 131.122l23.5 23.501-86.272 86.272c-123.033-75.11-285.798-59.494-392.192 46.9l-37.376 37.375L293.94 644.403l-40.09 40.039z m32-226.15c-20.634 9.727-45.21 0.87-54.887-19.764a41.196 41.196 0 0 1 19.763-54.886c4.404-2.048 108.852-50.023 204.084 13.926 18.892 12.698 23.961 38.349 11.264 57.242a41.206 41.206 0 0 1-34.304 18.278 41.057 41.057 0 0 1-22.99-7.014c-55.96-37.53-122.316-8.09-122.93-7.783z" fill="#FF5C64" p-id="269356"></path><path d="M230.912 438.58a41.196 41.196 0 0 1 19.763-54.887c3.226-1.536 60.058-27.546 127.642-16.333 18.022-18.074 34.662-37.53 49.817-58.112-107.827-30.618-228.505-3.584-313.395 81.306L77.363 427.93l71.629 71.628a502.748 502.748 0 0 0 103.885-40.243 41.861 41.861 0 0 1-21.965-20.736z" fill="#FF5C64" p-id="269357"></path></svg>
