<svg class="icon" viewBox="0 0 1024 1024" xmlns="http://www.w3.org/2000/svg" width="200" height="200"><path d="M0 512a512 512 0 1 0 1024 0A512 512 0 1 0 0 512z" fill="#FF8F41"/><path d="M466.107 217.091h93.382q29.53 0 29.53 29.531v51.08q0 29.531-29.53 29.531h-93.381q-29.531 0-29.531-29.53v-51.081q0-29.53 29.53-29.53zm253.476 125.01 40.039-17.701c3.508-1.55 4.021-6.316.924-8.579l-55.735-40.715c-3.096-2.263-7.481-.325-7.89 3.488l-4.477 41.544-58.874 80.592 28.157 20.568 57.856-79.197z" fill="#FFF" opacity=".4"/><path d="M263.383 521.178a249.016 249.016 0 1 0 498.032 0 249.016 249.016 0 1 0-498.032 0z" fill="#FFF"/><path d="M512.4 348.383c9.917 0 17.957 8.04 17.957 17.958v143.565l97.432 55.102c8.634 4.882 11.674 15.839 6.792 24.471-4.882 8.634-15.84 11.674-24.472 6.791l-106.55-60.258a17.958 17.958 0 0 1-9.118-15.632V366.341c0-9.917 8.04-17.958 17.958-17.958z" fill="#FF8F41"/><path d="M472.493 524.371a40.705 40.705 0 1 0 81.409 0 40.705 40.705 0 1 0-81.41 0z" fill="#FF8338"/></svg>