<svg class="icon" viewBox="0 0 1024 1024" xmlns="http://www.w3.org/2000/svg" width="200" height="200"><path d="M977.455 558.545h-34.91V453.818c0-44.218-37.236-81.454-81.454-81.454H546.909v-93.091h197.818c25.6 0 46.546-20.946 46.546-46.546V93.091c0-25.6-20.946-46.546-46.546-46.546H279.273c-25.6 0-46.546 20.946-46.546 46.546v139.636c0 25.6 20.946 46.546 46.546 46.546H477.09v93.09H162.909c-44.218 0-81.454 37.237-81.454 81.455v104.727h-34.91C20.945 558.545 0 579.491 0 605.091v325.818c0 25.6 20.945 46.546 46.545 46.546h139.637c25.6 0 46.545-20.946 46.545-46.546V605.091c0-25.6-20.945-46.546-46.545-46.546h-34.91V453.818c0-6.982 4.655-11.636 11.637-11.636h314.182v116.363h-34.91c-25.6 0-46.545 20.946-46.545 46.546v325.818c0 25.6 20.946 46.546 46.546 46.546h139.636c25.6 0 46.546-20.946 46.546-46.546V605.091c0-25.6-20.946-46.546-46.546-46.546H546.91V442.182h314.182c6.982 0 11.636 4.654 11.636 11.636v104.727h-34.909c-25.6 0-46.545 20.946-46.545 46.546v325.818c0 25.6 20.945 46.546 46.545 46.546h139.637c25.6 0 46.545-20.946 46.545-46.546V605.091c0-25.6-20.945-46.546-46.545-46.546zm-814.546 69.819v279.272H69.82V628.364h93.09zm395.636 0v279.272h-93.09V628.364h93.09zm-256-418.91v-93.09h418.91v93.09h-418.91zm651.637 698.182H861.09V628.364h93.09v279.272z"/></svg>