<svg t="1721541160105" class="icon" viewBox="0 0 1024 1024" version="1.1" xmlns="http://www.w3.org/2000/svg" p-id="13856" width="200" height="200"><path d="M762.464 263.776a141.568 141.568 0 0 1 71.136 40.992 187.296 187.296 0 0 1 27.264 36.576c0.352 1.44-49.088 34.656-79.072 53.184-1.088 0.736-5.408-3.968-10.304-11.2a64.448 64.448 0 0 0-53.44-32c-34.464-2.368-56.672 15.68-56.512 45.856a41.6 41.6 0 0 0 4.896 21.312c7.584 15.68 21.664 25.088 65.888 44.256 81.408 35.04 116.352 58.144 137.92 90.976a165.056 165.056 0 0 1 13.312 138.656 152.448 152.448 0 0 1-125.824 90.08 348.8 348.8 0 0 1-86.656-0.896 208.992 208.992 0 0 1-115.712-60.288 200.896 200.896 0 0 1-29.632-43.872 84.96 84.96 0 0 1 10.464-6.656c5.056-2.88 24.192-13.888 42.24-24.352l32.768-19.2 6.848 9.984a152.672 152.672 0 0 0 43.2 41.344 105.6 105.6 0 0 0 110.656-5.6 49.44 49.44 0 0 0 6.4-63.168c-8.832-12.64-26.88-23.264-78.176-45.504a281.6 281.6 0 0 1-107.168-65.76 149.984 149.984 0 0 1-31.232-56.864 227.712 227.712 0 0 1-1.984-72.576 138.624 138.624 0 0 1 116.608-107.968 288 288 0 0 1 86.112 2.688z m-266.976 47.456l0.352 46.528h-148.16v420.736H243.2V357.856H95.04V312.16a447.552 447.552 0 0 1 1.28-46.912c0.544-0.736 90.624-1.088 199.84-0.896l198.752 0.544z" fill="#007ACC" p-id="13857"></path></svg>
