<svg t="1719843414729" class="icon" viewBox="0 0 1024 1024" version="1.1" xmlns="http://www.w3.org/2000/svg" p-id="175406" width="200" height="200"><path d="M512 1024C229.236364 1024 0 794.763636 0 512S229.236364 0 512 0s512 229.236364 512 512-229.236364 512-512 512z m56.599273-542.72a153.134545 153.134545 0 0 0 97.652363-142.149818C666.251636 254.789818 597.038545 186.181818 512 186.181818S357.794909 254.789818 357.794909 339.130182a153.134545 153.134545 0 0 0 97.605818 142.149818C328.471273 507.345455 232.727273 619.054545 232.727273 752.500364c0 32.488727 22.993455 43.240727 41.425454 51.851636l1.070546 0.465455c74.333091 26.065455 181.992727 33.000727 233.797818 33.000727 56.552727 0 167.191273-9.122909 240.686545-34.304 27.601455-10.472727 41.565091-27.648 41.565091-51.013818 0-133.492364-95.744-245.201455-222.673454-271.220364z" fill="#17E3C7" p-id="175407"></path></svg>
