<svg t="1650622753800" class="icon" viewBox="0 0 1024 1024" version="1.1" xmlns="http://www.w3.org/2000/svg" p-id="4947" width="200" height="200"><path d="M599.378 958.454H424.62c-165.805 0-296.769 0-296.769-86.024v-17.178c0-161.188 133.115-292.258 296.77-292.258h174.756c163.619 0 296.769 131.102 296.769 292.258v17.178c0 86.024-137.557 86.024-296.768 86.024z m-176.39-346.981c-137.625 0-249.608 109.935-249.608 245.098v17.491c0 35.046 144.255 35.046 249.608 35.046h177.985c87.207 0 249.645 0 249.645-35.046v-17.491c0-135.163-112.018-245.098-249.645-245.098H422.988z m80.266-83.526c-129.923 0-235.555-104.14-235.555-232.12 0-128.015 105.632-232.119 235.555-232.119s235.554 104.104 235.554 232.12c0 127.978-105.7 232.12-235.554 232.12zM316.246 295.098c0 101.224 83.91 183.572 187.008 183.572 103.133 0 187.042-82.348 187.042-183.572 0-101.19-83.909-183.502-187.042-183.502-103.134 0-187.008 82.311-187.008 183.502z m0 17.767" fill="" p-id="4948"></path></svg>