<svg t="1719764607585" class="icon" viewBox="0 0 1024 1024" version="1.1" xmlns="http://www.w3.org/2000/svg" p-id="61790" width="200" height="200"><path d="M597.8 316.59c-8.82 0-17.64 1.26-25.2 3.78 18.9 27.72 28.98 60.48 28.98 97.03 0 39.06-13.86 76.87-37.8 108.37l-2.52 2.52v1.26c-2.52 2.52-6.3 6.3-7.56 10.08 0 1.26 0 1.26 1.26 1.26 2.52 1.26 6.3 2.52 10.08 2.52h1.26l5.04 2.52c51.66 16.38 95.77 45.36 124.75 81.91 12.6 16.38 20.16 35.28 20.16 55.44 0 11.34-2.52 20.16-6.3 30.24h36.54c28.98 0 51.66-21.42 51.66-49.14-1.26-13.86-5.04-23.94-12.6-32.76-21.42-26.46-54.18-49.14-95.77-61.74 0 0-16.38-3.78-21.42-6.3-8.82-6.3-13.86-16.38-13.86-27.72 0-12.6 10.08-22.68 16.38-28.98 16.38-20.16 26.46-46.62 26.46-76.87 0-61.76-44.1-113.42-99.54-113.42z m-142.4-27.72c-61.74 0-112.15 57.96-112.15 128.53 0 34.02 11.34 64.26 28.98 86.95 11.34 6.3 18.9 20.16 18.9 34.02 0 12.6-6.3 23.94-16.38 31.5v1.26c-1.26 0-2.52 1.26-2.52 1.26-6.3 3.78-12.6 6.3-20.16 6.3-47.88 16.38-88.21 41.58-112.15 73.09h1.26c-6.3 8.82-8.82 18.9-8.82 28.98 0 30.24 25.2 55.44 56.7 55.44h332.67c32.76 0 57.96-23.94 57.96-55.44 0-12.6-5.04-23.94-11.34-34.02-23.94-31.5-61.74-55.44-108.37-70.57 0 0-3.47-0.93-7.84-2.18l-9.15-2.78c-2.94-0.96-5.51-1.88-6.95-2.6-10.08-6.3-16.38-18.9-16.38-31.5 0-13.86 11.34-25.2 18.9-34.02 18.9-22.68 28.98-52.92 28.98-86.95 0.01-70.57-50.39-127.27-112.14-127.27zM511.95 65.2c247.06 0 447.33 200.28 447.33 447.33S759.01 959.87 511.95 959.87 64.62 759.59 64.62 512.53 264.9 65.2 511.95 65.2z" fill="#FF6800" p-id="61791"></path></svg>
