<svg t="1733620604471" class="icon" viewBox="0 0 1024 1024" version="1.1" xmlns="http://www.w3.org/2000/svg" p-id="1596" width="128" height="128"><path d="M604.766 304.391c55.072 0 101.33 31.359 125.567 76.137v-94.054c0-51.505-41.856-91.812-92.513-91.812H250.118c-50.659 0-92.518 40.307-92.518 91.812v423.255c0 49.268 41.859 89.574 92.518 89.574h171.824c-30.848-11.195-48.466-33.586-50.672-71.662-4.402-85.105 48.465-161.231 90.321-197.066 6.608-6.728 11.01-11.194 17.616-15.685-8.813-20.149-15.421-42.548-15.421-67.176 0-78.385 61.679-143.323 140.98-143.323z" fill="#C4F7F0" p-id="1597"></path><path d="M804.423 349.242c0-51.507-41.855-91.814-92.515-91.814H324.204c-50.658 0-92.514 40.308-92.514 91.814v423.254c0 49.268 41.855 89.576 92.514 89.576h171.828c-30.846-11.197-48.466-33.587-50.67-71.668-4.404-85.101 48.462-161.239 90.319-197.063 6.608-6.727 11.009-11.196 17.617-15.682-8.813-20.152-15.422-42.549-15.422-67.182 0-78.384 61.68-143.318 140.977-143.318 55.071 0 101.336 31.356 125.57 76.133v-94.05zM394.702 638.123h-66.081c-6.612 0-11.024-4.474-11.024-11.187 0-6.729 4.413-11.2 11.024-11.2h66.081c6.608 0 11.008 4.471 11.008 11.2 0 6.713-4.4 11.187-11.008 11.187z m66.081-89.572H328.62c-4.417 0-11.025-4.477-11.025-11.199 0-6.707 4.413-11.189 11.025-11.189h132.163c6.609 0 11.01 4.482 11.01 11.189 0.001 6.72-4.401 11.199-11.01 11.199z m0-89.577H328.62c-4.417 0-11.025-4.481-11.025-11.2s6.608-11.198 11.025-11.198h132.163c6.609 0 11.01 4.481 11.01 11.198 0.001 6.719-4.401 11.2-11.01 11.2z" fill="#00DFC1" p-id="1598"></path><path d="M566.516 620.21c-33.043 26.875-72.692 85.096-70.484 152.288 2.193 67.177 72.686 67.177 176.216 67.177 103.535 0 174.03 0 176.228-67.177 2.205-67.192-39.651-123.183-70.485-152.288-24.239-22.396-44.066-26.868-50.672-26.868 28.64-15.683 46.256-47.039 46.256-82.861 0-53.743-41.841-96.294-94.722-96.294-52.863 0-94.707 42.551-92.511 96.294 0 35.822 17.628 64.951 46.253 82.861H621.59c-0.002 0-22.034 0-55.074 26.868z" fill="#00DFC1" p-id="1599"></path></svg>
