<svg class="icon" viewBox="0 0 1024 1024" xmlns="http://www.w3.org/2000/svg" width="200" height="200"><path d="M6.536 518.536a501.106 501.106 0 1 0 1002.213 0 501.106 501.106 0 1 0-1002.213 0z" fill="#FA6B6D"/><path d="M513.09 262.536c68.63 0 125.276 55.558 125.276 123.098 0 67.54-55.557 123.098-125.277 123.098-68.63 0-125.276-55.558-125.276-123.098 1.09-68.63 56.647-123.098 125.276-123.098zm0 0c68.63 0 125.276 55.558 125.276 123.098 0 67.54-55.557 123.098-125.277 123.098-68.63 0-125.276-55.558-125.276-123.098 1.09-68.63 56.647-123.098 125.276-123.098zm-46.843 286.502h104.579c89.327 0 161.225 70.809 161.225 159.047v9.804c0 34.86-71.898 35.95-161.225 35.95h-104.58c-89.327 0-161.225 0-161.225-35.95v-9.804c0-88.238 72.988-159.047 161.226-159.047z" fill="#FFF"/></svg>