<svg t="1699488817883" class="icon" viewBox="0 0 1024 1024" version="1.1" xmlns="http://www.w3.org/2000/svg" p-id="15665" width="200" height="200"><path d="M531.968 536.832c-4.8-6.208-36.672-5.632-41.152 0l17.344 22.4-30.976 150.528 34.176 32.896 34.176-32.896-30.976-150.592 17.408-22.336z" fill="#FF6868" p-id="15666"></path><path d="M512 0a512 512 0 1 0 0 1024A512 512 0 0 0 512 0z m-0.576 259.84c77.12 0 139.52 58.112 139.52 129.856 0 49.024-29.504 91.2-72.64 113.28-19.904 10.24-42.496 16.576-66.88 16.576-25.216 0-49.984-6.592-71.936-19.072-40.384-22.784-67.648-63.68-67.648-110.848 0-71.68 62.464-129.792 139.584-129.792z m-230.4 510.4c9.344-123.008 73.024-224.384 158.464-261.632 21.952 12.48 46.72 19.008 71.936 19.072 23.296-0.064 46.272-5.76 66.88-16.576 0 0 11.072-6.272 58.816 31.488 47.744 37.696 97.792 133.056 104.704 229.248l-460.8-1.6z" fill="#FF6868" p-id="15667"></path></svg>
