<svg version="1.1" id="Layer_1" xmlns="http://www.w3.org/2000/svg" x="0" y="0" viewBox="0 0 256 256" style="enable-background:new 0 0 256 256" xml:space="preserve"><style>.st0{fill:#3a312a}.st1{fill:#d6df58}.st2{fill:#87796f}.st22,.st43{fill:#fae6ca}.st43{fill-rule:evenodd;clip-rule:evenodd}.st44{fill:#f59689}</style><path class="st1" d="M71.173 94.861c-.984 11.697-13.157 13.543-13.157 13.543 10.452.492 13.056 14.221 13.056 14.221.224-9.788 13.456-14.365 13.456-14.365-9.912-.595-13.355-13.399-13.355-13.399z"/><path class="st0" d="M84.619 106.762c-8.703-.522-11.966-12.175-11.998-12.292a1.5 1.5 0 0 0-2.943.266c-.869 10.346-11.439 12.116-11.886 12.186a1.5 1.5 0 0 0 .155 2.982c9.131.43 11.63 12.878 11.653 13.003a1.502 1.502 0 0 0 1.599 1.213 1.5 1.5 0 0 0 1.375-1.459c.196-8.619 12.325-12.939 12.448-12.982a1.5 1.5 0 0 0-.403-2.917zm-13.704 10.484c-1.371-3.178-3.756-7.024-7.701-9.016 2.972-1.42 6.51-3.965 8.322-8.405 1.566 3.116 4.254 6.996 8.458 8.858-3.047 1.66-7.03 4.47-9.079 8.563z"/><path class="st1" d="M49.255 112.036c-.696 8.273-9.306 9.579-9.306 9.579 7.392.348 9.235 10.058 9.235 10.058.158-6.923 9.518-10.161 9.518-10.161-7.012-.419-9.447-9.476-9.447-9.476z"/><path class="st0" d="M58.791 120.016c-5.836-.35-8.066-8.292-8.088-8.372a1.5 1.5 0 0 0-2.943.266c-.586 6.963-7.737 8.175-8.036 8.222a1.5 1.5 0 0 0 .155 2.982c6.108.288 7.816 8.757 7.832 8.84a1.5 1.5 0 0 0 2.974-.246c.131-5.787 8.426-8.749 8.508-8.777a1.5 1.5 0 0 0-.402-2.915zm-9.683 6.888c-.936-1.919-2.375-4.022-4.523-5.374 1.888-1.055 3.764-2.671 4.952-5.005 1.07 1.906 2.694 4.03 5.025 5.316-1.878 1.117-4.059 2.785-5.454 5.063z"/><path class="st1" d="M49.255 85.072c-.696 8.273-9.306 9.579-9.306 9.579 7.392.348 9.235 10.058 9.235 10.058.158-6.923 9.518-10.161 9.518-10.161-7.012-.419-9.447-9.476-9.447-9.476z"/><path class="st0" d="M58.791 93.053c-5.836-.35-8.066-8.292-8.088-8.373a1.512 1.512 0 0 0-1.582-1.102 1.5 1.5 0 0 0-1.361 1.368c-.586 6.964-7.737 8.175-8.036 8.223a1.5 1.5 0 0 0 .155 2.982c6.108.288 7.815 8.757 7.832 8.84a1.5 1.5 0 0 0 2.974-.246c.131-5.788 8.426-8.749 8.508-8.777a1.5 1.5 0 0 0-.402-2.915zm-9.683 6.887c-.936-1.919-2.375-4.022-4.523-5.374 1.888-1.055 3.764-2.671 4.952-5.005 1.07 1.907 2.694 4.03 5.025 5.316-1.878 1.117-4.059 2.786-5.454 5.063z"/><path class="st22" d="M163.837 240.717h72.079v-27.095c0-16.514-13.368-29.9-29.86-29.9h-19.728v-12.839c-5.457 3.788-11.103 6.023-16.582 6.023-5.256 0-10.802-2.257-16.236-6.09h-.335v12.906h-19.74c-16.492 0-29.86 13.386-29.86 29.9v27.095h45.345"/><path class="st0" d="M206.056 182.222h-18.229v-11.339a1.5 1.5 0 0 0-2.356-1.232c-5.501 3.819-10.792 5.755-15.727 5.755-4.729 0-9.899-1.957-15.371-5.815a1.495 1.495 0 0 0-.864-.274h-.335a1.5 1.5 0 0 0-1.5 1.5v11.406h-18.239c-17.292 0-31.36 14.086-31.36 31.4v27.095a1.5 1.5 0 0 0 1.5 1.5h45.345a1.5 1.5 0 1 0 0-3h-43.845v-25.595c0-15.66 12.723-28.4 28.36-28.4h19.739a1.5 1.5 0 0 0 1.5-1.5V173.4c5.259 3.324 10.319 5.006 15.07 5.006 4.829 0 9.893-1.598 15.082-4.756v10.072a1.5 1.5 0 0 0 1.5 1.5h19.729c15.638 0 28.36 12.74 28.36 28.4v25.595h-70.579a1.5 1.5 0 1 0 0 3h72.079a1.5 1.5 0 0 0 1.5-1.5v-27.095c.001-17.314-14.067-31.4-31.359-31.4z"/><path d="M163.837 240.72h72.079v-27.107c0-16.514-13.368-29.9-29.861-29.9h-4.72l.123.089-20.521 27.252-10.59-7.989-10.589 7.989-20.521-27.252.123-.089h-5.925c-16.492 0-29.86 13.386-29.86 29.9v27.107h45.345" style="fill:#8ac5dc"/><path class="st0" d="M206.056 182.213h-4.72a1.5 1.5 0 0 0-1.473 1.215l-19.221 25.525-9.391-7.084a1.502 1.502 0 0 0-1.807 0l-9.392 7.084-19.22-25.525a1.5 1.5 0 0 0-1.473-1.215h-5.926c-17.292 0-31.36 14.086-31.36 31.4v27.107a1.5 1.5 0 0 0 1.5 1.5h45.345a1.5 1.5 0 1 0 0-3h-43.845v-25.607c0-15.66 12.723-28.4 28.36-28.4h4.987l20.138 26.744a1.499 1.499 0 0 0 2.101.295l9.687-7.307 9.686 7.307a1.498 1.498 0 0 0 2.101-.295l20.139-26.744h3.781c15.638 0 28.36 12.74 28.36 28.4v25.607h-70.579a1.5 1.5 0 1 0 0 3h72.079a1.5 1.5 0 0 0 1.5-1.5v-27.107c.003-17.314-14.065-31.4-31.357-31.4z"/><ellipse class="st43" cx="118.471" cy="109.602" rx="11.749" ry="11.765"/><path class="st0" d="M118.472 96.336c-7.306 0-13.25 5.951-13.25 13.265s5.944 13.265 13.25 13.265 13.249-5.951 13.249-13.265-5.944-13.265-13.249-13.265zm0 23.531c-5.652 0-10.25-4.605-10.25-10.265s4.598-10.265 10.25-10.265c5.651 0 10.249 4.605 10.249 10.265s-4.598 10.265-10.249 10.265z"/><ellipse class="st43" cx="221.023" cy="109.602" rx="11.749" ry="11.765"/><path class="st0" d="M221.023 96.336c-7.306 0-13.25 5.951-13.25 13.265s5.944 13.265 13.25 13.265 13.249-5.951 13.249-13.265-5.943-13.265-13.249-13.265zm0 23.531c-5.652 0-10.25-4.605-10.25-10.265s4.598-10.265 10.25-10.265c5.651 0 10.249 4.605 10.249 10.265s-4.597 10.265-10.249 10.265z"/><path class="st22" d="M169.747 51.735c-28.766 0-52.086 23.351-52.086 52.156s28.813 73.018 52.086 73.018c24.382 0 52.086-44.213 52.086-73.018s-23.319-52.156-52.086-52.156z"/><path class="st0" d="M169.747 50.235c-29.548 0-53.586 24.07-53.586 53.656 0 13.993 6.736 32.448 17.581 48.163 11.388 16.502 24.848 26.355 36.005 26.355 11.746 0 25.022-9.609 36.426-26.363 10.585-15.551 17.16-34.003 17.16-48.155 0-29.586-24.038-53.656-53.586-53.656zm0 125.173c-10.171 0-22.708-9.368-33.536-25.059-10.517-15.24-17.05-33.042-17.05-46.458 0-27.932 22.692-50.656 50.586-50.656s50.586 22.724 50.586 50.656c0 28.238-27.133 71.517-50.586 71.517z"/><path class="st0" d="M151.358 98.211a5.087 5.087 0 0 0-5.084 5.091 5.087 5.087 0 0 0 5.084 5.091 5.087 5.087 0 0 0 5.084-5.091 5.087 5.087 0 0 0-5.084-5.091zM188.136 98.211a5.087 5.087 0 0 0-5.084 5.091c0 2.812 2.276 5.091 5.084 5.091s5.084-2.279 5.084-5.091a5.087 5.087 0 0 0-5.084-5.091z"/><path class="st44" d="M141.197 111.881c-4.836 0-8.757 2.935-8.757 6.556 0 3.62 3.921 6.556 8.757 6.556 4.837 0 8.758-2.935 8.758-6.556s-3.921-6.556-8.758-6.556z"/><ellipse class="st44" cx="198.297" cy="118.436" rx="8.757" ry="6.556"/><path class="st2" d="M224.26 91.835c0-28.504-24.137-51.611-53.911-51.611s-53.911 23.107-53.911 51.612c0 3.016.545 5.264 1.558 8.073.477 1.324 8.197-2.904 8.854-3.368 3.287-2.317 5.973-5.458 7.981-8.931a30.477 30.477 0 0 0 2.08-4.383c1.777-4.688 6.605-17.734 11.508-16.711 6.574 1.372 14.026 2.148 21.931 2.148s15.356-.776 21.931-2.148c4.902-1.023 9.731 12.022 11.508 16.711a30.47 30.47 0 0 0 2.079 4.383c3.316 5.744 8.918 11.213 15.733 12.208.017-.33.433-.442.743-.555 2.229-.811 1.916-5.637 1.916-7.428z"/><path class="st0" d="m225.766 92.417-.006-.582c0-29.286-24.857-53.111-55.411-53.111s-55.411 23.826-55.411 53.112c0 3.347.63 5.765 1.646 8.582.196.543.637.958 1.21 1.139.188.059.405.086.648.086 2.877 0 9.209-3.832 9.271-3.875 3.289-2.319 6.199-5.571 8.417-9.409a32.034 32.034 0 0 0 2.182-4.599l.11-.291c5.342-14.118 8.369-15.761 9.688-15.483 6.93 1.446 14.411 2.18 22.237 2.18 7.824 0 15.307-.733 22.237-2.18 1.331-.28 4.347 1.375 9.685 15.475l.114.299a31.938 31.938 0 0 0 2.183 4.602c4.141 7.171 10.427 12.009 16.814 12.942a1.51 1.51 0 0 0 1.441-.618l.031-.011c3.018-1.099 2.951-5.757 2.914-8.258zm-4.012 5.464c-.151.053-.422.148-.7.32-5.229-1.069-10.373-5.252-13.887-11.337a29.136 29.136 0 0 1-1.978-4.167l-.113-.299c-3.484-9.204-7.755-18.461-13.104-17.349-6.729 1.404-14.005 2.116-21.624 2.116-7.62 0-14.896-.712-21.624-2.116-5.348-1.116-9.623 8.15-13.107 17.358l-.109.289a29.063 29.063 0 0 1-1.977 4.164c-2 3.461-4.609 6.385-7.542 8.453-.882.6-5.104 2.763-6.875 3.253-.734-2.169-1.177-4.146-1.177-6.729 0-27.632 23.512-50.112 52.411-50.112s52.411 22.479 52.411 50.111l.007.625c.064 4.372-.56 5.256-1.012 5.42z"/><path class="st2" d="m149.877 175.774-10.633 8.024 20.514 27.257 10.634-8.025z"/><path class="st0" d="m171.59 202.128-20.514-27.256a1.499 1.499 0 0 0-2.101-.295l-10.634 8.025a1.5 1.5 0 0 0-.295 2.099l20.514 27.256a1.499 1.499 0 0 0 2.101.295l10.634-8.025a1.499 1.499 0 0 0 .295-2.099zm-11.537 6.825-18.709-24.859 8.239-6.218 18.709 24.859-8.239 6.218z"/><path class="st2" d="m190.819 175.774-20.514 27.256 10.634 8.025 20.514-27.257z"/><path class="st0" d="m202.356 182.601-10.634-8.025a1.499 1.499 0 0 0-2.101.295l-20.514 27.256a1.499 1.499 0 0 0 .295 2.099l10.633 8.025a1.497 1.497 0 0 0 2.101-.295l20.515-27.256c.498-.661.367-1.6-.295-2.099zm-21.712 26.352-8.238-6.218 18.709-24.859 8.239 6.218-18.71 24.859zM128.364 217.804a1.5 1.5 0 0 0-1.5 1.5v21.416a1.5 1.5 0 1 0 3 0v-21.416a1.5 1.5 0 0 0-1.5-1.5zM212.333 217.804a1.5 1.5 0 0 0-1.5 1.5v21.416a1.5 1.5 0 1 0 3 0v-21.416a1.5 1.5 0 0 0-1.5-1.5z"/><path class="st2" d="M169.375 21.491c-36.717 21.629-58.028-19.949-58.028-.987 0 5.993 2.411 11.971 5.577 17.41l8.763 12.439c8.841 11.148 19.418 23.033 32.191 26.67 20.574 5.857 56.99-1.45 56.99-31.102-.001-18.963-15.872-41.88-45.493-24.43z"/><path class="st0" d="M201.304 16.966c-6.298-3.599-17.083-5.961-32.691 3.232-21.365 12.588-37.273 3.032-46.778-2.677-4.511-2.709-7.491-4.498-9.8-3.191-1.938 1.097-2.188 3.875-2.188 6.174 0 5.539 1.891 11.48 5.779 18.165.022.038.046.074.07.109l8.763 12.438c.017.023.033.046.052.068 9.47 11.94 20.017 23.497 32.955 27.18 4.348 1.237 9.457 1.917 14.825 1.917 10.917 0 22.901-2.811 31.696-9.451 8.099-6.115 12.38-14.764 12.38-25.01 0-10.126-4.657-23.006-15.063-28.954zm.876 51.57c-12.336 9.315-31.417 10.595-43.892 7.043-12.11-3.448-22.249-14.59-31.4-26.125l-8.701-12.35c-3.593-6.19-5.34-11.62-5.34-16.6 0-3.15.638-3.547.665-3.563.783-.445 4.108 1.549 6.778 3.152 9.415 5.655 26.941 16.181 49.846 2.69 11.371-6.699 21.636-7.811 29.68-3.212 9.361 5.351 13.552 17.089 13.552 26.35-.001 9.401-3.764 17.01-11.188 22.615zM184.663 135.821a1.5 1.5 0 0 0-1.931.879c-1.034 2.766-5.079 7.996-12.987 7.996-6.177 0-10.441-2.654-13.037-8.114a1.5 1.5 0 0 0-2.709 1.289c3.1 6.52 8.397 9.826 15.746 9.826 8.299 0 14.007-5.155 15.798-9.945a1.5 1.5 0 0 0-.88-1.931z"/><path d="M206.057 185.235h-3.778l-1.859 2.468c9.899 4.42 16.809 14.373 16.809 25.914v25.591h17.172v-25.591c0-15.657-12.718-28.382-28.344-28.382z" style="fill:#68a6b9"/><ellipse cx="65.257" cy="195.205" rx="45.174" ry="45.234" style="fill-rule:evenodd;clip-rule:evenodd;fill:#d5dc57"/><path class="st0" d="M65.257 148.471c-25.735 0-46.673 20.964-46.673 46.733s20.938 46.734 46.673 46.734c25.736 0 46.674-20.965 46.674-46.734s-20.938-46.733-46.674-46.733zm0 90.467c-24.081 0-43.673-19.619-43.673-43.734s19.592-43.733 43.673-43.733c24.082 0 43.674 19.619 43.674 43.733s-19.592 43.734-43.674 43.734z"/><path class="st2" d="M65.267 163.544c-8.423 0-15.277 6.862-15.277 15.297v11.805a3.49 3.49 0 0 0 3.488 3.493 3.49 3.49 0 0 0 3.488-3.493v-11.805c0-4.583 3.724-8.312 8.301-8.312s8.301 3.729 8.301 8.312v11.805a3.49 3.49 0 0 0 3.488 3.493 3.49 3.49 0 0 0 3.488-3.493v-11.805c0-8.435-6.854-15.297-15.277-15.297z"/><path class="st0" d="M65.267 162.043c-9.251 0-16.776 7.535-16.776 16.797v11.805a4.996 4.996 0 0 0 4.987 4.993 4.996 4.996 0 0 0 4.988-4.993V178.84c0-3.756 3.051-6.812 6.801-6.812s6.801 3.056 6.801 6.812v11.805c0 2.753 2.237 4.993 4.988 4.993s4.988-2.24 4.988-4.993V178.84c0-9.261-7.526-16.797-16.777-16.797zm13.777 28.603c0 1.099-.892 1.993-1.988 1.993s-1.988-.894-1.988-1.993v-11.805c0-5.41-4.396-9.812-9.801-9.812s-9.801 4.402-9.801 9.812v11.805a1.993 1.993 0 0 1-1.988 1.993 1.992 1.992 0 0 1-1.987-1.993v-11.805c0-7.608 6.18-13.797 13.776-13.797s13.777 6.189 13.777 13.797v11.805z"/><path d="M76.036 189.51H54.498a7.809 7.809 0 0 0-7.809 7.809v21.588a7.809 7.809 0 0 0 7.809 7.809h21.538a7.809 7.809 0 0 0 7.809-7.809V197.32a7.81 7.81 0 0 0-7.809-7.81z" style="fill:#ed6e7a"/><path class="st0" d="M76.035 188.01H54.497c-5.133 0-9.309 4.176-9.309 9.309v21.587c0 5.133 4.176 9.309 9.309 9.309h21.538c5.134 0 9.31-4.176 9.31-9.309v-21.587c0-5.132-4.176-9.309-9.31-9.309zm6.31 30.897a6.316 6.316 0 0 1-6.31 6.309H54.497a6.316 6.316 0 0 1-6.309-6.309V197.32a6.316 6.316 0 0 1 6.309-6.309h21.538c3.479 0 6.31 2.83 6.31 6.309v21.587z"/><path class="st2" d="M65.267 197.794a5.673 5.673 0 0 0-5.669 5.677c0 2.261 1.33 4.196 3.24 5.109v7.46a2.431 2.431 0 0 0 2.43 2.433 2.431 2.431 0 0 0 2.43-2.433v-7.46c1.91-.913 3.24-2.849 3.24-5.109a5.675 5.675 0 0 0-5.671-5.677z"/><path class="st0" d="M65.267 196.294c-3.953 0-7.169 3.219-7.169 7.177a7.096 7.096 0 0 0 3.239 5.983v6.586c0 2.168 1.763 3.933 3.93 3.933s3.93-1.764 3.93-3.933v-6.586a7.095 7.095 0 0 0 3.239-5.983c0-3.958-3.216-7.177-7.169-7.177zm1.783 10.932c-.521.25-.854.776-.854 1.354v7.46c0 .514-.417.933-.93.933s-.93-.418-.93-.933v-7.46c0-.578-.332-1.104-.854-1.354-1.472-.704-2.386-2.143-2.386-3.755 0-2.303 1.87-4.177 4.169-4.177s4.169 1.874 4.169 4.177c.002 1.612-.913 3.051-2.384 3.755z"/></svg>
