<svg t="1699676610821" class="icon" viewBox="0 0 1024 1024" version="1.1" xmlns="http://www.w3.org/2000/svg" p-id="8035" width="200" height="200"><path d="M507.642553 518.53617m-501.106383 0a501.106383 501.106383 0 1 0 1002.212766 0 501.106383 501.106383 0 1 0-1002.212766 0Z" fill="#FA6B6D" p-id="8036"></path><path d="M513.089362 262.53617c68.629787 0 125.276596 55.557447 125.276595 123.097873 0 67.540426-55.557447 123.097872-125.276595 123.097872-68.629787 0-125.276596-55.557447-125.276596-123.097872 1.089362-68.629787 56.646809-123.097872 125.276596-123.097873z m0 0c68.629787 0 125.276596 55.557447 125.276595 123.097873 0 67.540426-55.557447 123.097872-125.276595 123.097872-68.629787 0-125.276596-55.557447-125.276596-123.097872 1.089362-68.629787 56.646809-123.097872 125.276596-123.097873z m-46.842553 286.502128h104.578723c89.32766 0 161.225532 70.808511 161.225532 159.046808v9.804256c0 34.859574-71.897872 35.948936-161.225532 35.948936h-104.578723c-89.32766 0-161.225532 0-161.225532-35.948936V708.085106c0-88.238298 72.987234-159.046809 161.225532-159.046808z" fill="#FFFFFF" p-id="8037"></path></svg>
