<svg t="1721557951693" class="icon" viewBox="0 0 1024 1024" version="1.1" xmlns="http://www.w3.org/2000/svg" p-id="19605" width="200" height="200"><path d="M692.497067 546.133333h52.087466l40.482134-260.642133V273.066667h-63.624534L605.730133 471.722667 542.037333 279.210667V273.066667h-63.6928L443.733333 546.133333h52.087467l23.1424-161.3824L570.9824 546.133333h46.2848l98.372267-155.170133-23.1424 148.957867z" fill="#FF7D19" p-id="19606"></path><path d="M845.2096 572.074667c-12.0832 0-18.090667 0-24.1664 11.400533-6.007467 5.7344-12.0832 17.2032-12.0832 22.9376v85.8112H597.674667c-54.340267 0-96.597333 40.004267-96.597334 91.477333v165.888H150.869333c-18.0224 0-36.181333-5.666133-48.264533-17.066666-12.014933-11.4688-24.098133-28.672-24.098133-45.806934V137.216c0-40.004267 36.181333-68.608 72.362666-68.608h585.728c42.1888 0 72.362667 28.603733 72.362667 68.608v51.473067c0 17.2032 18.158933 34.338133 36.2496 34.338133s36.181333-11.400533 42.257067-34.338133v-51.473067C887.466667 62.8736 821.0432 0 742.6048 0H144.861867C66.3552 0 0 57.207467 0 137.284267V886.784C0 961.1264 66.423467 1024 144.861867 1024H615.765333c12.0832 0 18.158933-5.7344 24.1664-11.4688l229.376-211.626667c6.144-5.7344 12.151467-17.2032 12.151467-22.869333v-165.888c0-22.9376-18.158933-40.072533-36.2496-40.072533z m-42.325333 183.022933l-205.2096 188.8256h-24.1664v-165.888c0-5.7344 0-11.4688 6.075733-17.2032 6.007467-5.7344 12.0832-5.7344 18.090667-5.7344h205.277866z" fill="#FF7D19" p-id="19607"></path><path d="M372.804267 273.066667L303.650133 366.1824 251.767467 273.066667H182.613333l80.6912 136.533333L136.533333 546.133333h74.888534L292.181333 453.0176 344.064 546.133333h69.154133L332.458667 409.6l115.234133-136.533333H372.804267z m501.3504 229.649066l28.808533-217.224533V273.066667h-51.882667l-40.277333 266.922666V546.133333h207.4624L1024 502.715733h-149.845333z" fill="#FF7D19" p-id="19608"></path></svg>
