<svg t="1615363824084" class="icon" viewBox="0 0 1024 1024" version="1.1" xmlns="http://www.w3.org/2000/svg" p-id="20947" width="256" height="256"><path d="M662.3 596.1c-42.7 35.9-96.1 55.5-152.5 55.5-56.4 0-109.8-19.6-152.4-55.5-123 53.6-208.5 169.6-208.5 304.1 0 15.4 12.4 27.8 27.8 27.8 1 0 2-0.1 3-0.2H840c1 0.1 2 0.2 3 0.2s2-0.1 3-0.2h3.3v-0.6a27.79 27.79 0 0 0 21.4-27.1c0.1-134.4-85.4-250.4-208.4-304zM277.3 365.3c9.3-45.1 31.4-86.5 64.7-119.8 24.9-24.9 54.3-43.6 86.4-55.3-17.6-54.7-68.7-94.2-129-94.2-74.7 0-135.3 60.7-135.3 135.5 0 67.4 49 123.2 113.2 133.8zM272.4 413.7c0-9.6 0.6-19.2 1.7-28.6h-0.1c-27.5-4.5-53.2-16.5-74.4-34.4C119.6 385.8 64 461.4 64 548.9c0 10 8.1 18.1 18.1 18.1 0.7 0 1.3 0 2-0.1h244.1c-36.1-42.8-55.8-96.5-55.8-153.2zM960 548.9c0-87.6-55.6-163.2-135.6-198.2-22.3 18.8-49.6 31-78.7 35 1.1 9.2 1.6 18.5 1.6 28 0 56.7-19.7 110.4-55.8 153.3h248.4c0.6 0.1 1.3 0.1 2 0.1s1.3 0 2-0.1h2.2v-0.4c7.9-1.9 13.9-9.1 13.9-17.7zM742.5 365.9c66.2-8.8 117.3-65.6 117.3-134.3 0-74.9-60.6-135.5-135.3-135.5-60.8 0-112.3 40.2-129.3 95.5 30.6 11.8 58.7 30 82.6 53.9 33.3 33.4 55.6 75.1 64.7 120.4z" p-id="20948"></path><path d="M302.4 413.7a207.4 207.8 0 1 0 414.8 0 207.4 207.8 0 1 0-414.8 0Z" p-id="20949"></path></svg>
